Jaldi-Regular.ufo
<glyph name="dollar" format="1">
  <advance width="231"/>
  <unicode hex="0024"/>
  <outline>
    <contour>
      <point x="118" y="-33" type="curve" smooth="yes"/>
      <point x="111.5" y="-33"/>
      <point x="108.5" y="-31"/>
      <point x="108.5" y="-25.5" type="curve" smooth="yes"/>
      <point x="108.5" y="-3" type="line"/>
      <point x="56" y="-1.5"/>
      <point x="16.5" y="18.5"/>
      <point x="16.5" y="31" type="curve" smooth="yes"/>
      <point x="16.5" y="38.5"/>
      <point x="27.5" y="56.5"/>
      <point x="32.5" y="56.5" type="curve" smooth="yes"/>
      <point x="38" y="56.5"/>
      <point x="63.5" y="32"/>
      <point x="108.5" y="31" type="curve"/>
      <point x="108.5" y="151" type="line"/>
      <point x="67.5" y="167"/>
      <point x="22.5" y="183"/>
      <point x="22.5" y="243.5" type="curve" smooth="yes"/>
      <point x="22.5" y="289"/>
      <point x="56" y="320.5"/>
      <point x="108.5" y="326" type="curve"/>
      <point x="108.5" y="346" type="line" smooth="yes"/>
      <point x="108.5" y="351"/>
      <point x="111.5" y="353"/>
      <point x="118" y="353" type="curve" smooth="yes"/>
      <point x="124.5" y="353"/>
      <point x="127" y="351"/>
      <point x="127" y="346" type="curve" smooth="yes"/>
      <point x="127" y="327" type="line"/>
      <point x="154" y="326.5"/>
      <point x="201" y="316"/>
      <point x="201" y="300.5" type="curve" smooth="yes"/>
      <point x="201" y="293.5"/>
      <point x="190.5" y="276"/>
      <point x="186" y="276" type="curve" smooth="yes"/>
      <point x="179" y="276"/>
      <point x="162" y="292.5"/>
      <point x="127" y="293.5" type="curve"/>
      <point x="127" y="185" type="line"/>
      <point x="168.5" y="170"/>
      <point x="216" y="153.5"/>
      <point x="216" y="89" type="curve" smooth="yes"/>
      <point x="216" y="36"/>
      <point x="181.5" y="2.5"/>
      <point x="127" y="-2.5" type="curve"/>
      <point x="127" y="-25.5" type="line" smooth="yes"/>
      <point x="127" y="-31"/>
      <point x="124.5" y="-33"/>
    </contour>
    <contour>
      <point x="108.5" y="192" type="curve"/>
      <point x="108.5" y="292" type="line"/>
      <point x="82" y="287.5"/>
      <point x="65" y="270.5"/>
      <point x="65" y="241.5" type="curve" smooth="yes"/>
      <point x="65" y="215"/>
      <point x="84" y="202"/>
    </contour>
    <contour>
      <point x="127" y="32" type="line"/>
      <point x="154.5" y="37.5"/>
      <point x="174" y="58.5"/>
      <point x="174" y="89" type="curve" smooth="yes"/>
      <point x="174" y="118.5"/>
      <point x="153" y="132.5"/>
      <point x="127" y="143.5" type="curve"/>
    </contour>
  </outline>
</glyph>
<glyph name="parenright" format="1">
  <advance width="141"/>
  <unicode hex="0029"/>
  <outline>
    <contour>
      <point x="19" y="-98.5" type="curve" smooth="yes"/>
      <point x="12.5" y="-98.5"/>
      <point x="4" y="-92"/>
      <point x="4" y="-86" type="curve" smooth="yes"/>
      <point x="4" y="-84"/>
      <point x="5.5" y="-81.5"/>
      <point x="7.5" y="-79" type="curve" smooth="yes"/>
      <point x="50" y="-30.5"/>
      <point x="77" y="46.5"/>
      <point x="77" y="133.5" type="curve" smooth="yes"/>
      <point x="77" y="218"/>
      <point x="51" y="293.5"/>
      <point x="10" y="343" type="curve" smooth="yes"/>
      <point x="7" y="346"/>
      <point x="5.5" y="349.5"/>
      <point x="5.5" y="352.5" type="curve" smooth="yes"/>
      <point x="5.5" y="357"/>
      <point x="11.5" y="365.5"/>
      <point x="18.5" y="365.5" type="curve" smooth="yes"/>
      <point x="22" y="365.5"/>
      <point x="25.5" y="363.5"/>
      <point x="29" y="360" type="curve" smooth="yes"/>
      <point x="80.5" y="312.5"/>
      <point x="114.5" y="229"/>
      <point x="114.5" y="133.5" type="curve" smooth="yes"/>
      <point x="114.5" y="37.5"/>
      <point x="80.5" y="-46"/>
      <point x="29" y="-93.5" type="curve" smooth="yes"/>
      <point x="25.5" y="-97"/>
      <point x="22.5" y="-98.5"/>
    </contour>
  </outline>
</glyph>
<glyph name="plus" format="1">
  <advance width="261"/>
  <unicode hex="002B"/>
  <outline>
    <contour>
      <point x="129" y="-1" type="line" smooth="yes"/>
      <point x="119.5" y="-1"/>
      <point x="115" y="2"/>
      <point x="115" y="8.5" type="curve" smooth="yes"/>
      <point x="115" y="92" type="line"/>
      <point x="31.5" y="92" type="line" smooth="yes"/>
      <point x="25" y="92"/>
      <point x="22.5" y="94"/>
      <point x="22.5" y="104" type="curve" smooth="yes"/>
      <point x="22.5" y="107" type="line" smooth="yes"/>
      <point x="22.5" y="117"/>
      <point x="25" y="123"/>
      <point x="31.5" y="123" type="curve" smooth="yes"/>
      <point x="115" y="123" type="line"/>
      <point x="115" y="206.5" type="line" smooth="yes"/>
      <point x="115" y="213"/>
      <point x="119.5" y="216"/>
      <point x="129" y="216" type="curve" smooth="yes"/>
      <point x="132.5" y="216" type="line" smooth="yes"/>
      <point x="142" y="216"/>
      <point x="146.5" y="213"/>
      <point x="146.5" y="206.5" type="curve" smooth="yes"/>
      <point x="146.5" y="123" type="line"/>
      <point x="229.5" y="123" type="line" smooth="yes"/>
      <point x="236" y="123"/>
      <point x="238.5" y="119"/>
      <point x="238.5" y="109" type="curve" smooth="yes"/>
      <point x="238.5" y="106" type="line" smooth="yes"/>
      <point x="238.5" y="96"/>
      <point x="236" y="92"/>
      <point x="229.5" y="92" type="curve" smooth="yes"/>
      <point x="146.5" y="92" type="line"/>
      <point x="146.5" y="8.5" type="line" smooth="yes"/>
      <point x="146.5" y="2"/>
      <point x="142" y="-1"/>
      <point x="132.5" y="-1" type="curve" smooth="yes"/>
    </contour>
  </outline>
</glyph>
<glyph name="period" format="1">
  <advance width="93"/>
  <unicode hex="002E"/>
  <outline>
    <contour>
      <point x="42.5" y="-1" type="line" smooth="yes"/>
      <point x="29.5" y="-1"/>
      <point x="24" y="3"/>
      <point x="24" y="9.5" type="curve" smooth="yes"/>
      <point x="24" y="40" type="line" smooth="yes"/>
      <point x="24" y="46.5"/>
      <point x="29.5" y="50.5"/>
      <point x="42.5" y="50.5" type="curve" smooth="yes"/>
      <point x="50.5" y="50.5" type="line" smooth="yes"/>
      <point x="63.5" y="50.5"/>
      <point x="69" y="46.5"/>
      <point x="69" y="40" type="curve" smooth="yes"/>
      <point x="69" y="9.5" type="line" smooth="yes"/>
      <point x="69" y="3"/>
      <point x="63.5" y="-1"/>
      <point x="50.5" y="-1" type="curve" smooth="yes"/>
    </contour>
  </outline>
</glyph>
<glyph name="zero" format="1">
  <advance width="250"/>
  <unicode hex="0030"/>
  <outline>
    <contour>
      <point x="124" y="-3" type="curve" smooth="yes"/>
      <point x="68" y="-3"/>
      <point x="18" y="47"/>
      <point x="18" y="163" type="curve" smooth="yes"/>
      <point x="18" y="279"/>
      <point x="68" y="329"/>
      <point x="124" y="329" type="curve" smooth="yes"/>
      <point x="180.5" y="329"/>
      <point x="230.5" y="279"/>
      <point x="230.5" y="163" type="curve" smooth="yes"/>
      <point x="230.5" y="47"/>
      <point x="180.5" y="-3"/>
    </contour>
    <contour>
      <point x="124" y="31" type="curve" smooth="yes"/>
      <point x="157.5" y="31"/>
      <point x="191" y="65.5"/>
      <point x="191" y="163" type="curve" smooth="yes"/>
      <point x="191" y="260.5"/>
      <point x="157.5" y="295.5"/>
      <point x="124" y="295.5" type="curve" smooth="yes"/>
      <point x="90.5" y="295.5"/>
      <point x="58" y="260.5"/>
      <point x="58" y="163" type="curve" smooth="yes"/>
      <point x="58" y="65.5"/>
      <point x="90.5" y="31"/>
    </contour>
  </outline>
</glyph>
<glyph name="six" format="1">
  <advance width="250"/>
  <unicode hex="0036"/>
  <outline>
    <contour>
      <point x="123" y="-2.5" type="curve" smooth="yes"/>
      <point x="57" y="-2.5"/>
      <point x="24" y="41"/>
      <point x="24" y="115" type="curve" smooth="yes"/>
      <point x="24" y="250"/>
      <point x="144" y="327"/>
      <point x="175" y="327" type="curve" smooth="yes"/>
      <point x="185" y="327"/>
      <point x="190.5" y="308"/>
      <point x="190.5" y="302.5" type="curve" smooth="yes"/>
      <point x="190.5" y="301"/>
      <point x="190" y="298.5"/>
      <point x="187" y="297.5" type="curve" smooth="yes"/>
      <point x="123.5" y="271"/>
      <point x="86.5" y="225.5"/>
      <point x="72" y="173.5" type="curve"/>
      <point x="86" y="181.5"/>
      <point x="106" y="188.5"/>
      <point x="134.5" y="188.5" type="curve" smooth="yes"/>
      <point x="184" y="188.5"/>
      <point x="223.5" y="152"/>
      <point x="223.5" y="94.5" type="curve" smooth="yes"/>
      <point x="223.5" y="35.5"/>
      <point x="179.5" y="-2.5"/>
    </contour>
    <contour>
      <point x="125.5" y="31" type="curve" smooth="yes"/>
      <point x="150.5" y="31"/>
      <point x="184" y="50"/>
      <point x="184" y="92.5" type="curve" smooth="yes"/>
      <point x="184" y="138.5"/>
      <point x="154" y="155"/>
      <point x="123" y="155" type="curve" smooth="yes"/>
      <point x="98.5" y="155"/>
      <point x="78" y="147"/>
      <point x="65" y="139.5" type="curve"/>
      <point x="64" y="130"/>
      <point x="63" y="120"/>
      <point x="63" y="111.5" type="curve" smooth="yes"/>
      <point x="63" y="46"/>
      <point x="96" y="31"/>
    </contour>
  </outline>
</glyph>
<glyph name="colon" format="1">
  <advance width="93"/>
  <unicode hex="003A"/>
  <outline>
    <contour>
      <point x="42.5" y="193.5" type="line" smooth="yes"/>
      <point x="29.5" y="193.5"/>
      <point x="24" y="197"/>
      <point x="24" y="203.5" type="curve" smooth="yes"/>
      <point x="24" y="234.5" type="line" smooth="yes"/>
      <point x="24" y="241"/>
      <point x="29.5" y="244.5"/>
      <point x="42.5" y="244.5" type="curve" smooth="yes"/>
      <point x="50.5" y="244.5" type="line" smooth="yes"/>
      <point x="63.5" y="244.5"/>
      <point x="69" y="241"/>
      <point x="69" y="234.5" type="curve" smooth="yes"/>
      <point x="69" y="203.5" type="line" smooth="yes"/>
      <point x="69" y="197"/>
      <point x="63.5" y="193.5"/>
      <point x="50.5" y="193.5" type="curve" smooth="yes"/>
    </contour>
    <contour>
      <point x="42.5" y="-1" type="line" smooth="yes"/>
      <point x="29.5" y="-1"/>
      <point x="24" y="3"/>
      <point x="24" y="9.5" type="curve" smooth="yes"/>
      <point x="24" y="40" type="line" smooth="yes"/>
      <point x="24" y="46.5"/>
      <point x="29.5" y="50.5"/>
      <point x="42.5" y="50.5" type="curve" smooth="yes"/>
      <point x="50.5" y="50.5" type="line" smooth="yes"/>
      <point x="63.5" y="50.5"/>
      <point x="69" y="46.5"/>
      <point x="69" y="40" type="curve" smooth="yes"/>
      <point x="69" y="9.5" type="line" smooth="yes"/>
      <point x="69" y="3"/>
      <point x="63.5" y="-1"/>
      <point x="50.5" y="-1" type="curve" smooth="yes"/>
    </contour>
  </outline>
</glyph>
<glyph name="greater" format="1">
  <advance width="261"/>
  <unicode hex="003E"/>
  <outline>
    <contour>
      <point x="31" y="3" type="curve" smooth="yes"/>
      <point x="25.5" y="3"/>
      <point x="21.5" y="7"/>
      <point x="21.5" y="15" type="curve" smooth="yes"/>
      <point x="21.5" y="21.5" type="line" smooth="yes"/>
      <point x="21.5" y="29.5"/>
      <point x="25" y="34.5"/>
      <point x="32.5" y="37.5" type="curve" smooth="yes"/>
      <point x="198.5" y="106" type="line"/>
      <point x="32.5" y="173.5" type="line" smooth="yes"/>
      <point x="25" y="176"/>
      <point x="21.5" y="181.5"/>
      <point x="21.5" y="189.5" type="curve" smooth="yes"/>
      <point x="21.5" y="196" type="line" smooth="yes"/>
      <point x="21.5" y="204"/>
      <point x="25.5" y="208.5"/>
      <point x="31" y="208.5" type="curve" smooth="yes"/>
      <point x="33.5" y="208.5"/>
      <point x="36" y="208"/>
      <point x="38" y="207" type="curve" smooth="yes"/>
      <point x="229.5" y="126" type="line" smooth="yes"/>
      <point x="237" y="122.5"/>
      <point x="241.5" y="117.5"/>
      <point x="241.5" y="109.5" type="curve" smooth="yes"/>
      <point x="241.5" y="101.5" type="line" smooth="yes"/>
      <point x="241.5" y="93.5"/>
      <point x="237" y="88.5"/>
      <point x="229.5" y="85.5" type="curve" smooth="yes"/>
      <point x="38" y="4" type="line" smooth="yes"/>
      <point x="36" y="3.5"/>
      <point x="33.5" y="3"/>
    </contour>
  </outline>
</glyph>
<glyph name="question" format="1">
  <advance width="208"/>
  <unicode hex="003F"/>
  <outline>
    <contour>
      <point x="83.5" y="94" type="line" smooth="yes"/>
      <point x="73.5" y="94"/>
      <point x="69.5" y="98.5"/>
      <point x="69.5" y="105" type="curve" smooth="yes"/>
      <point x="69.5" y="126"/>
      <point x="84" y="153.5"/>
      <point x="109.5" y="179" type="curve" smooth="yes"/>
      <point x="133.5" y="202.5"/>
      <point x="154" y="222.5"/>
      <point x="154" y="246" type="curve" smooth="yes"/>
      <point x="154" y="278.5"/>
      <point x="133.5" y="294.5"/>
      <point x="95" y="294.5" type="curve" smooth="yes"/>
      <point x="65.5" y="294.5"/>
      <point x="44.5" y="278.5"/>
      <point x="37.5" y="278.5" type="curve" smooth="yes"/>
      <point x="32.5" y="278.5"/>
      <point x="22.5" y="296"/>
      <point x="22.5" y="302.5" type="curve" smooth="yes"/>
      <point x="22.5" y="318.5"/>
      <point x="68.5" y="329"/>
      <point x="102.5" y="329" type="curve" smooth="yes"/>
      <point x="164.5" y="329"/>
      <point x="198" y="292.5"/>
      <point x="198" y="250.5" type="curve" smooth="yes"/>
      <point x="198" y="188"/>
      <point x="113" y="157.5"/>
      <point x="106" y="103.5" type="curve" smooth="yes"/>
      <point x="105" y="97.5"/>
      <point x="101.5" y="94"/>
      <point x="90.5" y="94" type="curve" smooth="yes"/>
    </contour>
    <contour>
      <point x="82" y="-1" type="line" smooth="yes"/>
      <point x="69" y="-1"/>
      <point x="63.5" y="3"/>
      <point x="63.5" y="9.5" type="curve" smooth="yes"/>
      <point x="63.5" y="40" type="line" smooth="yes"/>
      <point x="63.5" y="46.5"/>
      <point x="69" y="50.5"/>
      <point x="82" y="50.5" type="curve" smooth="yes"/>
      <point x="90" y="50.5" type="line" smooth="yes"/>
      <point x="103" y="50.5"/>
      <point x="108.5" y="46.5"/>
      <point x="108.5" y="40" type="curve" smooth="yes"/>
      <point x="108.5" y="9.5" type="line" smooth="yes"/>
      <point x="108.5" y="3"/>
      <point x="103" y="-1"/>
      <point x="90" y="-1" type="curve" smooth="yes"/>
    </contour>
  </outline>
</glyph>
<glyph name="at" format="1">
  <advance width="454"/>
  <unicode hex="0040"/>
  <outline>
    <contour>
      <point x="249" y="328.5" type="curve" smooth="yes"/>
      <point x="342.5" y="328.5"/>
      <point x="404" y="268.5"/>
      <point x="404" y="177" type="curve" smooth="yes"/>
      <point x="404" y="92.5"/>
      <point x="364" y="25"/>
      <point x="306" y="25" type="curve" smooth="yes"/>
      <point x="277" y="25"/>
      <point x="260" y="43.5"/>
      <point x="260" y="64" type="curve" smooth="yes"/>
      <point x="260" y="67" type="line"/>
      <point x="243.5" y="37"/>
      <point x="221" y="25"/>
      <point x="197" y="25" type="curve" smooth="yes"/>
      <point x="170.5" y="25"/>
      <point x="129.5" y="41.5"/>
      <point x="129.5" y="110" type="curve" smooth="yes"/>
      <point x="129.5" y="183"/>
      <point x="168" y="235.5"/>
      <point x="228" y="235.5" type="curve" smooth="yes"/>
      <point x="253.5" y="235.5"/>
      <point x="271" y="222"/>
      <point x="279.5" y="213.5" type="curve"/>
      <point x="284.5" y="227"/>
      <point x="284.5" y="234"/>
      <point x="296" y="234" type="curve" smooth="yes"/>
      <point x="298.5" y="234" type="line" smooth="yes"/>
      <point x="306" y="234"/>
      <point x="309" y="230"/>
      <point x="309" y="224" type="curve" smooth="yes"/>
      <point x="309" y="224"/>
      <point x="293.5" y="80.5"/>
      <point x="293.5" y="69.5" type="curve" smooth="yes"/>
      <point x="293.5" y="50"/>
      <point x="307.5" y="50"/>
      <point x="312" y="50" type="curve" smooth="yes"/>
      <point x="346.5" y="50"/>
      <point x="379" y="109.5"/>
      <point x="379" y="177" type="curve" smooth="yes"/>
      <point x="379" y="256"/>
      <point x="326.5" y="308"/>
      <point x="249" y="308" type="curve" smooth="yes"/>
      <point x="145.5" y="308"/>
      <point x="64.5" y="221.5"/>
      <point x="64.5" y="110.5" type="curve" smooth="yes"/>
      <point x="64.5" y="22"/>
      <point x="115.5" y="-38"/>
      <point x="191" y="-38" type="curve" smooth="yes"/>
      <point x="236.5" y="-38"/>
      <point x="251.5" y="-24.5"/>
      <point x="263" y="-24.5" type="curve" smooth="yes"/>
      <point x="267" y="-24.5"/>
      <point x="269.5" y="-28"/>
      <point x="269.5" y="-35.5" type="curve" smooth="yes"/>
      <point x="269.5" y="-53.5"/>
      <point x="215" y="-58.5"/>
      <point x="191" y="-58.5" type="curve" smooth="yes"/>
      <point x="100.5" y="-58.5"/>
      <point x="39" y="10"/>
      <point x="39" y="110.5" type="curve" smooth="yes"/>
      <point x="39" y="233"/>
      <point x="131" y="328.5"/>
    </contour>
    <contour>
      <point x="264.5" y="119.5" type="curve"/>
      <point x="267" y="143"/>
      <point x="270.5" y="180"/>
      <point x="273.5" y="190.5" type="curve"/>
      <point x="265.5" y="197"/>
      <point x="251" y="206.5"/>
      <point x="230.5" y="206.5" type="curve" smooth="yes"/>
      <point x="177" y="206.5"/>
      <point x="163.5" y="159.5"/>
      <point x="163.5" y="112.5" type="curve" smooth="yes"/>
      <point x="163.5" y="67.5"/>
      <point x="182" y="53.5"/>
      <point x="204.5" y="53.5" type="curve" smooth="yes"/>
      <point x="222.5" y="53.5"/>
      <point x="248" y="68"/>
    </contour>
  </outline>
</glyph>
<glyph name="J" format="1">
  <advance width="188"/>
  <unicode hex="004A"/>
  <outline>
    <contour>
      <point x="127" y="326" type="move" name="Anchor-1"/>
    </contour>
    <contour>
      <point x="0" y="0" type="move" name="Anchor-0"/>
    </contour>
    <contour>
      <point x="50" y="-3" type="curve" smooth="yes"/>
      <point x="32" y="-3"/>
      <point x="3" y="-0.5"/>
      <point x="3" y="12" type="curve" smooth="yes"/>
      <point x="3" y="14"/>
      <point x="5.5" y="37.5"/>
      <point x="13" y="37.5" type="curve" smooth="yes"/>
      <point x="17" y="37.5"/>
      <point x="27.5" y="33.5"/>
      <point x="42.5" y="33.5" type="curve" smooth="yes"/>
      <point x="88.5" y="33.5"/>
      <point x="107.5" y="51"/>
      <point x="107.5" y="91" type="curve" smooth="yes"/>
      <point x="107.5" y="317" type="line" smooth="yes"/>
      <point x="107.5" y="323.5"/>
      <point x="113" y="327"/>
      <point x="126.5" y="327" type="curve" smooth="yes"/>
      <point x="130" y="327" type="line" smooth="yes"/>
      <point x="143" y="327"/>
      <point x="148.5" y="323.5"/>
      <point x="148.5" y="317" type="curve" smooth="yes"/>
      <point x="148.5" y="95.5" type="line" smooth="yes"/>
      <point x="148.5" y="37"/>
      <point x="121.5" y="-3"/>
    </contour>
  </outline>
</glyph>
<glyph name="M" format="1">
  <advance width="393"/>
  <unicode hex="004D"/>
  <outline>
    <contour>
      <point x="60.5" y="-1" type="line" smooth="yes"/>
      <point x="47.5" y="-1"/>
      <point x="42" y="3"/>
      <point x="42" y="9.5" type="curve" smooth="yes"/>
      <point x="42" y="317" type="line" smooth="yes"/>
      <point x="42" y="323.5"/>
      <point x="47.5" y="327"/>
      <point x="60.5" y="327" type="curve" smooth="yes"/>
      <point x="77.5" y="327" type="line" smooth="yes"/>
      <point x="88.5" y="327"/>
      <point x="94" y="324"/>
      <point x="97" y="318.5" type="curve" smooth="yes"/>
      <point x="185" y="166" type="line"/>
      <point x="197" y="136.5" type="line"/>
      <point x="209" y="163" type="line"/>
      <point x="297.5" y="318.5" type="line" smooth="yes"/>
      <point x="300" y="324"/>
      <point x="305.5" y="327"/>
      <point x="317" y="327" type="curve" smooth="yes"/>
      <point x="332.5" y="327" type="line" smooth="yes"/>
      <point x="345.5" y="327"/>
      <point x="351" y="323.5"/>
      <point x="351" y="317" type="curve" smooth="yes"/>
      <point x="351" y="9.5" type="line" smooth="yes"/>
      <point x="351" y="3"/>
      <point x="345.5" y="-1"/>
      <point x="332.5" y="-1" type="curve" smooth="yes"/>
      <point x="329" y="-1" type="line" smooth="yes"/>
      <point x="316" y="-1"/>
      <point x="310.5" y="3"/>
      <point x="310.5" y="9.5" type="curve" smooth="yes"/>
      <point x="310.5" y="260" type="line"/>
      <point x="309.5" y="258" type="line"/>
      <point x="216.5" y="97" type="line" smooth="yes"/>
      <point x="214.5" y="92.5"/>
      <point x="211.5" y="91"/>
      <point x="206.5" y="91" type="curve" smooth="yes"/>
      <point x="188" y="91" type="line" smooth="yes"/>
      <point x="183" y="91"/>
      <point x="180" y="92.5"/>
      <point x="177.5" y="97" type="curve" smooth="yes"/>
      <point x="83.5" y="261" type="line"/>
      <point x="82.5" y="263" type="line"/>
      <point x="82.5" y="9.5" type="line" smooth="yes"/>
      <point x="82.5" y="3"/>
      <point x="77" y="-1"/>
      <point x="64" y="-1" type="curve" smooth="yes"/>
    </contour>
  </outline>
</glyph>
<glyph name="P" format="1">
  <advance width="266"/>
  <unicode hex="0050"/>
  <outline>
    <contour>
      <point x="58" y="-1" type="line" smooth="yes"/>
      <point x="45" y="-1"/>
      <point x="39.5" y="3"/>
      <point x="39.5" y="9.5" type="curve" smooth="yes"/>
      <point x="39.5" y="312" type="line" smooth="yes"/>
      <point x="39.5" y="322"/>
      <point x="44" y="326"/>
      <point x="53.5" y="326" type="curve" smooth="yes"/>
      <point x="148" y="326" type="line" smooth="yes"/>
      <point x="188.5" y="326"/>
      <point x="252" y="313.5"/>
      <point x="252" y="235" type="curve" smooth="yes"/>
      <point x="252" y="149.5"/>
      <point x="177" y="139"/>
      <point x="153" y="139" type="curve" smooth="yes"/>
      <point x="80.5" y="139" type="line"/>
      <point x="80.5" y="9.5" type="line" smooth="yes"/>
      <point x="80.5" y="3"/>
      <point x="75" y="-1"/>
      <point x="62" y="-1" type="curve" smooth="yes"/>
    </contour>
    <contour>
      <point x="80.5" y="174.5" type="line"/>
      <point x="153.5" y="174.5" type="line" smooth="yes"/>
      <point x="172" y="174.5"/>
      <point x="209.5" y="184"/>
      <point x="209.5" y="235" type="curve" smooth="yes"/>
      <point x="209.5" y="281"/>
      <point x="174.5" y="291"/>
      <point x="147" y="291" type="curve" smooth="yes"/>
      <point x="80.5" y="291" type="line"/>
    </contour>
  </outline>
</glyph>
<glyph name="Q" format="1">
  <advance width="341"/>
  <unicode hex="0051"/>
  <outline>
    <contour>
      <point x="299" y="-69" type="curve" smooth="yes"/>
      <point x="293.5" y="-69"/>
      <point x="128" y="-3"/>
      <point x="114.5" y="3" type="curve" smooth="yes"/>
      <point x="56" y="26"/>
      <point x="26.5" y="78.5"/>
      <point x="26.5" y="161.5" type="curve" smooth="yes"/>
      <point x="26.5" y="271"/>
      <point x="77" y="329"/>
      <point x="170" y="329" type="curve" smooth="yes"/>
      <point x="264" y="329"/>
      <point x="314" y="270.5"/>
      <point x="314" y="161.5" type="curve" smooth="yes"/>
      <point x="314" y="73"/>
      <point x="281" y="18.5"/>
      <point x="220.5" y="2.5" type="curve"/>
      <point x="220.5" y="0.5" type="line"/>
      <point x="312" y="-28.5" type="line" smooth="yes"/>
      <point x="316.5" y="-30"/>
      <point x="318.5" y="-32"/>
      <point x="318.5" y="-35.5" type="curve" smooth="yes"/>
      <point x="318.5" y="-41"/>
      <point x="310" y="-69"/>
    </contour>
    <contour>
      <point x="170" y="31" type="curve" smooth="yes"/>
      <point x="235" y="31"/>
      <point x="271.5" y="77.5"/>
      <point x="271.5" y="161.5" type="curve" smooth="yes"/>
      <point x="271.5" y="246.5"/>
      <point x="235" y="293.5"/>
      <point x="170" y="293.5" type="curve" smooth="yes"/>
      <point x="106" y="293.5"/>
      <point x="69" y="247"/>
      <point x="69" y="161.5" type="curve" smooth="yes"/>
      <point x="69" y="77"/>
      <point x="106" y="31"/>
    </contour>
  </outline>
</glyph>
<glyph name="bracketleft" format="1">
  <advance width="136"/>
  <unicode hex="005B"/>
  <outline>
    <contour>
      <point x="56" y="-64.5" type="line" smooth="yes"/>
      <point x="46" y="-64.5"/>
      <point x="42" y="-60"/>
      <point x="42" y="-50.5" type="curve" smooth="yes"/>
      <point x="42" y="344" type="line" smooth="yes"/>
      <point x="42" y="353.5"/>
      <point x="46" y="358"/>
      <point x="56" y="358" type="curve" smooth="yes"/>
      <point x="112.5" y="358" type="line" smooth="yes"/>
      <point x="119" y="358"/>
      <point x="121.5" y="354"/>
      <point x="121.5" y="344.5" type="curve" smooth="yes"/>
      <point x="121.5" y="342" type="line" smooth="yes"/>
      <point x="121.5" y="332.5"/>
      <point x="119" y="328.5"/>
      <point x="112.5" y="328.5" type="curve" smooth="yes"/>
      <point x="76.5" y="328.5" type="line"/>
      <point x="76.5" y="-35.5" type="line"/>
      <point x="112.5" y="-35.5" type="line" smooth="yes"/>
      <point x="119" y="-35.5"/>
      <point x="121.5" y="-39"/>
      <point x="121.5" y="-49" type="curve" smooth="yes"/>
      <point x="121.5" y="-51" type="line" smooth="yes"/>
      <point x="121.5" y="-60.5"/>
      <point x="119" y="-64.5"/>
      <point x="112.5" y="-64.5" type="curve" smooth="yes"/>
    </contour>
  </outline>
</glyph>
<glyph name="k" format="1">
  <advance width="243"/>
  <unicode hex="006B"/>
  <outline>
    <contour>
      <point x="0" y="0" type="move" name="Anchor-1"/>
    </contour>
    <contour>
      <point x="122" y="0" type="move" name="Anchor-0"/>
    </contour>
    <contour>
      <point x="62.5" y="-1" type="line" smooth="yes"/>
      <point x="49.5" y="-1"/>
      <point x="44" y="3"/>
      <point x="44" y="9.5" type="curve" smooth="yes"/>
      <point x="44" y="340" type="line" smooth="yes"/>
      <point x="44" y="346.5"/>
      <point x="49.5" y="350.5"/>
      <point x="62.5" y="350.5" type="curve" smooth="yes"/>
      <point x="64.5" y="350.5" type="line" smooth="yes"/>
      <point x="77.5" y="350.5"/>
      <point x="83" y="346.5"/>
      <point x="83" y="340" type="curve" smooth="yes"/>
      <point x="83" y="132" type="line"/>
      <point x="85" y="132" type="line"/>
      <point x="174" y="238" type="line" smooth="yes"/>
      <point x="178" y="243.5"/>
      <point x="188.5" y="244.5"/>
      <point x="198.5" y="244.5" type="curve" smooth="yes"/>
      <point x="200.5" y="244.5" type="line" smooth="yes"/>
      <point x="211.5" y="244.5"/>
      <point x="216.5" y="242"/>
      <point x="216.5" y="238.5" type="curve" smooth="yes"/>
      <point x="216.5" y="236.5"/>
      <point x="215.5" y="233"/>
      <point x="212" y="229.5" type="curve" smooth="yes"/>
      <point x="125.5" y="127" type="line"/>
      <point x="221.5" y="13" type="line" smooth="yes"/>
      <point x="224.5" y="9.5"/>
      <point x="225.5" y="7.5"/>
      <point x="225.5" y="5.5" type="curve" smooth="yes"/>
      <point x="225.5" y="0.5"/>
      <point x="219.5" y="-1"/>
      <point x="205" y="-1" type="curve" smooth="yes"/>
      <point x="203" y="-1" type="line" smooth="yes"/>
      <point x="193" y="-1"/>
      <point x="182.5" y="-0.5"/>
      <point x="178" y="5" type="curve" smooth="yes"/>
      <point x="85" y="115.5" type="line"/>
      <point x="83" y="115.5" type="line"/>
      <point x="83" y="9.5" type="line" smooth="yes"/>
      <point x="83" y="3"/>
      <point x="77.5" y="-1"/>
      <point x="64.5" y="-1" type="curve" smooth="yes"/>
    </contour>
  </outline>
</glyph>
<glyph name="o" format="1">
  <advance width="265"/>
  <unicode hex="006F"/>
  <outline>
    <contour>
      <point x="133" y="244" type="move" name="Anchor-1"/>
    </contour>
    <contour>
      <point x="136" y="0" type="move" name="Anchor-0"/>
    </contour>
    <contour>
      <point x="133.5" y="-3" type="curve" smooth="yes"/>
      <point x="63.5" y="-3"/>
      <point x="25.5" y="40.5"/>
      <point x="25.5" y="120.5" type="curve" smooth="yes"/>
      <point x="25.5" y="201.5"/>
      <point x="64.5" y="246.5"/>
      <point x="133.5" y="246.5" type="curve" smooth="yes"/>
      <point x="202" y="246.5"/>
      <point x="239.5" y="202"/>
      <point x="239.5" y="120.5" type="curve" smooth="yes"/>
      <point x="239.5" y="40"/>
      <point x="203" y="-3"/>
    </contour>
    <contour>
      <point x="132.5" y="31" type="curve" smooth="yes"/>
      <point x="178" y="31"/>
      <point x="199" y="59.5"/>
      <point x="199" y="121.5" type="curve" smooth="yes"/>
      <point x="199" y="183.5"/>
      <point x="178" y="213"/>
      <point x="132.5" y="213" type="curve" smooth="yes"/>
      <point x="87" y="213"/>
      <point x="66.5" y="184"/>
      <point x="66.5" y="121.5" type="curve" smooth="yes"/>
      <point x="66.5" y="59.5"/>
      <point x="86.5" y="31"/>
    </contour>
  </outline>
</glyph>
<glyph name="t" format="1">
  <advance width="160"/>
  <unicode hex="0074"/>
  <outline>
    <contour>
      <point x="0" y="0" type="move" name="Anchor-1"/>
    </contour>
    <contour>
      <point x="101" y="0" type="move" name="Anchor-0"/>
    </contour>
    <contour>
      <point x="110" y="-3" type="curve" smooth="yes"/>
      <point x="86.5" y="-3"/>
      <point x="50" y="7.5"/>
      <point x="50" y="61.5" type="curve" smooth="yes"/>
      <point x="50" y="210" type="line"/>
      <point x="26.5" y="210" type="line" smooth="yes"/>
      <point x="20" y="210"/>
      <point x="17" y="214.5"/>
      <point x="17" y="224" type="curve" smooth="yes"/>
      <point x="17" y="229.5" type="line" smooth="yes"/>
      <point x="17" y="239.5"/>
      <point x="20" y="243.5"/>
      <point x="26.5" y="243.5" type="curve" smooth="yes"/>
      <point x="50" y="243.5" type="line"/>
      <point x="55.5" y="292.5" type="line" smooth="yes"/>
      <point x="56" y="299"/>
      <point x="60.5" y="303"/>
      <point x="70.5" y="303" type="curve" smooth="yes"/>
      <point x="75" y="303" type="line" smooth="yes"/>
      <point x="85" y="303"/>
      <point x="89" y="299"/>
      <point x="89" y="292.5" type="curve" smooth="yes"/>
      <point x="89" y="243.5" type="line"/>
      <point x="128" y="243.5" type="line" smooth="yes"/>
      <point x="134.5" y="243.5"/>
      <point x="137.5" y="239.5"/>
      <point x="137.5" y="229.5" type="curve" smooth="yes"/>
      <point x="137.5" y="224" type="line" smooth="yes"/>
      <point x="137.5" y="214.5"/>
      <point x="134.5" y="210"/>
      <point x="128" y="210" type="curve" smooth="yes"/>
      <point x="89" y="210" type="line"/>
      <point x="89" y="65" type="line" smooth="yes"/>
      <point x="89" y="37.5"/>
      <point x="100.5" y="31"/>
      <point x="114" y="31" type="curve" smooth="yes"/>
      <point x="127.5" y="31"/>
      <point x="130" y="33"/>
      <point x="134" y="33" type="curve" smooth="yes"/>
      <point x="140.5" y="33"/>
      <point x="144" y="15"/>
      <point x="144" y="11" type="curve" smooth="yes"/>
      <point x="144" y="-1.5"/>
      <point x="122.5" y="-3"/>
    </contour>
  </outline>
</glyph>
<glyph name="v" format="1">
  <advance width="226"/>
  <unicode hex="0076"/>
  <outline>
    <contour>
      <point x="105" y="-1" type="line" smooth="yes"/>
      <point x="95.5" y="-1"/>
      <point x="88" y="1"/>
      <point x="86" y="6.5" type="curve" smooth="yes"/>
      <point x="11" y="230.5" type="line" smooth="yes"/>
      <point x="10.5" y="232"/>
      <point x="10" y="235"/>
      <point x="10" y="236.5" type="curve" smooth="yes"/>
      <point x="10" y="241.5"/>
      <point x="16" y="244.5"/>
      <point x="30" y="244.5" type="curve" smooth="yes"/>
      <point x="32" y="244.5" type="line" smooth="yes"/>
      <point x="41.5" y="244.5"/>
      <point x="49" y="243"/>
      <point x="51" y="237" type="curve" smooth="yes"/>
      <point x="98.5" y="88.5" type="line" smooth="yes"/>
      <point x="104.5" y="70"/>
      <point x="110.5" y="46"/>
      <point x="114.5" y="30.5" type="curve"/>
      <point x="116.5" y="30.5" type="line"/>
      <point x="120" y="46"/>
      <point x="125" y="70"/>
      <point x="130.5" y="87.5" type="curve" smooth="yes"/>
      <point x="178.5" y="237" type="line" smooth="yes"/>
      <point x="180.5" y="243"/>
      <point x="188" y="244.5"/>
      <point x="197.5" y="244.5" type="curve" smooth="yes"/>
      <point x="199" y="244.5" type="line" smooth="yes"/>
      <point x="211" y="244.5"/>
      <point x="216" y="242"/>
      <point x="216" y="236.5" type="curve" smooth="yes"/>
      <point x="216" y="235"/>
      <point x="216" y="233"/>
      <point x="215" y="230" type="curve" smooth="yes"/>
      <point x="140" y="6.5" type="line" smooth="yes"/>
      <point x="138" y="1"/>
      <point x="130.5" y="-1"/>
      <point x="121" y="-1" type="curve" smooth="yes"/>
    </contour>
  </outline>
</glyph>
<glyph name="x" format="1">
  <advance width="226"/>
  <unicode hex="0078"/>
  <outline>
    <contour>
      <point x="29.5" y="-1" type="line" smooth="yes"/>
      <point x="15" y="-1"/>
      <point x="9.5" y="1.5"/>
      <point x="9.5" y="7" type="curve" smooth="yes"/>
      <point x="9.5" y="9.5"/>
      <point x="10.5" y="12"/>
      <point x="13" y="15.5" type="curve" smooth="yes"/>
      <point x="88.5" y="125" type="line"/>
      <point x="18.5" y="228.5" type="line" smooth="yes"/>
      <point x="16.5" y="231.5"/>
      <point x="15" y="234.5"/>
      <point x="15" y="236.5" type="curve" smooth="yes"/>
      <point x="15" y="242"/>
      <point x="20.5" y="244.5"/>
      <point x="36.5" y="244.5" type="curve" smooth="yes"/>
      <point x="40.5" y="244.5" type="line" smooth="yes"/>
      <point x="50.5" y="244.5"/>
      <point x="57" y="243.5"/>
      <point x="60.5" y="237.5" type="curve" smooth="yes"/>
      <point x="105" y="171" type="line" smooth="yes"/>
      <point x="110.5" y="162.5"/>
      <point x="113" y="158"/>
      <point x="114.5" y="154.5" type="curve"/>
      <point x="116.5" y="158"/>
      <point x="119" y="162.5"/>
      <point x="124.5" y="171" type="curve" smooth="yes"/>
      <point x="169" y="238" type="line" smooth="yes"/>
      <point x="172.5" y="243.5"/>
      <point x="181" y="244.5"/>
      <point x="190" y="244.5" type="curve" smooth="yes"/>
      <point x="192" y="244.5" type="line" smooth="yes"/>
      <point x="206" y="244.5"/>
      <point x="211.5" y="242.5"/>
      <point x="211.5" y="236.5" type="curve" smooth="yes"/>
      <point x="211.5" y="234.5"/>
      <point x="210" y="231.5"/>
      <point x="208" y="228.5" type="curve" smooth="yes"/>
      <point x="137.5" y="126" type="line"/>
      <point x="213" y="15.5" type="line" smooth="yes"/>
      <point x="215.5" y="12"/>
      <point x="216.5" y="9.5"/>
      <point x="216.5" y="7" type="curve" smooth="yes"/>
      <point x="216.5" y="2"/>
      <point x="211" y="-1"/>
      <point x="195.5" y="-1" type="curve" smooth="yes"/>
      <point x="191" y="-1" type="line" smooth="yes"/>
      <point x="181.5" y="-1"/>
      <point x="174.5" y="0.5"/>
      <point x="171" y="6" type="curve" smooth="yes"/>
      <point x="121.5" y="80" type="line" smooth="yes"/>
      <point x="116" y="88.5"/>
      <point x="113.5" y="93"/>
      <point x="112" y="96.5" type="curve"/>
      <point x="110" y="93"/>
      <point x="107.5" y="88.5"/>
      <point x="102" y="80" type="curve" smooth="yes"/>
      <point x="51.5" y="5.5" type="line" smooth="yes"/>
      <point x="48" y="0.5"/>
      <point x="40" y="-1"/>
      <point x="31" y="-1" type="curve" smooth="yes"/>
    </contour>
  </outline>
</glyph>
<glyph name="cent" format="1">
  <advance width="227"/>
  <unicode hex="00A2"/>
  <outline>
    <contour>
      <point x="134.5" y="-35" type="curve" smooth="yes"/>
      <point x="128" y="-35"/>
      <point x="125.5" y="-32.5"/>
      <point x="125.5" y="-27.5" type="curve" smooth="yes"/>
      <point x="125.5" y="-2.5" type="line"/>
      <point x="59" y="1.5"/>
      <point x="25.5" y="38"/>
      <point x="25.5" y="123" type="curve" smooth="yes"/>
      <point x="25.5" y="215.5"/>
      <point x="75" y="243.5"/>
      <point x="125.5" y="246" type="curve"/>
      <point x="125.5" y="264" type="line" smooth="yes"/>
      <point x="125.5" y="269.5"/>
      <point x="128" y="271.5"/>
      <point x="134.5" y="271.5" type="curve" smooth="yes"/>
      <point x="141" y="271.5"/>
      <point x="144" y="269.5"/>
      <point x="144" y="264" type="curve" smooth="yes"/>
      <point x="144" y="246" type="line"/>
      <point x="175" y="244.5"/>
      <point x="202" y="235"/>
      <point x="202" y="225" type="curve" smooth="yes"/>
      <point x="202" y="217.5"/>
      <point x="193.5" y="200"/>
      <point x="187.5" y="200" type="curve" smooth="yes"/>
      <point x="184.5" y="200"/>
      <point x="169.5" y="210"/>
      <point x="144" y="212.5" type="curve"/>
      <point x="144" y="31" type="line"/>
      <point x="173" y="32.5"/>
      <point x="190.5" y="44.5"/>
      <point x="194" y="44.5" type="curve" smooth="yes"/>
      <point x="200.5" y="44.5"/>
      <point x="209.5" y="27.5"/>
      <point x="209.5" y="21" type="curve" smooth="yes"/>
      <point x="209.5" y="10.5"/>
      <point x="181" y="-1.5"/>
      <point x="144" y="-3" type="curve"/>
      <point x="144" y="-27.5" type="line" smooth="yes"/>
      <point x="144" y="-32.5"/>
      <point x="141" y="-35"/>
    </contour>
    <contour>
      <point x="125.5" y="31" type="curve"/>
      <point x="125.5" y="212.5" type="line"/>
      <point x="90" y="209"/>
      <point x="67" y="184.5"/>
      <point x="67" y="124" type="curve" smooth="yes"/>
      <point x="67" y="64"/>
      <point x="83" y="36"/>
    </contour>
  </outline>
</glyph>
<glyph name="section" format="1">
  <advance width="200"/>
  <unicode hex="00A7"/>
  <outline>
    <contour>
      <point x="95.5" y="-3" type="curve" smooth="yes"/>
      <point x="64" y="-3"/>
      <point x="34.5" y="6.5"/>
      <point x="34.5" y="17" type="curve" smooth="yes"/>
      <point x="34.5" y="24"/>
      <point x="43.5" y="42"/>
      <point x="49.5" y="42" type="curve" smooth="yes"/>
      <point x="51.5" y="42"/>
      <point x="66" y="31"/>
      <point x="91.5" y="31" type="curve" smooth="yes"/>
      <point x="118" y="31"/>
      <point x="130" y="43.5"/>
      <point x="130" y="58.5" type="curve" smooth="yes"/>
      <point x="130" y="107"/>
      <point x="23.5" y="74.5"/>
      <point x="23.5" y="167.5" type="curve" smooth="yes"/>
      <point x="23.5" y="190.5"/>
      <point x="34" y="209"/>
      <point x="48" y="221" type="curve"/>
      <point x="37.5" y="230"/>
      <point x="30.5" y="243.5"/>
      <point x="30.5" y="263" type="curve" smooth="yes"/>
      <point x="30.5" y="310.5"/>
      <point x="68" y="329"/>
      <point x="105" y="329" type="curve" smooth="yes"/>
      <point x="136.5" y="329"/>
      <point x="166" y="319.5"/>
      <point x="166" y="309.5" type="curve" smooth="yes"/>
      <point x="166" y="302"/>
      <point x="157" y="284.5"/>
      <point x="151" y="284.5" type="curve" smooth="yes"/>
      <point x="148.5" y="284.5"/>
      <point x="133.5" y="295.5"/>
      <point x="108.5" y="295.5" type="curve" smooth="yes"/>
      <point x="82" y="295.5"/>
      <point x="70.5" y="283.5"/>
      <point x="70.5" y="267.5" type="curve" smooth="yes"/>
      <point x="70.5" y="219"/>
      <point x="176.5" y="252"/>
      <point x="176.5" y="160" type="curve" smooth="yes"/>
      <point x="176.5" y="135.5"/>
      <point x="166.5" y="118"/>
      <point x="151" y="106" type="curve"/>
      <point x="162" y="96.5"/>
      <point x="169.5" y="83.5"/>
      <point x="169.5" y="64.5" type="curve" smooth="yes"/>
      <point x="169.5" y="16"/>
      <point x="132" y="-3"/>
    </contour>
    <contour>
      <point x="111" y="124" type="curve"/>
      <point x="125" y="127"/>
      <point x="137" y="137"/>
      <point x="137" y="160" type="curve" smooth="yes"/>
      <point x="137" y="187.5"/>
      <point x="113.5" y="195.5"/>
      <point x="89" y="202.5" type="curve"/>
      <point x="76" y="199"/>
      <point x="63" y="189"/>
      <point x="63" y="167.5" type="curve" smooth="yes"/>
      <point x="63" y="139"/>
      <point x="85.5" y="131.5"/>
    </contour>
  </outline>
</glyph>
<glyph name="dieresis" format="1">
  <advance width="149"/>
  <unicode hex="00A8"/>
  <outline>
    <contour>
      <point x="40.5" y="283" type="curve" smooth="yes"/>
      <point x="27.5" y="283"/>
      <point x="22" y="286.5"/>
      <point x="22" y="293" type="curve" smooth="yes"/>
      <point x="22" y="317" type="line" smooth="yes"/>
      <point x="22" y="323"/>
      <point x="27.5" y="327"/>
      <point x="42.5" y="327" type="curve" smooth="yes"/>
      <point x="55.5" y="327"/>
      <point x="61" y="323.5"/>
      <point x="61" y="317" type="curve" smooth="yes"/>
      <point x="61" y="293" type="line" smooth="yes"/>
      <point x="61" y="287"/>
      <point x="55.5" y="283"/>
    </contour>
    <contour>
      <point x="107.5" y="283" type="curve" smooth="yes"/>
      <point x="94.5" y="283"/>
      <point x="89" y="286.5"/>
      <point x="89" y="293" type="curve" smooth="yes"/>
      <point x="89" y="317" type="line" smooth="yes"/>
      <point x="89" y="323"/>
      <point x="94.5" y="327"/>
      <point x="109.5" y="327" type="curve" smooth="yes"/>
      <point x="122.5" y="327"/>
      <point x="128" y="323.5"/>
      <point x="128" y="317" type="curve" smooth="yes"/>
      <point x="128" y="293" type="line" smooth="yes"/>
      <point x="128" y="287"/>
      <point x="122.5" y="283"/>
    </contour>
  </outline>
</glyph>
<glyph name="guillemotleft" format="1">
  <advance width="220"/>
  <unicode hex="00AB"/>
  <outline>
    <contour>
      <point x="97.5" y="28.5" type="curve" smooth="yes"/>
      <point x="93.5" y="28.5"/>
      <point x="90.5" y="31"/>
      <point x="87" y="34.5" type="curve" smooth="yes"/>
      <point x="26.5" y="107" type="line" smooth="yes"/>
      <point x="22.5" y="112.5"/>
      <point x="20.5" y="116"/>
      <point x="20.5" y="120" type="curve" smooth="yes"/>
      <point x="20.5" y="124.5"/>
      <point x="22.5" y="128"/>
      <point x="26.5" y="133.5" type="curve" smooth="yes"/>
      <point x="87" y="206" type="line" smooth="yes"/>
      <point x="90.5" y="209.5"/>
      <point x="93.5" y="211.5"/>
      <point x="97.5" y="211.5" type="curve" smooth="yes"/>
      <point x="103" y="211.5"/>
      <point x="113.5" y="204.5"/>
      <point x="113.5" y="196.5" type="curve" smooth="yes"/>
      <point x="113.5" y="194"/>
      <point x="112.5" y="190.5"/>
      <point x="110" y="187.5" type="curve" smooth="yes"/>
      <point x="58" y="120" type="line"/>
      <point x="110" y="52.5" type="line" smooth="yes"/>
      <point x="112.5" y="49.5"/>
      <point x="113.5" y="46.5"/>
      <point x="113.5" y="44" type="curve" smooth="yes"/>
      <point x="113.5" y="38"/>
      <point x="105" y="28.5"/>
    </contour>
    <contour>
      <point x="177.5" y="28.5" type="curve" smooth="yes"/>
      <point x="174" y="28.5"/>
      <point x="170.5" y="31"/>
      <point x="167.5" y="34.5" type="curve" smooth="yes"/>
      <point x="106.5" y="107" type="line" smooth="yes"/>
      <point x="102.5" y="112.5"/>
      <point x="100.5" y="116"/>
      <point x="100.5" y="120" type="curve" smooth="yes"/>
      <point x="100.5" y="124.5"/>
      <point x="102.5" y="128"/>
      <point x="106.5" y="133.5" type="curve" smooth="yes"/>
      <point x="167.5" y="206" type="line" smooth="yes"/>
      <point x="170.5" y="209.5"/>
      <point x="174" y="211.5"/>
      <point x="177.5" y="211.5" type="curve" smooth="yes"/>
      <point x="183" y="211.5"/>
      <point x="194" y="204.5"/>
      <point x="194" y="196.5" type="curve" smooth="yes"/>
      <point x="194" y="194"/>
      <point x="192.5" y="190.5"/>
      <point x="190" y="187.5" type="curve" smooth="yes"/>
      <point x="138.5" y="120" type="line"/>
      <point x="190" y="52.5" type="line" smooth="yes"/>
      <point x="192.5" y="49.5"/>
      <point x="194" y="46.5"/>
      <point x="194" y="44" type="curve" smooth="yes"/>
      <point x="194" y="38"/>
      <point x="185" y="28.5"/>
    </contour>
  </outline>
</glyph>
<glyph name="macron" format="1">
  <advance width="149"/>
  <unicode hex="00AF"/>
  <outline>
    <contour>
      <point x="22" y="285" type="line" smooth="yes"/>
      <point x="15.5" y="285"/>
      <point x="12.5" y="289.5"/>
      <point x="12.5" y="299" type="curve" smooth="yes"/>
      <point x="12.5" y="304" type="line" smooth="yes"/>
      <point x="12.5" y="313.5"/>
      <point x="15.5" y="318"/>
      <point x="22" y="318" type="curve" smooth="yes"/>
      <point x="126" y="318" type="line" smooth="yes"/>
      <point x="132.5" y="318"/>
      <point x="135" y="313.5"/>
      <point x="135" y="304" type="curve" smooth="yes"/>
      <point x="135" y="299" type="line" smooth="yes"/>
      <point x="135" y="289.5"/>
      <point x="132.5" y="285"/>
      <point x="126" y="285" type="curve" smooth="yes"/>
    </contour>
  </outline>
</glyph>
<glyph name="cedilla" format="1">
  <advance width="149"/>
  <unicode hex="00B8"/>
  <outline>
    <contour>
      <point x="88.5" y="-23" type="line" smooth="yes"/>
      <point x="99" y="-23"/>
      <point x="128" y="-26"/>
      <point x="128" y="-56.5" type="curve" smooth="yes"/>
      <point x="128" y="-92.5"/>
      <point x="98" y="-98"/>
      <point x="74.5" y="-98" type="curve" smooth="yes"/>
      <point x="53.5" y="-98"/>
      <point x="21" y="-90.5"/>
      <point x="21" y="-78" type="curve" smooth="yes"/>
      <point x="21" y="-72"/>
      <point x="23" y="-65.5"/>
      <point x="30" y="-65.5" type="curve" smooth="yes"/>
      <point x="37.5" y="-65.5"/>
      <point x="51" y="-75"/>
      <point x="68.5" y="-75" type="curve" smooth="yes"/>
      <point x="79.5" y="-75"/>
      <point x="95" y="-73"/>
      <point x="95" y="-58.5" type="curve" smooth="yes"/>
      <point x="95" y="-37.5"/>
      <point x="64.5" y="-44.5"/>
      <point x="64.5" y="-31.5" type="curve" smooth="yes"/>
      <point x="64.5" y="-28"/>
      <point x="65" y="-24.5"/>
      <point x="73" y="0" type="curve"/>
      <point x="93" y="0" type="line"/>
      <point x="86.5" y="-23" type="line"/>
    </contour>
  </outline>
</glyph>
<glyph name="ordmasculine" format="1">
  <advance width="157"/>
  <unicode hex="00BA"/>
  <outline>
    <contour>
      <point x="79" y="205.5" type="curve" smooth="yes"/>
      <point x="44.5" y="205.5"/>
      <point x="25.5" y="227"/>
      <point x="25.5" y="266.5" type="curve" smooth="yes"/>
      <point x="25.5" y="306.5"/>
      <point x="44.5" y="329"/>
      <point x="79" y="329" type="curve" smooth="yes"/>
      <point x="113" y="329"/>
      <point x="131.5" y="307"/>
      <point x="131.5" y="266.5" type="curve" smooth="yes"/>
      <point x="131.5" y="227"/>
      <point x="113" y="205.5"/>
    </contour>
    <contour>
      <point x="78.5" y="222.5" type="curve" smooth="yes"/>
      <point x="101" y="222.5"/>
      <point x="111.5" y="236.5"/>
      <point x="111.5" y="267" type="curve" smooth="yes"/>
      <point x="111.5" y="298"/>
      <point x="101" y="312"/>
      <point x="78.5" y="312" type="curve" smooth="yes"/>
      <point x="56" y="312"/>
      <point x="45.5" y="298"/>
      <point x="45.5" y="267" type="curve" smooth="yes"/>
      <point x="45.5" y="236.5"/>
      <point x="56" y="222.5"/>
    </contour>
  </outline>
</glyph>
<glyph name="Aacute" format="1">
  <advance width="286"/>
  <unicode hex="00C1"/>
  <outline>
    <contour>
      <point x="143" y="326" type="move" name="Anchor-1"/>
    </contour>
    <contour>
      <point x="145" y="0" type="move" name="Anchor-0"/>
    </contour>
    <contour>
      <point x="135" y="355" type="curve" smooth="yes"/>
      <point x="127.5" y="355"/>
      <point x="124.5" y="356.5"/>
      <point x="124.5" y="360" type="curve" smooth="yes"/>
      <point x="124.5" y="364.5"/>
      <point x="130" y="374"/>
      <point x="151.5" y="411.5" type="curve" smooth="yes"/>
      <point x="156.5" y="420.5"/>
      <point x="165.5" y="423.5"/>
      <point x="180.5" y="423.5" type="curve" smooth="yes"/>
      <point x="195.5" y="423.5"/>
      <point x="203" y="422"/>
      <point x="203" y="417.5" type="curve" smooth="yes"/>
      <point x="203" y="412.5"/>
      <point x="198" y="408"/>
      <point x="159" y="363.5" type="curve" smooth="yes"/>
      <point x="154" y="358"/>
      <point x="145" y="355"/>
    </contour>
    <contour>
      <point x="25.5" y="-1" type="line" smooth="yes"/>
      <point x="11.5" y="-1"/>
      <point x="5.5" y="2"/>
      <point x="5.5" y="7" type="curve" smooth="yes"/>
      <point x="5.5" y="9"/>
      <point x="6" y="10.5"/>
      <point x="7" y="13.5" type="curve" smooth="yes"/>
      <point x="117.5" y="319.5" type="line" smooth="yes"/>
      <point x="119.5" y="325.5"/>
      <point x="127" y="327"/>
      <point x="136" y="327" type="curve" smooth="yes"/>
      <point x="149.5" y="327" type="line" smooth="yes"/>
      <point x="159" y="327"/>
      <point x="166.5" y="325.5"/>
      <point x="168" y="319.5" type="curve" smooth="yes"/>
      <point x="278.5" y="13" type="line" smooth="yes"/>
      <point x="279.5" y="10.5"/>
      <point x="280" y="9"/>
      <point x="280" y="7" type="curve" smooth="yes"/>
      <point x="280" y="2.5"/>
      <point x="274" y="-1"/>
      <point x="260" y="-1" type="curve" smooth="yes"/>
      <point x="256.5" y="-1" type="line" smooth="yes"/>
      <point x="247" y="-1"/>
      <point x="239.5" y="1"/>
      <point x="237.5" y="6.5" type="curve" smooth="yes"/>
      <point x="210" y="83" type="line"/>
      <point x="73" y="83" type="line"/>
      <point x="46.5" y="6.5" type="line" smooth="yes"/>
      <point x="44.5" y="1"/>
      <point x="37.5" y="-1"/>
      <point x="28" y="-1" type="curve" smooth="yes"/>
    </contour>
    <contour>
      <point x="86" y="118.5" type="line"/>
      <point x="197.5" y="118.5" type="line"/>
      <point x="148.5" y="257" type="line" smooth="yes"/>
      <point x="146" y="265.5"/>
      <point x="144.5" y="275.5"/>
      <point x="143" y="284.5" type="curve"/>
      <point x="142" y="284.5" type="line"/>
      <point x="140.5" y="275.5"/>
      <point x="138.5" y="266"/>
      <point x="135" y="257" type="curve" smooth="yes"/>
    </contour>
  </outline>
</glyph>
<glyph name="Ccedilla" format="1">
  <advance width="289"/>
  <unicode hex="00C7"/>
  <outline>
    <contour>
      <point x="166" y="326" type="move" name="Anchor-1"/>
    </contour>
    <contour>
      <point x="168" y="0" type="move" name="Anchor-0"/>
    </contour>
    <contour>
      <point x="273" y="31" type="curve" smooth="yes"/>
      <point x="273" y="18"/>
      <point x="232" y="-2.5"/>
      <point x="178" y="-3" type="curve"/>
      <point x="172.5" y="-23" type="line"/>
      <point x="174.5" y="-23" type="line" smooth="yes"/>
      <point x="185" y="-23"/>
      <point x="214" y="-26"/>
      <point x="214" y="-56.5" type="curve" smooth="yes"/>
      <point x="214" y="-92.5"/>
      <point x="184" y="-98"/>
      <point x="160.5" y="-98" type="curve" smooth="yes"/>
      <point x="139.5" y="-98"/>
      <point x="107" y="-90.5"/>
      <point x="107" y="-78" type="curve" smooth="yes"/>
      <point x="107" y="-72"/>
      <point x="109" y="-65.5"/>
      <point x="116" y="-65.5" type="curve" smooth="yes"/>
      <point x="123.5" y="-65.5"/>
      <point x="137" y="-75"/>
      <point x="154.5" y="-75" type="curve" smooth="yes"/>
      <point x="165.5" y="-75"/>
      <point x="181" y="-73"/>
      <point x="181" y="-58.5" type="curve" smooth="yes"/>
      <point x="181" y="-37.5"/>
      <point x="150.5" y="-44.5"/>
      <point x="150.5" y="-31.5" type="curve" smooth="yes"/>
      <point x="150.5" y="-28"/>
      <point x="151" y="-24.5"/>
      <point x="158" y="-2.5" type="curve"/>
      <point x="69" y="3.5"/>
      <point x="26.5" y="56.5"/>
      <point x="26.5" y="163" type="curve" smooth="yes"/>
      <point x="26.5" y="274.5"/>
      <point x="78" y="329"/>
      <point x="177.5" y="329" type="curve" smooth="yes"/>
      <point x="223.5" y="329"/>
      <point x="266.5" y="312.5"/>
      <point x="266.5" y="300" type="curve" smooth="yes"/>
      <point x="266.5" y="292"/>
      <point x="257" y="273"/>
      <point x="250.5" y="273" type="curve" smooth="yes"/>
      <point x="245.5" y="273"/>
      <point x="223" y="293.5"/>
      <point x="178.5" y="293.5" type="curve" smooth="yes"/>
      <point x="104" y="293.5"/>
      <point x="69" y="254.5"/>
      <point x="69" y="162.5" type="curve" smooth="yes"/>
      <point x="69" y="73"/>
      <point x="103.5" y="32.5"/>
      <point x="176.5" y="32.5" type="curve" smooth="yes"/>
      <point x="224.5" y="32.5"/>
      <point x="250.5" y="56"/>
      <point x="257" y="56" type="curve" smooth="yes"/>
      <point x="263" y="56"/>
      <point x="273" y="36.5"/>
    </contour>
  </outline>
</glyph>
<glyph name="Icircumflex" format="1">
  <advance width="132"/>
  <unicode hex="00CE"/>
  <outline>
    <contour>
      <point x="142" y="373" type="move" name="Anchor-1"/>
    </contour>
    <contour>
      <point x="65" y="0" type="move" name="Anchor-0"/>
    </contour>
    <contour>
      <point x="20" y="351" type="line" smooth="yes"/>
      <point x="13" y="351"/>
      <point x="9.5" y="353"/>
      <point x="9.5" y="357.5" type="curve" smooth="yes"/>
      <point x="9.5" y="360"/>
      <point x="10" y="362.5"/>
      <point x="12" y="366" type="curve" smooth="yes"/>
      <point x="38" y="407" type="line" smooth="yes"/>
      <point x="43" y="414"/>
      <point x="50.5" y="417"/>
      <point x="59.5" y="417" type="curve" smooth="yes"/>
      <point x="71.5" y="417" type="line" smooth="yes"/>
      <point x="80.5" y="417"/>
      <point x="88" y="414"/>
      <point x="92.5" y="407" type="curve" smooth="yes"/>
      <point x="119.5" y="366" type="line" smooth="yes"/>
      <point x="121" y="363"/>
      <point x="122" y="360"/>
      <point x="122" y="358" type="curve" smooth="yes"/>
      <point x="122" y="353.5"/>
      <point x="118.5" y="351"/>
      <point x="111" y="351" type="curve" smooth="yes"/>
      <point x="110" y="351" type="line" smooth="yes"/>
      <point x="104" y="351"/>
      <point x="99" y="353"/>
      <point x="94.5" y="357" type="curve" smooth="yes"/>
      <point x="65" y="391.5" type="line"/>
      <point x="37" y="357" type="line" smooth="yes"/>
      <point x="32" y="353"/>
      <point x="27.5" y="351"/>
      <point x="21" y="351" type="curve" smooth="yes"/>
    </contour>
    <contour>
      <point x="64" y="-1" type="line" smooth="yes"/>
      <point x="51" y="-1"/>
      <point x="45" y="3"/>
      <point x="45" y="9.5" type="curve" smooth="yes"/>
      <point x="45" y="317" type="line" smooth="yes"/>
      <point x="45" y="323.5"/>
      <point x="51" y="327"/>
      <point x="64" y="327" type="curve" smooth="yes"/>
      <point x="67.5" y="327" type="line" smooth="yes"/>
      <point x="80.5" y="327"/>
      <point x="86" y="323.5"/>
      <point x="86" y="317" type="curve" smooth="yes"/>
      <point x="86" y="9.5" type="line" smooth="yes"/>
      <point x="86" y="3"/>
      <point x="80.5" y="-1"/>
      <point x="67.5" y="-1" type="curve" smooth="yes"/>
    </contour>
  </outline>
</glyph>
<glyph name="Ugrave" format="1">
  <advance width="332"/>
  <unicode hex="00D9"/>
  <outline>
    <contour>
      <point x="166" y="326" type="move" name="Anchor-1"/>
    </contour>
    <contour>
      <point x="167" y="0" type="move" name="Anchor-0"/>
    </contour>
    <contour>
      <point x="178.5" y="355" type="curve" smooth="yes"/>
      <point x="169" y="355"/>
      <point x="160" y="358"/>
      <point x="155" y="363.5" type="curve" smooth="yes"/>
      <point x="115.5" y="408"/>
      <point x="111" y="412.5"/>
      <point x="111" y="417.5" type="curve" smooth="yes"/>
      <point x="111" y="422"/>
      <point x="118.5" y="423.5"/>
      <point x="133.5" y="423.5" type="curve" smooth="yes"/>
      <point x="148.5" y="423.5"/>
      <point x="157" y="420.5"/>
      <point x="162" y="411.5" type="curve" smooth="yes"/>
      <point x="183.5" y="374"/>
      <point x="189.5" y="364.5"/>
      <point x="189.5" y="360" type="curve" smooth="yes"/>
      <point x="189.5" y="356.5"/>
      <point x="186" y="355"/>
    </contour>
    <contour>
      <point x="166" y="-3" type="curve" smooth="yes"/>
      <point x="83.5" y="-3"/>
      <point x="38.5" y="37.5"/>
      <point x="38.5" y="104.5" type="curve" smooth="yes"/>
      <point x="38.5" y="317" type="line" smooth="yes"/>
      <point x="38.5" y="323.5"/>
      <point x="44.5" y="327"/>
      <point x="57.5" y="327" type="curve" smooth="yes"/>
      <point x="61" y="327" type="line" smooth="yes"/>
      <point x="74" y="327"/>
      <point x="79.5" y="323.5"/>
      <point x="79.5" y="317" type="curve" smooth="yes"/>
      <point x="79.5" y="103" type="line" smooth="yes"/>
      <point x="79.5" y="61.5"/>
      <point x="116.5" y="32.5"/>
      <point x="166" y="32.5" type="curve" smooth="yes"/>
      <point x="216" y="32.5"/>
      <point x="252" y="62"/>
      <point x="252" y="103" type="curve" smooth="yes"/>
      <point x="252" y="317" type="line" smooth="yes"/>
      <point x="252" y="323.5"/>
      <point x="257.5" y="327"/>
      <point x="270.5" y="327" type="curve" smooth="yes"/>
      <point x="274.5" y="327" type="line" smooth="yes"/>
      <point x="287.5" y="327"/>
      <point x="293" y="323.5"/>
      <point x="293" y="317" type="curve" smooth="yes"/>
      <point x="293" y="104.5" type="line" smooth="yes"/>
      <point x="293" y="37.5"/>
      <point x="248" y="-3"/>
    </contour>
  </outline>
</glyph>
<glyph name="Udieresis" format="1">
  <advance width="332"/>
  <unicode hex="00DC"/>
  <outline>
    <contour>
      <point x="166" y="326" type="move" name="Anchor-1"/>
    </contour>
    <contour>
      <point x="167" y="0" type="move" name="Anchor-0"/>
    </contour>
    <contour>
      <point x="131.5" y="365.5" type="curve" smooth="yes"/>
      <point x="118.5" y="365.5"/>
      <point x="113" y="369"/>
      <point x="113" y="375.5" type="curve" smooth="yes"/>
      <point x="113" y="399.5" type="line" smooth="yes"/>
      <point x="113" y="405.5"/>
      <point x="118.5" y="409.5"/>
      <point x="133.5" y="409.5" type="curve" smooth="yes"/>
      <point x="146.5" y="409.5"/>
      <point x="152" y="406"/>
      <point x="152" y="399.5" type="curve" smooth="yes"/>
      <point x="152" y="375.5" type="line" smooth="yes"/>
      <point x="152" y="369.5"/>
      <point x="146.5" y="365.5"/>
    </contour>
    <contour>
      <point x="198.5" y="365.5" type="curve" smooth="yes"/>
      <point x="185.5" y="365.5"/>
      <point x="180" y="369"/>
      <point x="180" y="375.5" type="curve" smooth="yes"/>
      <point x="180" y="399.5" type="line" smooth="yes"/>
      <point x="180" y="405.5"/>
      <point x="185.5" y="409.5"/>
      <point x="200.5" y="409.5" type="curve" smooth="yes"/>
      <point x="213.5" y="409.5"/>
      <point x="219" y="406"/>
      <point x="219" y="399.5" type="curve" smooth="yes"/>
      <point x="219" y="375.5" type="line" smooth="yes"/>
      <point x="219" y="369.5"/>
      <point x="213.5" y="365.5"/>
    </contour>
    <contour>
      <point x="166" y="-3" type="curve" smooth="yes"/>
      <point x="83.5" y="-3"/>
      <point x="38.5" y="37.5"/>
      <point x="38.5" y="104.5" type="curve" smooth="yes"/>
      <point x="38.5" y="317" type="line" smooth="yes"/>
      <point x="38.5" y="323.5"/>
      <point x="44.5" y="327"/>
      <point x="57.5" y="327" type="curve" smooth="yes"/>
      <point x="61" y="327" type="line" smooth="yes"/>
      <point x="74" y="327"/>
      <point x="79.5" y="323.5"/>
      <point x="79.5" y="317" type="curve" smooth="yes"/>
      <point x="79.5" y="103" type="line" smooth="yes"/>
      <point x="79.5" y="61.5"/>
      <point x="116.5" y="32.5"/>
      <point x="166" y="32.5" type="curve" smooth="yes"/>
      <point x="216" y="32.5"/>
      <point x="252" y="62"/>
      <point x="252" y="103" type="curve" smooth="yes"/>
      <point x="252" y="317" type="line" smooth="yes"/>
      <point x="252" y="323.5"/>
      <point x="257.5" y="327"/>
      <point x="270.5" y="327" type="curve" smooth="yes"/>
      <point x="274.5" y="327" type="line" smooth="yes"/>
      <point x="287.5" y="327"/>
      <point x="293" y="323.5"/>
      <point x="293" y="317" type="curve" smooth="yes"/>
      <point x="293" y="104.5" type="line" smooth="yes"/>
      <point x="293" y="37.5"/>
      <point x="248" y="-3"/>
    </contour>
  </outline>
</glyph>
<glyph name="iacute" format="1">
  <advance width="124"/>
  <unicode hex="00ED"/>
  <outline>
    <contour>
      <point x="62" y="244" type="move" name="Anchor-1"/>
    </contour>
    <contour>
      <point x="61" y="0" type="move" name="Anchor-0"/>
    </contour>
    <contour>
      <point x="54" y="272.5" type="curve" smooth="yes"/>
      <point x="46.5" y="272.5"/>
      <point x="43.5" y="274"/>
      <point x="43.5" y="277.5" type="curve" smooth="yes"/>
      <point x="43.5" y="282"/>
      <point x="49" y="291.5"/>
      <point x="70.5" y="329" type="curve" smooth="yes"/>
      <point x="75.5" y="338"/>
      <point x="84.5" y="341"/>
      <point x="99.5" y="341" type="curve" smooth="yes"/>
      <point x="114.5" y="341"/>
      <point x="122" y="339.5"/>
      <point x="122" y="335" type="curve" smooth="yes"/>
      <point x="122" y="330"/>
      <point x="117" y="325.5"/>
      <point x="78" y="281" type="curve" smooth="yes"/>
      <point x="73" y="275.5"/>
      <point x="64" y="272.5"/>
    </contour>
    <contour>
      <point x="61" y="-1" type="line" smooth="yes"/>
      <point x="48" y="-1"/>
      <point x="42.5" y="3"/>
      <point x="42.5" y="9.5" type="curve" smooth="yes"/>
      <point x="42.5" y="234.5" type="line" smooth="yes"/>
      <point x="42.5" y="241"/>
      <point x="48" y="244.5"/>
      <point x="61" y="244.5" type="curve" smooth="yes"/>
      <point x="63" y="244.5" type="line" smooth="yes"/>
      <point x="76" y="244.5"/>
      <point x="81.5" y="241"/>
      <point x="81.5" y="234.5" type="curve" smooth="yes"/>
      <point x="81.5" y="9.5" type="line" smooth="yes"/>
      <point x="81.5" y="3"/>
      <point x="76" y="-1"/>
      <point x="63" y="-1" type="curve" smooth="yes"/>
    </contour>
  </outline>
</glyph>
<glyph name="icircumflex" format="1">
  <advance width="124"/>
  <unicode hex="00EE"/>
  <outline>
    <contour>
      <point x="138" y="290" type="move" name="Anchor-1"/>
    </contour>
    <contour>
      <point x="61" y="0" type="move" name="Anchor-0"/>
    </contour>
    <contour>
      <point x="16.5" y="268.5" type="line" smooth="yes"/>
      <point x="9.5" y="268.5"/>
      <point x="6" y="270.5"/>
      <point x="6" y="275" type="curve" smooth="yes"/>
      <point x="6" y="277.5"/>
      <point x="6.5" y="280"/>
      <point x="8.5" y="283.5" type="curve" smooth="yes"/>
      <point x="34.5" y="324.5" type="line" smooth="yes"/>
      <point x="39.5" y="331.5"/>
      <point x="47" y="334.5"/>
      <point x="56" y="334.5" type="curve" smooth="yes"/>
      <point x="68" y="334.5" type="line" smooth="yes"/>
      <point x="77" y="334.5"/>
      <point x="84.5" y="331.5"/>
      <point x="89" y="324.5" type="curve" smooth="yes"/>
      <point x="116" y="283.5" type="line" smooth="yes"/>
      <point x="117.5" y="280.5"/>
      <point x="118.5" y="277.5"/>
      <point x="118.5" y="275.5" type="curve" smooth="yes"/>
      <point x="118.5" y="271"/>
      <point x="115" y="268.5"/>
      <point x="107.5" y="268.5" type="curve" smooth="yes"/>
      <point x="106.5" y="268.5" type="line" smooth="yes"/>
      <point x="100.5" y="268.5"/>
      <point x="95.5" y="270.5"/>
      <point x="91" y="274.5" type="curve" smooth="yes"/>
      <point x="61.5" y="309" type="line"/>
      <point x="33.5" y="274.5" type="line" smooth="yes"/>
      <point x="28.5" y="270.5"/>
      <point x="24" y="268.5"/>
      <point x="17.5" y="268.5" type="curve" smooth="yes"/>
    </contour>
    <contour>
      <point x="61" y="-1" type="line" smooth="yes"/>
      <point x="48" y="-1"/>
      <point x="42.5" y="3"/>
      <point x="42.5" y="9.5" type="curve" smooth="yes"/>
      <point x="42.5" y="234.5" type="line" smooth="yes"/>
      <point x="42.5" y="241"/>
      <point x="48" y="244.5"/>
      <point x="61" y="244.5" type="curve" smooth="yes"/>
      <point x="63" y="244.5" type="line" smooth="yes"/>
      <point x="76" y="244.5"/>
      <point x="81.5" y="241"/>
      <point x="81.5" y="234.5" type="curve" smooth="yes"/>
      <point x="81.5" y="9.5" type="line" smooth="yes"/>
      <point x="81.5" y="3"/>
      <point x="76" y="-1"/>
      <point x="63" y="-1" type="curve" smooth="yes"/>
    </contour>
  </outline>
</glyph>
<glyph name="eth" format="1">
  <advance width="265"/>
  <unicode hex="00F0"/>
  <outline>
    <contour>
      <point x="133.5" y="-3" type="curve" smooth="yes"/>
      <point x="63.5" y="-3"/>
      <point x="25.5" y="40.5"/>
      <point x="25.5" y="120.5" type="curve" smooth="yes"/>
      <point x="25.5" y="201.5"/>
      <point x="64.5" y="246.5"/>
      <point x="133.5" y="246.5" type="curve" smooth="yes"/>
      <point x="147.5" y="246.5"/>
      <point x="160" y="244.5"/>
      <point x="171" y="241" type="curve"/>
      <point x="164" y="256.5"/>
      <point x="156.5" y="270.5"/>
      <point x="149.5" y="283" type="curve"/>
      <point x="111.5" y="277.5"/>
      <point x="110.5" y="277.5"/>
      <point x="109.5" y="277.5" type="curve" smooth="yes"/>
      <point x="103" y="277.5"/>
      <point x="97.5" y="285.5"/>
      <point x="97.5" y="292" type="curve" smooth="yes"/>
      <point x="97.5" y="295.5"/>
      <point x="99.5" y="297.5"/>
      <point x="104.5" y="298" type="curve" smooth="yes"/>
      <point x="138" y="303" type="line"/>
      <point x="131" y="313"/>
      <point x="126" y="320.5"/>
      <point x="126" y="325.5" type="curve" smooth="yes"/>
      <point x="126" y="328.5"/>
      <point x="128" y="331"/>
      <point x="133.5" y="332" type="curve" smooth="yes"/>
      <point x="136.5" y="332.5"/>
      <point x="140.5" y="332.5"/>
      <point x="146" y="332.5" type="curve" smooth="yes"/>
      <point x="151.5" y="332.5"/>
      <point x="155" y="330.5"/>
      <point x="158" y="327" type="curve" smooth="yes"/>
      <point x="162.5" y="321.5"/>
      <point x="167.5" y="316"/>
      <point x="173.5" y="307.5" type="curve"/>
      <point x="209.5" y="312.5" type="line" smooth="yes"/>
      <point x="218.5" y="312.5"/>
      <point x="221.5" y="300"/>
      <point x="221.5" y="298" type="curve" smooth="yes"/>
      <point x="221.5" y="294.5"/>
      <point x="219" y="292"/>
      <point x="214.5" y="291.5" type="curve" smooth="yes"/>
      <point x="186.5" y="288" type="line"/>
      <point x="217.5" y="239"/>
      <point x="239.5" y="181.5"/>
      <point x="239.5" y="120.5" type="curve" smooth="yes"/>
      <point x="239.5" y="40"/>
      <point x="203" y="-3"/>
    </contour>
    <contour>
      <point x="132.5" y="31" type="curve" smooth="yes"/>
      <point x="178" y="31"/>
      <point x="199" y="59.5"/>
      <point x="199" y="121.5" type="curve" smooth="yes"/>
      <point x="199" y="183.5"/>
      <point x="178" y="213"/>
      <point x="132.5" y="213" type="curve" smooth="yes"/>
      <point x="87" y="213"/>
      <point x="65.5" y="184"/>
      <point x="65.5" y="121.5" type="curve" smooth="yes"/>
      <point x="65.5" y="59.5"/>
      <point x="86.5" y="31"/>
    </contour>
  </outline>
</glyph>
<glyph name="oacute" format="1">
  <advance width="265"/>
  <unicode hex="00F3"/>
  <outline>
    <contour>
      <point x="133" y="244" type="move" name="Anchor-1"/>
    </contour>
    <contour>
      <point x="136" y="0" type="move" name="Anchor-0"/>
    </contour>
    <contour>
      <point x="125" y="272.5" type="curve" smooth="yes"/>
      <point x="117.5" y="272.5"/>
      <point x="114.5" y="274"/>
      <point x="114.5" y="277.5" type="curve" smooth="yes"/>
      <point x="114.5" y="282"/>
      <point x="120" y="291.5"/>
      <point x="141.5" y="329" type="curve" smooth="yes"/>
      <point x="146.5" y="338"/>
      <point x="155.5" y="341"/>
      <point x="170.5" y="341" type="curve" smooth="yes"/>
      <point x="185.5" y="341"/>
      <point x="193" y="339.5"/>
      <point x="193" y="335" type="curve" smooth="yes"/>
      <point x="193" y="330"/>
      <point x="188" y="325.5"/>
      <point x="149" y="281" type="curve" smooth="yes"/>
      <point x="144" y="275.5"/>
      <point x="135" y="272.5"/>
    </contour>
    <contour>
      <point x="133.5" y="-3" type="curve" smooth="yes"/>
      <point x="63.5" y="-3"/>
      <point x="25.5" y="40.5"/>
      <point x="25.5" y="120.5" type="curve" smooth="yes"/>
      <point x="25.5" y="201.5"/>
      <point x="64.5" y="246.5"/>
      <point x="133.5" y="246.5" type="curve" smooth="yes"/>
      <point x="202" y="246.5"/>
      <point x="239.5" y="202"/>
      <point x="239.5" y="120.5" type="curve" smooth="yes"/>
      <point x="239.5" y="40"/>
      <point x="203" y="-3"/>
    </contour>
    <contour>
      <point x="132.5" y="31" type="curve" smooth="yes"/>
      <point x="178" y="31"/>
      <point x="199" y="59.5"/>
      <point x="199" y="121.5" type="curve" smooth="yes"/>
      <point x="199" y="183.5"/>
      <point x="178" y="213"/>
      <point x="132.5" y="213" type="curve" smooth="yes"/>
      <point x="87" y="213"/>
      <point x="66.5" y="184"/>
      <point x="66.5" y="121.5" type="curve" smooth="yes"/>
      <point x="66.5" y="59.5"/>
      <point x="86.5" y="31"/>
    </contour>
  </outline>
</glyph>
<glyph name="odieresis" format="1">
  <advance width="265"/>
  <unicode hex="00F6"/>
  <outline>
    <contour>
      <point x="133" y="244" type="move" name="Anchor-1"/>
    </contour>
    <contour>
      <point x="136" y="0" type="move" name="Anchor-0"/>
    </contour>
    <contour>
      <point x="98.5" y="283" type="curve" smooth="yes"/>
      <point x="85.5" y="283"/>
      <point x="80" y="286.5"/>
      <point x="80" y="293" type="curve" smooth="yes"/>
      <point x="80" y="317" type="line" smooth="yes"/>
      <point x="80" y="323"/>
      <point x="85.5" y="327"/>
      <point x="100.5" y="327" type="curve" smooth="yes"/>
      <point x="113.5" y="327"/>
      <point x="119" y="323.5"/>
      <point x="119" y="317" type="curve" smooth="yes"/>
      <point x="119" y="293" type="line" smooth="yes"/>
      <point x="119" y="287"/>
      <point x="113.5" y="283"/>
    </contour>
    <contour>
      <point x="165.5" y="283" type="curve" smooth="yes"/>
      <point x="152.5" y="283"/>
      <point x="147" y="286.5"/>
      <point x="147" y="293" type="curve" smooth="yes"/>
      <point x="147" y="317" type="line" smooth="yes"/>
      <point x="147" y="323"/>
      <point x="152.5" y="327"/>
      <point x="167.5" y="327" type="curve" smooth="yes"/>
      <point x="180.5" y="327"/>
      <point x="186" y="323.5"/>
      <point x="186" y="317" type="curve" smooth="yes"/>
      <point x="186" y="293" type="line" smooth="yes"/>
      <point x="186" y="287"/>
      <point x="180.5" y="283"/>
    </contour>
    <contour>
      <point x="133.5" y="-3" type="curve" smooth="yes"/>
      <point x="63.5" y="-3"/>
      <point x="25.5" y="40.5"/>
      <point x="25.5" y="120.5" type="curve" smooth="yes"/>
      <point x="25.5" y="201.5"/>
      <point x="64.5" y="246.5"/>
      <point x="133.5" y="246.5" type="curve" smooth="yes"/>
      <point x="202" y="246.5"/>
      <point x="239.5" y="202"/>
      <point x="239.5" y="120.5" type="curve" smooth="yes"/>
      <point x="239.5" y="40"/>
      <point x="203" y="-3"/>
    </contour>
    <contour>
      <point x="132.5" y="31" type="curve" smooth="yes"/>
      <point x="178" y="31"/>
      <point x="199" y="59.5"/>
      <point x="199" y="121.5" type="curve" smooth="yes"/>
      <point x="199" y="183.5"/>
      <point x="178" y="213"/>
      <point x="132.5" y="213" type="curve" smooth="yes"/>
      <point x="87" y="213"/>
      <point x="66.5" y="184"/>
      <point x="66.5" y="121.5" type="curve" smooth="yes"/>
      <point x="66.5" y="59.5"/>
      <point x="86.5" y="31"/>
    </contour>
  </outline>
</glyph>
<glyph name="Cdotaccent" format="1">
  <advance width="289"/>
  <unicode hex="010A"/>
  <outline>
    <contour>
      <point x="166" y="326" type="move" name="Anchor-1"/>
    </contour>
    <contour>
      <point x="168" y="0" type="move" name="Anchor-0"/>
    </contour>
    <contour>
      <point x="164.5" y="365.5" type="curve" smooth="yes"/>
      <point x="151.5" y="365.5"/>
      <point x="146" y="369"/>
      <point x="146" y="375.5" type="curve" smooth="yes"/>
      <point x="146" y="399.5" type="line" smooth="yes"/>
      <point x="146" y="405.5"/>
      <point x="151.5" y="409.5"/>
      <point x="166.5" y="409.5" type="curve" smooth="yes"/>
      <point x="179.5" y="409.5"/>
      <point x="185" y="406"/>
      <point x="185" y="399.5" type="curve" smooth="yes"/>
      <point x="185" y="375.5" type="line" smooth="yes"/>
      <point x="185" y="369.5"/>
      <point x="179.5" y="365.5"/>
    </contour>
    <contour>
      <point x="176.5" y="-3" type="curve" smooth="yes"/>
      <point x="74.5" y="-3"/>
      <point x="26.5" y="49.5"/>
      <point x="26.5" y="163" type="curve" smooth="yes"/>
      <point x="26.5" y="274.5"/>
      <point x="78" y="329"/>
      <point x="177.5" y="329" type="curve" smooth="yes"/>
      <point x="223.5" y="329"/>
      <point x="266.5" y="312.5"/>
      <point x="266.5" y="300" type="curve" smooth="yes"/>
      <point x="266.5" y="292"/>
      <point x="257" y="273"/>
      <point x="250.5" y="273" type="curve" smooth="yes"/>
      <point x="245.5" y="273"/>
      <point x="223" y="293.5"/>
      <point x="178.5" y="293.5" type="curve" smooth="yes"/>
      <point x="104" y="293.5"/>
      <point x="69" y="254.5"/>
      <point x="69" y="162.5" type="curve" smooth="yes"/>
      <point x="69" y="73"/>
      <point x="103.5" y="32.5"/>
      <point x="176.5" y="32.5" type="curve" smooth="yes"/>
      <point x="224.5" y="32.5"/>
      <point x="250.5" y="56"/>
      <point x="257" y="56" type="curve" smooth="yes"/>
      <point x="263" y="56"/>
      <point x="273" y="36.5"/>
      <point x="273" y="31" type="curve" smooth="yes"/>
      <point x="273" y="18"/>
      <point x="231" y="-3"/>
    </contour>
  </outline>
</glyph>
<glyph name="cdotaccent" format="1">
  <advance width="226"/>
  <unicode hex="010B"/>
  <outline>
    <contour>
      <point x="129" y="244" type="move" name="Anchor-1"/>
    </contour>
    <contour>
      <point x="134" y="0" type="move" name="Anchor-0"/>
    </contour>
    <contour>
      <point x="128" y="283" type="curve" smooth="yes"/>
      <point x="115" y="283"/>
      <point x="109.5" y="286.5"/>
      <point x="109.5" y="293" type="curve" smooth="yes"/>
      <point x="109.5" y="317" type="line" smooth="yes"/>
      <point x="109.5" y="323"/>
      <point x="115" y="327"/>
      <point x="130" y="327" type="curve" smooth="yes"/>
      <point x="143" y="327"/>
      <point x="148.5" y="323.5"/>
      <point x="148.5" y="317" type="curve" smooth="yes"/>
      <point x="148.5" y="293" type="line" smooth="yes"/>
      <point x="148.5" y="287"/>
      <point x="143" y="283"/>
    </contour>
    <contour>
      <point x="139" y="-3" type="curve" smooth="yes"/>
      <point x="63.5" y="-3"/>
      <point x="24" y="33"/>
      <point x="24" y="123" type="curve" smooth="yes"/>
      <point x="24" y="220.5"/>
      <point x="81" y="246.5"/>
      <point x="134.5" y="246.5" type="curve" smooth="yes"/>
      <point x="170.5" y="246.5"/>
      <point x="204.5" y="236.5"/>
      <point x="204.5" y="225" type="curve" smooth="yes"/>
      <point x="204.5" y="217.5"/>
      <point x="195.5" y="200"/>
      <point x="189.5" y="200" type="curve" smooth="yes"/>
      <point x="188.5" y="200"/>
      <point x="187.5" y="201"/>
      <point x="184.5" y="202" type="curve" smooth="yes"/>
      <point x="176" y="205.5"/>
      <point x="159" y="213"/>
      <point x="133.5" y="213" type="curve" smooth="yes"/>
      <point x="92.5" y="213"/>
      <point x="66" y="188.5"/>
      <point x="66" y="124" type="curve" smooth="yes"/>
      <point x="66" y="58.5"/>
      <point x="85.5" y="31"/>
      <point x="138.5" y="31" type="curve" smooth="yes"/>
      <point x="164.5" y="31"/>
      <point x="182.5" y="38.5"/>
      <point x="191" y="43" type="curve" smooth="yes"/>
      <point x="196" y="44.5" type="line" smooth="yes"/>
      <point x="202.5" y="44.5"/>
      <point x="212" y="27.5"/>
      <point x="212" y="21" type="curve" smooth="yes"/>
      <point x="212" y="10.5"/>
      <point x="179.5" y="-3"/>
    </contour>
  </outline>
</glyph>
<glyph name="Dcaron" format="1">
  <advance width="324"/>
  <unicode hex="010E"/>
  <outline>
    <contour>
      <point x="146" y="326" type="move" name="Anchor-1"/>
    </contour>
    <contour>
      <point x="153" y="0" type="move" name="Anchor-0"/>
    </contour>
    <contour>
      <point x="139.5" y="353.5" type="line" smooth="yes"/>
      <point x="130.5" y="353.5"/>
      <point x="123" y="357"/>
      <point x="118" y="364" type="curve" smooth="yes"/>
      <point x="92" y="405" type="line" smooth="yes"/>
      <point x="90" y="408"/>
      <point x="89.5" y="411"/>
      <point x="89.5" y="413.5" type="curve" smooth="yes"/>
      <point x="89.5" y="417.5"/>
      <point x="93" y="420"/>
      <point x="100" y="420" type="curve" smooth="yes"/>
      <point x="101" y="420" type="line" smooth="yes"/>
      <point x="107.5" y="420"/>
      <point x="112" y="418"/>
      <point x="117" y="414" type="curve" smooth="yes"/>
      <point x="145" y="379.5" type="line"/>
      <point x="174.5" y="414" type="line" smooth="yes"/>
      <point x="179" y="418"/>
      <point x="184" y="420"/>
      <point x="190" y="420" type="curve" smooth="yes"/>
      <point x="191" y="420" type="line" smooth="yes"/>
      <point x="198.5" y="420"/>
      <point x="202" y="417"/>
      <point x="202" y="413" type="curve" smooth="yes"/>
      <point x="202" y="410.5"/>
      <point x="201" y="408"/>
      <point x="199.5" y="405" type="curve" smooth="yes"/>
      <point x="172.5" y="364" type="line" smooth="yes"/>
      <point x="168" y="357"/>
      <point x="160.5" y="353.5"/>
      <point x="151.5" y="353.5" type="curve" smooth="yes"/>
    </contour>
    <contour>
      <point x="59" y="0" type="line" smooth="yes"/>
      <point x="49.5" y="0"/>
      <point x="45" y="4"/>
      <point x="45" y="14" type="curve" smooth="yes"/>
      <point x="45" y="312" type="line" smooth="yes"/>
      <point x="45" y="322"/>
      <point x="49.5" y="326"/>
      <point x="59" y="326" type="curve" smooth="yes"/>
      <point x="153.5" y="326" type="line" smooth="yes"/>
      <point x="233.5" y="326"/>
      <point x="297.5" y="284"/>
      <point x="297.5" y="163" type="curve" smooth="yes"/>
      <point x="297.5" y="42"/>
      <point x="233.5" y="0"/>
      <point x="153.5" y="0" type="curve" smooth="yes"/>
    </contour>
    <contour>
      <point x="86" y="35.5" type="line"/>
      <point x="150" y="35.5" type="line" smooth="yes"/>
      <point x="208.5" y="35.5"/>
      <point x="255" y="70"/>
      <point x="255" y="163" type="curve" smooth="yes"/>
      <point x="255" y="256"/>
      <point x="208.5" y="291"/>
      <point x="150" y="291" type="curve" smooth="yes"/>
      <point x="86" y="291" type="line"/>
    </contour>
  </outline>
</glyph>
<glyph name="dcaron" format="1">
  <advance width="264"/>
  <unicode hex="010F"/>
  <outline>
    <contour>
      <point x="0" y="0" type="move" name="Anchor-1"/>
    </contour>
    <contour>
      <point x="131" y="0" type="move" name="Anchor-0"/>
    </contour>
    <contour>
      <point x="114.5" y="-3" type="curve" smooth="yes"/>
      <point x="58.5" y="-3"/>
      <point x="24" y="49.5"/>
      <point x="24" y="121.5" type="curve" smooth="yes"/>
      <point x="24" y="202.5"/>
      <point x="63.5" y="246.5"/>
      <point x="119" y="246.5" type="curve" smooth="yes"/>
      <point x="147.5" y="246.5"/>
      <point x="167.5" y="236.5"/>
      <point x="185.5" y="222.5" type="curve"/>
      <point x="185.5" y="340" type="line" smooth="yes"/>
      <point x="185.5" y="346.5"/>
      <point x="191" y="350.5"/>
      <point x="204" y="350.5" type="curve" smooth="yes"/>
      <point x="206" y="350.5" type="line" smooth="yes"/>
      <point x="219" y="350.5"/>
      <point x="224.5" y="346.5"/>
      <point x="224.5" y="340" type="curve" smooth="yes"/>
      <point x="224.5" y="69" type="line" smooth="yes"/>
      <point x="224.5" y="31"/>
      <point x="230" y="12.5"/>
      <point x="230" y="10.5" type="curve" smooth="yes"/>
      <point x="230" y="1.5"/>
      <point x="211" y="-0.5"/>
      <point x="205" y="-0.5" type="curve" smooth="yes"/>
      <point x="194" y="-0.5"/>
      <point x="191.5" y="19"/>
      <point x="188.5" y="32" type="curve"/>
      <point x="166" y="8.5"/>
      <point x="141" y="-3"/>
    </contour>
    <contour>
      <point x="260.5" y="245" type="curve" smooth="yes"/>
      <point x="255.5" y="245"/>
      <point x="247" y="246.5"/>
      <point x="247" y="252" type="curve" smooth="yes"/>
      <point x="247" y="262"/>
      <point x="253" y="278"/>
      <point x="253" y="311.5" type="curve" smooth="yes"/>
      <point x="253" y="320"/>
      <point x="259" y="326"/>
      <point x="271.5" y="326" type="curve" smooth="yes"/>
      <point x="276" y="326" type="line" smooth="yes"/>
      <point x="287.5" y="326"/>
      <point x="294.5" y="321"/>
      <point x="294.5" y="313" type="curve" smooth="yes"/>
      <point x="294.5" y="271"/>
      <point x="271.5" y="245"/>
    </contour>
    <contour>
      <point x="122.5" y="31" type="curve" smooth="yes"/>
      <point x="143" y="31"/>
      <point x="166.5" y="42.5"/>
      <point x="185.5" y="63.5" type="curve"/>
      <point x="185.5" y="191" type="line"/>
      <point x="168.5" y="205"/>
      <point x="149" y="212"/>
      <point x="128" y="212" type="curve" smooth="yes"/>
      <point x="86" y="211"/>
      <point x="65" y="181"/>
      <point x="65" y="125.5" type="curve" smooth="yes"/>
      <point x="65" y="65"/>
      <point x="85.5" y="31"/>
    </contour>
  </outline>
</glyph>
<glyph name="Ebreve" format="1">
  <advance width="255"/>
  <unicode hex="0114"/>
  <outline>
    <contour>
      <point x="138" y="395" type="move" name="Anchor-1"/>
    </contour>
    <contour>
      <point x="140" y="0" type="move" name="Anchor-0"/>
    </contour>
    <contour>
      <point x="138" y="355" type="curve" smooth="yes"/>
      <point x="104.5" y="355"/>
      <point x="70.5" y="373"/>
      <point x="70.5" y="408.5" type="curve" smooth="yes"/>
      <point x="70.5" y="413.5"/>
      <point x="72.5" y="415.5"/>
      <point x="77.5" y="415.5" type="curve" smooth="yes"/>
      <point x="85.5" y="415.5"/>
      <point x="84" y="411.5"/>
      <point x="88" y="404" type="curve" smooth="yes"/>
      <point x="95" y="391"/>
      <point x="115.5" y="386"/>
      <point x="138" y="386" type="curve" smooth="yes"/>
      <point x="161" y="386"/>
      <point x="181" y="391"/>
      <point x="188" y="404" type="curve" smooth="yes"/>
      <point x="191.5" y="411.5"/>
      <point x="190.5" y="415.5"/>
      <point x="198" y="415.5" type="curve" smooth="yes"/>
      <point x="203.5" y="415.5"/>
      <point x="205" y="413.5"/>
      <point x="205" y="408.5" type="curve" smooth="yes"/>
      <point x="205" y="373"/>
      <point x="171" y="355"/>
    </contour>
    <contour>
      <point x="59" y="0" type="line" smooth="yes"/>
      <point x="49.5" y="0"/>
      <point x="45" y="4"/>
      <point x="45" y="14" type="curve" smooth="yes"/>
      <point x="45" y="312" type="line" smooth="yes"/>
      <point x="45" y="322"/>
      <point x="49.5" y="326"/>
      <point x="59" y="326" type="curve" smooth="yes"/>
      <point x="222" y="326" type="line" smooth="yes"/>
      <point x="228.5" y="326"/>
      <point x="231" y="322"/>
      <point x="231" y="312" type="curve" smooth="yes"/>
      <point x="231" y="305" type="line" smooth="yes"/>
      <point x="231" y="295"/>
      <point x="228.5" y="291"/>
      <point x="222" y="291" type="curve" smooth="yes"/>
      <point x="86" y="291" type="line"/>
      <point x="86" y="184.5" type="line"/>
      <point x="208" y="184.5" type="line" smooth="yes"/>
      <point x="214.5" y="184.5"/>
      <point x="217" y="180.5"/>
      <point x="217" y="170.5" type="curve" smooth="yes"/>
      <point x="217" y="163" type="line" smooth="yes"/>
      <point x="217" y="153.5"/>
      <point x="214.5" y="149"/>
      <point x="208" y="149" type="curve" smooth="yes"/>
      <point x="86" y="149" type="line"/>
      <point x="86" y="35.5" type="line"/>
      <point x="222.5" y="35.5" type="line" smooth="yes"/>
      <point x="229" y="35.5"/>
      <point x="231.5" y="31"/>
      <point x="231.5" y="21.5" type="curve" smooth="yes"/>
      <point x="231.5" y="14" type="line" smooth="yes"/>
      <point x="231.5" y="4"/>
      <point x="229" y="0"/>
      <point x="222.5" y="0" type="curve" smooth="yes"/>
    </contour>
  </outline>
</glyph>
<glyph name="Gcircumflex" format="1">
  <advance width="313"/>
  <unicode hex="011C"/>
  <outline>
    <contour>
      <point x="233" y="373" type="move" name="Anchor-1"/>
    </contour>
    <contour>
      <point x="181" y="0" type="move" name="Anchor-0"/>
    </contour>
    <contour>
      <point x="111" y="351" type="line" smooth="yes"/>
      <point x="104" y="351"/>
      <point x="100.5" y="353"/>
      <point x="100.5" y="357.5" type="curve" smooth="yes"/>
      <point x="100.5" y="360"/>
      <point x="101" y="362.5"/>
      <point x="103" y="366" type="curve" smooth="yes"/>
      <point x="129" y="407" type="line" smooth="yes"/>
      <point x="134" y="414"/>
      <point x="141.5" y="417"/>
      <point x="150.5" y="417" type="curve" smooth="yes"/>
      <point x="162.5" y="417" type="line" smooth="yes"/>
      <point x="171.5" y="417"/>
      <point x="179" y="414"/>
      <point x="183.5" y="407" type="curve" smooth="yes"/>
      <point x="210.5" y="366" type="line" smooth="yes"/>
      <point x="212" y="363"/>
      <point x="213" y="360"/>
      <point x="213" y="358" type="curve" smooth="yes"/>
      <point x="213" y="353.5"/>
      <point x="209.5" y="351"/>
      <point x="202" y="351" type="curve" smooth="yes"/>
      <point x="201" y="351" type="line" smooth="yes"/>
      <point x="195" y="351"/>
      <point x="190" y="353"/>
      <point x="185.5" y="357" type="curve" smooth="yes"/>
      <point x="156" y="391.5" type="line"/>
      <point x="128" y="357" type="line" smooth="yes"/>
      <point x="123" y="353"/>
      <point x="118.5" y="351"/>
      <point x="112" y="351" type="curve" smooth="yes"/>
    </contour>
    <contour>
      <point x="170.5" y="-3" type="curve" smooth="yes"/>
      <point x="78" y="-3"/>
      <point x="26.5" y="49.5"/>
      <point x="26.5" y="160.5" type="curve" smooth="yes"/>
      <point x="26.5" y="276.5"/>
      <point x="80" y="329"/>
      <point x="177.5" y="329" type="curve" smooth="yes"/>
      <point x="223.5" y="329"/>
      <point x="266.5" y="312.5"/>
      <point x="266.5" y="300" type="curve" smooth="yes"/>
      <point x="266.5" y="292"/>
      <point x="257" y="273"/>
      <point x="250.5" y="273" type="curve" smooth="yes"/>
      <point x="245.5" y="273"/>
      <point x="223" y="293.5"/>
      <point x="178.5" y="293.5" type="curve" smooth="yes"/>
      <point x="96" y="293.5"/>
      <point x="69" y="245.5"/>
      <point x="69" y="164.5" type="curve" smooth="yes"/>
      <point x="69" y="93"/>
      <point x="90.5" y="32.5"/>
      <point x="173.5" y="32.5" type="curve" smooth="yes"/>
      <point x="197.5" y="32.5"/>
      <point x="221" y="35.5"/>
      <point x="233.5" y="38.5" type="curve"/>
      <point x="233.5" y="133" type="line"/>
      <point x="179" y="133" type="line" smooth="yes"/>
      <point x="172.5" y="133"/>
      <point x="169.5" y="137"/>
      <point x="169.5" y="147" type="curve" smooth="yes"/>
      <point x="169.5" y="154" type="line" smooth="yes"/>
      <point x="169.5" y="164"/>
      <point x="172.5" y="168"/>
      <point x="179" y="168" type="curve" smooth="yes"/>
      <point x="260.5" y="168" type="line" smooth="yes"/>
      <point x="270.5" y="168"/>
      <point x="274.5" y="164"/>
      <point x="274.5" y="154" type="curve" smooth="yes"/>
      <point x="274.5" y="31" type="line" smooth="yes"/>
      <point x="274.5" y="4.5"/>
      <point x="223.5" y="-3"/>
    </contour>
  </outline>
</glyph>
<glyph name="Hcircumflex" format="1">
  <advance width="342"/>
  <unicode hex="0124"/>
  <outline>
    <contour>
      <point x="247" y="373" type="move" name="Anchor-1"/>
    </contour>
    <contour>
      <point x="175" y="0" type="move" name="Anchor-0"/>
    </contour>
    <contour>
      <point x="125.5" y="351" type="line" smooth="yes"/>
      <point x="118.5" y="351"/>
      <point x="115" y="353"/>
      <point x="115" y="357.5" type="curve" smooth="yes"/>
      <point x="115" y="360"/>
      <point x="115.5" y="362.5"/>
      <point x="117.5" y="366" type="curve" smooth="yes"/>
      <point x="143.5" y="407" type="line" smooth="yes"/>
      <point x="148.5" y="414"/>
      <point x="156" y="417"/>
      <point x="165" y="417" type="curve" smooth="yes"/>
      <point x="177" y="417" type="line" smooth="yes"/>
      <point x="186" y="417"/>
      <point x="193.5" y="414"/>
      <point x="198" y="407" type="curve" smooth="yes"/>
      <point x="225" y="366" type="line" smooth="yes"/>
      <point x="226.5" y="363"/>
      <point x="227.5" y="360"/>
      <point x="227.5" y="358" type="curve" smooth="yes"/>
      <point x="227.5" y="353.5"/>
      <point x="224" y="351"/>
      <point x="216.5" y="351" type="curve" smooth="yes"/>
      <point x="215.5" y="351" type="line" smooth="yes"/>
      <point x="209.5" y="351"/>
      <point x="204.5" y="353"/>
      <point x="200" y="357" type="curve" smooth="yes"/>
      <point x="170.5" y="391.5" type="line"/>
      <point x="142.5" y="357" type="line" smooth="yes"/>
      <point x="137.5" y="353"/>
      <point x="133" y="351"/>
      <point x="126.5" y="351" type="curve" smooth="yes"/>
    </contour>
    <contour>
      <point x="64" y="-1" type="line" smooth="yes"/>
      <point x="51" y="-1"/>
      <point x="45" y="3"/>
      <point x="45" y="9.5" type="curve" smooth="yes"/>
      <point x="45" y="317" type="line" smooth="yes"/>
      <point x="45" y="323.5"/>
      <point x="51" y="327"/>
      <point x="64" y="327" type="curve" smooth="yes"/>
      <point x="67.5" y="327" type="line" smooth="yes"/>
      <point x="80.5" y="327"/>
      <point x="86" y="323.5"/>
      <point x="86" y="317" type="curve" smooth="yes"/>
      <point x="86" y="185" type="line"/>
      <point x="255" y="185" type="line"/>
      <point x="255" y="317" type="line" smooth="yes"/>
      <point x="255" y="323.5"/>
      <point x="260.5" y="327"/>
      <point x="273.5" y="327" type="curve" smooth="yes"/>
      <point x="277.5" y="327" type="line" smooth="yes"/>
      <point x="290.5" y="327"/>
      <point x="296" y="323.5"/>
      <point x="296" y="317" type="curve" smooth="yes"/>
      <point x="296" y="9.5" type="line" smooth="yes"/>
      <point x="296" y="3"/>
      <point x="290.5" y="-1"/>
      <point x="277.5" y="-1" type="curve" smooth="yes"/>
      <point x="273.5" y="-1" type="line" smooth="yes"/>
      <point x="260.5" y="-1"/>
      <point x="255" y="3"/>
      <point x="255" y="9.5" type="curve" smooth="yes"/>
      <point x="255" y="149.5" type="line"/>
      <point x="86" y="149.5" type="line"/>
      <point x="86" y="9.5" type="line" smooth="yes"/>
      <point x="86" y="3"/>
      <point x="80.5" y="-1"/>
      <point x="67.5" y="-1" type="curve" smooth="yes"/>
    </contour>
  </outline>
</glyph>
<glyph name="Imacron" format="1">
  <advance width="132"/>
  <unicode hex="012A"/>
  <outline>
    <contour>
      <point x="66" y="326" type="move" name="Anchor-1"/>
    </contour>
    <contour>
      <point x="65" y="0" type="move" name="Anchor-0"/>
    </contour>
    <contour>
      <point x="13.5" y="367.5" type="line" smooth="yes"/>
      <point x="7" y="367.5"/>
      <point x="4" y="372"/>
      <point x="4" y="381.5" type="curve" smooth="yes"/>
      <point x="4" y="386.5" type="line" smooth="yes"/>
      <point x="4" y="396"/>
      <point x="7" y="400.5"/>
      <point x="13.5" y="400.5" type="curve" smooth="yes"/>
      <point x="117.5" y="400.5" type="line" smooth="yes"/>
      <point x="124" y="400.5"/>
      <point x="126.5" y="396"/>
      <point x="126.5" y="386.5" type="curve" smooth="yes"/>
      <point x="126.5" y="381.5" type="line" smooth="yes"/>
      <point x="126.5" y="372"/>
      <point x="124" y="367.5"/>
      <point x="117.5" y="367.5" type="curve" smooth="yes"/>
    </contour>
    <contour>
      <point x="64" y="-1" type="line" smooth="yes"/>
      <point x="51" y="-1"/>
      <point x="45" y="3"/>
      <point x="45" y="9.5" type="curve" smooth="yes"/>
      <point x="45" y="317" type="line" smooth="yes"/>
      <point x="45" y="323.5"/>
      <point x="51" y="327"/>
      <point x="64" y="327" type="curve" smooth="yes"/>
      <point x="67.5" y="327" type="line" smooth="yes"/>
      <point x="80.5" y="327"/>
      <point x="86" y="323.5"/>
      <point x="86" y="317" type="curve" smooth="yes"/>
      <point x="86" y="9.5" type="line" smooth="yes"/>
      <point x="86" y="3"/>
      <point x="80.5" y="-1"/>
      <point x="67.5" y="-1" type="curve" smooth="yes"/>
    </contour>
  </outline>
</glyph>
<glyph name="Ibreve" format="1">
  <advance width="132"/>
  <unicode hex="012C"/>
  <outline>
    <contour>
      <point x="66" y="395" type="move" name="Anchor-1"/>
    </contour>
    <contour>
      <point x="65" y="0" type="move" name="Anchor-0"/>
    </contour>
    <contour>
      <point x="65.5" y="355" type="curve" smooth="yes"/>
      <point x="32" y="355"/>
      <point x="-2" y="373"/>
      <point x="-2" y="408.5" type="curve" smooth="yes"/>
      <point x="-2" y="413.5"/>
      <point x="0" y="415.5"/>
      <point x="5" y="415.5" type="curve" smooth="yes"/>
      <point x="13" y="415.5"/>
      <point x="11.5" y="411.5"/>
      <point x="15.5" y="404" type="curve" smooth="yes"/>
      <point x="22.5" y="391"/>
      <point x="43" y="386"/>
      <point x="65.5" y="386" type="curve" smooth="yes"/>
      <point x="88.5" y="386"/>
      <point x="108.5" y="391"/>
      <point x="115.5" y="404" type="curve" smooth="yes"/>
      <point x="119" y="411.5"/>
      <point x="118" y="415.5"/>
      <point x="125.5" y="415.5" type="curve" smooth="yes"/>
      <point x="131" y="415.5"/>
      <point x="132.5" y="413.5"/>
      <point x="132.5" y="408.5" type="curve" smooth="yes"/>
      <point x="132.5" y="373"/>
      <point x="98.5" y="355"/>
    </contour>
    <contour>
      <point x="64" y="-1" type="line" smooth="yes"/>
      <point x="51" y="-1"/>
      <point x="45" y="3"/>
      <point x="45" y="9.5" type="curve" smooth="yes"/>
      <point x="45" y="317" type="line" smooth="yes"/>
      <point x="45" y="323.5"/>
      <point x="51" y="327"/>
      <point x="64" y="327" type="curve" smooth="yes"/>
      <point x="67.5" y="327" type="line" smooth="yes"/>
      <point x="80.5" y="327"/>
      <point x="86" y="323.5"/>
      <point x="86" y="317" type="curve" smooth="yes"/>
      <point x="86" y="9.5" type="line" smooth="yes"/>
      <point x="86" y="3"/>
      <point x="80.5" y="-1"/>
      <point x="67.5" y="-1" type="curve" smooth="yes"/>
    </contour>
  </outline>
</glyph>
<glyph name="iogonek" format="1">
  <advance width="124"/>
  <unicode hex="012F"/>
  <outline>
    <contour>
      <point x="0" y="0" type="move" name="Anchor-1"/>
    </contour>
    <contour>
      <point x="61" y="0" type="move" name="Anchor-0"/>
    </contour>
    <contour>
      <point x="59" y="302.5" type="line" smooth="yes"/>
      <point x="46" y="302.5"/>
      <point x="40.5" y="306"/>
      <point x="40.5" y="312.5" type="curve" smooth="yes"/>
      <point x="40.5" y="340" type="line" smooth="yes"/>
      <point x="40.5" y="346.5"/>
      <point x="46" y="350.5"/>
      <point x="59" y="350.5" type="curve" smooth="yes"/>
      <point x="65" y="350.5" type="line" smooth="yes"/>
      <point x="78" y="350.5"/>
      <point x="83.5" y="346.5"/>
      <point x="83.5" y="340" type="curve" smooth="yes"/>
      <point x="83.5" y="312.5" type="line" smooth="yes"/>
      <point x="83.5" y="306"/>
      <point x="78" y="302.5"/>
      <point x="65" y="302.5" type="curve" smooth="yes"/>
    </contour>
    <contour>
      <point x="121" y="-48" type="curve" smooth="yes"/>
      <point x="126.5" y="-48"/>
      <point x="130" y="-51.5"/>
      <point x="130" y="-59.5" type="curve" smooth="yes"/>
      <point x="130" y="-80.5"/>
      <point x="115" y="-85.5"/>
      <point x="91.5" y="-85.5" type="curve" smooth="yes"/>
      <point x="42" y="-85.5"/>
      <point x="36.5" y="-51.5"/>
      <point x="36.5" y="-37.5" type="curve" smooth="yes"/>
      <point x="36.5" y="-28"/>
      <point x="38" y="-9"/>
      <point x="49" y="1" type="curve"/>
      <point x="44.5" y="2.5"/>
      <point x="42.5" y="5.5"/>
      <point x="42.5" y="9.5" type="curve" smooth="yes"/>
      <point x="42.5" y="234.5" type="line" smooth="yes"/>
      <point x="42.5" y="241"/>
      <point x="48" y="244.5"/>
      <point x="61" y="244.5" type="curve" smooth="yes"/>
      <point x="63" y="244.5" type="line" smooth="yes"/>
      <point x="76" y="244.5"/>
      <point x="81.5" y="241"/>
      <point x="81.5" y="234.5" type="curve" smooth="yes"/>
      <point x="81.5" y="9.5" type="line" smooth="yes"/>
      <point x="81.5" y="5"/>
      <point x="79" y="2"/>
      <point x="73.5" y="0" type="curve"/>
      <point x="73.5" y="-0.5" type="line" smooth="yes"/>
      <point x="73.5" y="-7"/>
      <point x="68" y="-17.5"/>
      <point x="68" y="-29" type="curve" smooth="yes"/>
      <point x="68" y="-51.5"/>
      <point x="86" y="-52.5"/>
      <point x="97" y="-52.5" type="curve" smooth="yes"/>
      <point x="104" y="-52.5"/>
      <point x="113.5" y="-48"/>
    </contour>
  </outline>
</glyph>
<glyph name="kcommaaccent" format="1">
  <advance width="243"/>
  <unicode hex="0137"/>
  <outline>
    <contour>
      <point x="0" y="0" type="move" name="Anchor-1"/>
    </contour>
    <contour>
      <point x="120" y="-95" type="move" name="Anchor-0"/>
    </contour>
    <contour>
      <point x="62.5" y="-1" type="line" smooth="yes"/>
      <point x="49.5" y="-1"/>
      <point x="44" y="3"/>
      <point x="44" y="9.5" type="curve" smooth="yes"/>
      <point x="44" y="340" type="line" smooth="yes"/>
      <point x="44" y="346.5"/>
      <point x="49.5" y="350.5"/>
      <point x="62.5" y="350.5" type="curve" smooth="yes"/>
      <point x="64.5" y="350.5" type="line" smooth="yes"/>
      <point x="77.5" y="350.5"/>
      <point x="83" y="346.5"/>
      <point x="83" y="340" type="curve" smooth="yes"/>
      <point x="83" y="132" type="line"/>
      <point x="85" y="132" type="line"/>
      <point x="174" y="238" type="line" smooth="yes"/>
      <point x="178" y="243.5"/>
      <point x="188.5" y="244.5"/>
      <point x="198.5" y="244.5" type="curve" smooth="yes"/>
      <point x="200.5" y="244.5" type="line" smooth="yes"/>
      <point x="211.5" y="244.5"/>
      <point x="216.5" y="242"/>
      <point x="216.5" y="238.5" type="curve" smooth="yes"/>
      <point x="216.5" y="236.5"/>
      <point x="215.5" y="233"/>
      <point x="212" y="229.5" type="curve" smooth="yes"/>
      <point x="125.5" y="127" type="line"/>
      <point x="221.5" y="13" type="line" smooth="yes"/>
      <point x="224.5" y="9.5"/>
      <point x="225.5" y="7.5"/>
      <point x="225.5" y="5.5" type="curve" smooth="yes"/>
      <point x="225.5" y="0.5"/>
      <point x="219.5" y="-1"/>
      <point x="205" y="-1" type="curve" smooth="yes"/>
      <point x="203" y="-1" type="line" smooth="yes"/>
      <point x="193" y="-1"/>
      <point x="182.5" y="-0.5"/>
      <point x="178" y="5" type="curve" smooth="yes"/>
      <point x="85" y="115.5" type="line"/>
      <point x="83" y="115.5" type="line"/>
      <point x="83" y="9.5" type="line" smooth="yes"/>
      <point x="83" y="3"/>
      <point x="77.5" y="-1"/>
      <point x="64.5" y="-1" type="curve" smooth="yes"/>
    </contour>
    <contour>
      <point x="94" y="-109.5" type="curve" smooth="yes"/>
      <point x="89" y="-109.5"/>
      <point x="80.5" y="-108"/>
      <point x="80.5" y="-102.5" type="curve" smooth="yes"/>
      <point x="80.5" y="-92"/>
      <point x="100.5" y="-74"/>
      <point x="100.5" y="-38.5" type="curve" smooth="yes"/>
      <point x="100.5" y="-30"/>
      <point x="106.5" y="-24"/>
      <point x="119" y="-24" type="curve" smooth="yes"/>
      <point x="123.5" y="-24" type="line" smooth="yes"/>
      <point x="135" y="-24"/>
      <point x="142" y="-29"/>
      <point x="142" y="-37" type="curve" smooth="yes"/>
      <point x="142" y="-81.5"/>
      <point x="109.5" y="-109.5"/>
    </contour>
  </outline>
</glyph>
<glyph name="lcommaaccent" format="1">
  <advance width="139"/>
  <unicode hex="013C"/>
  <outline>
    <contour>
      <point x="58" y="336" type="move" name="Anchor-1"/>
    </contour>
    <contour>
      <point x="82" y="-95" type="move" name="Anchor-0"/>
    </contour>
    <contour>
      <point x="98.5" y="-3" type="curve" smooth="yes"/>
      <point x="75" y="-3"/>
      <point x="38" y="7.5"/>
      <point x="38" y="61.5" type="curve" smooth="yes"/>
      <point x="38" y="340" type="line" smooth="yes"/>
      <point x="38" y="346.5"/>
      <point x="44" y="350.5"/>
      <point x="57" y="350.5" type="curve" smooth="yes"/>
      <point x="58.5" y="350.5" type="line" smooth="yes"/>
      <point x="72" y="350.5"/>
      <point x="77.5" y="346.5"/>
      <point x="77.5" y="340" type="curve" smooth="yes"/>
      <point x="77.5" y="65" type="line" smooth="yes"/>
      <point x="77.5" y="37.5"/>
      <point x="89" y="31"/>
      <point x="102.5" y="31" type="curve" smooth="yes"/>
      <point x="116" y="31"/>
      <point x="118.5" y="33"/>
      <point x="122.5" y="33" type="curve" smooth="yes"/>
      <point x="129" y="33"/>
      <point x="132.5" y="15"/>
      <point x="132.5" y="11" type="curve" smooth="yes"/>
      <point x="132.5" y="-1.5"/>
      <point x="111" y="-3"/>
    </contour>
    <contour>
      <point x="56" y="-109.5" type="curve" smooth="yes"/>
      <point x="51" y="-109.5"/>
      <point x="42.5" y="-108"/>
      <point x="42.5" y="-102.5" type="curve" smooth="yes"/>
      <point x="42.5" y="-92"/>
      <point x="62.5" y="-74"/>
      <point x="62.5" y="-38.5" type="curve" smooth="yes"/>
      <point x="62.5" y="-30"/>
      <point x="68.5" y="-24"/>
      <point x="81" y="-24" type="curve" smooth="yes"/>
      <point x="85.5" y="-24" type="line" smooth="yes"/>
      <point x="97" y="-24"/>
      <point x="104" y="-29"/>
      <point x="104" y="-37" type="curve" smooth="yes"/>
      <point x="104" y="-81.5"/>
      <point x="71.5" y="-109.5"/>
    </contour>
  </outline>
</glyph>
<glyph name="lcaron" format="1">
  <advance width="139"/>
  <unicode hex="013E"/>
  <outline>
    <contour>
      <point x="58" y="336" type="move" name="Anchor-1"/>
    </contour>
    <contour>
      <point x="84" y="0" type="move" name="Anchor-0"/>
    </contour>
    <contour>
      <point x="98.5" y="-3" type="curve" smooth="yes"/>
      <point x="75" y="-3"/>
      <point x="38" y="7.5"/>
      <point x="38" y="61.5" type="curve" smooth="yes"/>
      <point x="38" y="340" type="line" smooth="yes"/>
      <point x="38" y="346.5"/>
      <point x="44" y="350.5"/>
      <point x="57" y="350.5" type="curve" smooth="yes"/>
      <point x="58.5" y="350.5" type="line" smooth="yes"/>
      <point x="72" y="350.5"/>
      <point x="77.5" y="346.5"/>
      <point x="77.5" y="340" type="curve" smooth="yes"/>
      <point x="77.5" y="65" type="line" smooth="yes"/>
      <point x="77.5" y="37.5"/>
      <point x="89" y="31"/>
      <point x="102.5" y="31" type="curve" smooth="yes"/>
      <point x="116" y="31"/>
      <point x="118.5" y="33"/>
      <point x="122.5" y="33" type="curve" smooth="yes"/>
      <point x="129" y="33"/>
      <point x="132.5" y="15"/>
      <point x="132.5" y="11" type="curve" smooth="yes"/>
      <point x="132.5" y="-1.5"/>
      <point x="111" y="-3"/>
    </contour>
    <contour>
      <point x="114" y="246" type="curve" smooth="yes"/>
      <point x="109" y="246"/>
      <point x="100.5" y="247.5"/>
      <point x="100.5" y="253" type="curve" smooth="yes"/>
      <point x="100.5" y="263"/>
      <point x="106.5" y="279"/>
      <point x="106.5" y="312.5" type="curve" smooth="yes"/>
      <point x="106.5" y="321"/>
      <point x="112.5" y="327"/>
      <point x="125" y="327" type="curve" smooth="yes"/>
      <point x="129.5" y="327" type="line" smooth="yes"/>
      <point x="141" y="327"/>
      <point x="148" y="322"/>
      <point x="148" y="314" type="curve" smooth="yes"/>
      <point x="148" y="272"/>
      <point x="125" y="246"/>
    </contour>
  </outline>
</glyph>
<glyph name="Lslash" format="1">
  <advance width="227"/>
  <unicode hex="0141"/>
  <outline>
    <contour>
      <point x="53.5" y="0" type="line" smooth="yes"/>
      <point x="44" y="0"/>
      <point x="39.5" y="4"/>
      <point x="39.5" y="14" type="curve" smooth="yes"/>
      <point x="39.5" y="162" type="line"/>
      <point x="8" y="143.5" type="line" smooth="yes"/>
      <point x="6" y="142"/>
      <point x="4" y="141.5"/>
      <point x="3.5" y="141.5" type="curve" smooth="yes"/>
      <point x="1" y="141.5"/>
      <point x="-1" y="144"/>
      <point x="-1" y="148" type="curve" smooth="yes"/>
      <point x="-1" y="151" type="line" smooth="yes"/>
      <point x="-1" y="157.5"/>
      <point x="2.5" y="161.5"/>
      <point x="8" y="165" type="curve" smooth="yes"/>
      <point x="39.5" y="183.5" type="line"/>
      <point x="39.5" y="317" type="line" smooth="yes"/>
      <point x="39.5" y="323.5"/>
      <point x="45" y="327"/>
      <point x="58" y="327" type="curve" smooth="yes"/>
      <point x="62" y="327" type="line" smooth="yes"/>
      <point x="75" y="327"/>
      <point x="80.5" y="323.5"/>
      <point x="80.5" y="317" type="curve" smooth="yes"/>
      <point x="80.5" y="208.5" type="line"/>
      <point x="131" y="238" type="line" smooth="yes"/>
      <point x="133" y="239"/>
      <point x="134" y="240"/>
      <point x="135.5" y="240" type="curve" smooth="yes"/>
      <point x="138" y="240"/>
      <point x="140" y="237.5"/>
      <point x="140" y="233.5" type="curve" smooth="yes"/>
      <point x="140" y="230.5" type="line" smooth="yes"/>
      <point x="140" y="224"/>
      <point x="136.5" y="220"/>
      <point x="131" y="216.5" type="curve" smooth="yes"/>
      <point x="80.5" y="187" type="line"/>
      <point x="80.5" y="35.5" type="line"/>
      <point x="216" y="35.5" type="line" smooth="yes"/>
      <point x="222.5" y="35.5"/>
      <point x="225.5" y="31"/>
      <point x="225.5" y="21.5" type="curve" smooth="yes"/>
      <point x="225.5" y="14" type="line" smooth="yes"/>
      <point x="225.5" y="4"/>
      <point x="222.5" y="0"/>
      <point x="216" y="0" type="curve" smooth="yes"/>
    </contour>
  </outline>
</glyph>
<glyph name="lslash" format="1">
  <advance width="137"/>
  <unicode hex="0142"/>
  <outline>
    <contour>
      <point x="97.5" y="-3" type="curve" smooth="yes"/>
      <point x="74" y="-3"/>
      <point x="37.5" y="7.5"/>
      <point x="37.5" y="61.5" type="curve" smooth="yes"/>
      <point x="37.5" y="164.5" type="line"/>
      <point x="17.5" y="153" type="line" smooth="yes"/>
      <point x="16" y="151.5"/>
      <point x="14" y="151"/>
      <point x="13" y="151" type="curve" smooth="yes"/>
      <point x="10.5" y="151"/>
      <point x="9" y="153.5"/>
      <point x="9" y="157.5" type="curve" smooth="yes"/>
      <point x="9" y="160.5" type="line" smooth="yes"/>
      <point x="9" y="167"/>
      <point x="12" y="171"/>
      <point x="17.5" y="174.5" type="curve" smooth="yes"/>
      <point x="37.5" y="185.5" type="line"/>
      <point x="37.5" y="340" type="line" smooth="yes"/>
      <point x="37.5" y="346.5"/>
      <point x="43" y="350.5"/>
      <point x="56" y="350.5" type="curve" smooth="yes"/>
      <point x="58" y="350.5" type="line" smooth="yes"/>
      <point x="71" y="350.5"/>
      <point x="76.5" y="346.5"/>
      <point x="76.5" y="340" type="curve" smooth="yes"/>
      <point x="76.5" y="209" type="line"/>
      <point x="96" y="220.5" type="line" smooth="yes"/>
      <point x="98" y="221.5"/>
      <point x="99.5" y="222.5"/>
      <point x="100.5" y="222.5" type="curve" smooth="yes"/>
      <point x="103" y="222.5"/>
      <point x="105" y="220"/>
      <point x="105" y="216" type="curve" smooth="yes"/>
      <point x="105" y="213" type="line" smooth="yes"/>
      <point x="105" y="206.5"/>
      <point x="101.5" y="202"/>
      <point x="96" y="199" type="curve" smooth="yes"/>
      <point x="76.5" y="187.5" type="line"/>
      <point x="76.5" y="65" type="line" smooth="yes"/>
      <point x="76.5" y="37.5"/>
      <point x="88" y="31"/>
      <point x="101.5" y="31" type="curve" smooth="yes"/>
      <point x="115" y="31"/>
      <point x="117.5" y="33"/>
      <point x="121.5" y="33" type="curve" smooth="yes"/>
      <point x="128" y="33"/>
      <point x="131.5" y="15"/>
      <point x="131.5" y="11" type="curve" smooth="yes"/>
      <point x="131.5" y="-1.5"/>
      <point x="110" y="-3"/>
    </contour>
  </outline>
</glyph>
<glyph name="nacute" format="1">
  <advance width="260"/>
  <unicode hex="0144"/>
  <outline>
    <contour>
      <point x="130" y="244" type="move" name="Anchor-1"/>
    </contour>
    <contour>
      <point x="130" y="0" type="move" name="Anchor-0"/>
    </contour>
    <contour>
      <point x="122" y="272.5" type="curve" smooth="yes"/>
      <point x="114.5" y="272.5"/>
      <point x="111.5" y="274"/>
      <point x="111.5" y="277.5" type="curve" smooth="yes"/>
      <point x="111.5" y="282"/>
      <point x="117" y="291.5"/>
      <point x="138.5" y="329" type="curve" smooth="yes"/>
      <point x="143.5" y="338"/>
      <point x="152.5" y="341"/>
      <point x="167.5" y="341" type="curve" smooth="yes"/>
      <point x="182.5" y="341"/>
      <point x="190" y="339.5"/>
      <point x="190" y="335" type="curve" smooth="yes"/>
      <point x="190" y="330"/>
      <point x="185" y="325.5"/>
      <point x="146" y="281" type="curve" smooth="yes"/>
      <point x="141" y="275.5"/>
      <point x="132" y="272.5"/>
    </contour>
    <contour>
      <point x="58.5" y="-1" type="line" smooth="yes"/>
      <point x="45.5" y="-1"/>
      <point x="40" y="3"/>
      <point x="40" y="9.5" type="curve" smooth="yes"/>
      <point x="40" y="173" type="line" smooth="yes"/>
      <point x="40" y="211"/>
      <point x="34.5" y="229.5"/>
      <point x="34.5" y="231.5" type="curve" smooth="yes"/>
      <point x="34.5" y="240.5"/>
      <point x="53.5" y="242.5"/>
      <point x="59.5" y="242.5" type="curve" smooth="yes"/>
      <point x="71" y="242.5"/>
      <point x="73" y="223.5"/>
      <point x="76" y="211.5" type="curve"/>
      <point x="95.5" y="233.5"/>
      <point x="122.5" y="246.5"/>
      <point x="148.5" y="246.5" type="curve" smooth="yes"/>
      <point x="196" y="246.5"/>
      <point x="224.5" y="218"/>
      <point x="224.5" y="171" type="curve" smooth="yes"/>
      <point x="224.5" y="9.5" type="line" smooth="yes"/>
      <point x="224.5" y="3"/>
      <point x="219" y="-1"/>
      <point x="206" y="-1" type="curve" smooth="yes"/>
      <point x="204" y="-1" type="line" smooth="yes"/>
      <point x="191" y="-1"/>
      <point x="185.5" y="3"/>
      <point x="185.5" y="9.5" type="curve" smooth="yes"/>
      <point x="185.5" y="167.5" type="line" smooth="yes"/>
      <point x="185.5" y="195.5"/>
      <point x="168" y="212.5"/>
      <point x="138" y="212.5" type="curve" smooth="yes"/>
      <point x="117" y="212.5"/>
      <point x="94.5" y="200"/>
      <point x="79" y="180" type="curve"/>
      <point x="79" y="9.5" type="line" smooth="yes"/>
      <point x="79" y="3"/>
      <point x="73.5" y="-1"/>
      <point x="60.5" y="-1" type="curve" smooth="yes"/>
    </contour>
  </outline>
</glyph>
<glyph name="ncaron" format="1">
  <advance width="260"/>
  <unicode hex="0148"/>
  <outline>
    <contour>
      <point x="130" y="244" type="move" name="Anchor-1"/>
    </contour>
    <contour>
      <point x="130" y="0" type="move" name="Anchor-0"/>
    </contour>
    <contour>
      <point x="124" y="271" type="line" smooth="yes"/>
      <point x="115" y="271"/>
      <point x="107.5" y="274.5"/>
      <point x="102.5" y="281.5" type="curve" smooth="yes"/>
      <point x="76.5" y="322.5" type="line" smooth="yes"/>
      <point x="74.5" y="325.5"/>
      <point x="74" y="328.5"/>
      <point x="74" y="331" type="curve" smooth="yes"/>
      <point x="74" y="335"/>
      <point x="77.5" y="337.5"/>
      <point x="84.5" y="337.5" type="curve" smooth="yes"/>
      <point x="85.5" y="337.5" type="line" smooth="yes"/>
      <point x="92" y="337.5"/>
      <point x="96.5" y="335.5"/>
      <point x="101.5" y="331.5" type="curve" smooth="yes"/>
      <point x="129.5" y="297" type="line"/>
      <point x="159" y="331.5" type="line" smooth="yes"/>
      <point x="163.5" y="335.5"/>
      <point x="168.5" y="337.5"/>
      <point x="174.5" y="337.5" type="curve" smooth="yes"/>
      <point x="175.5" y="337.5" type="line" smooth="yes"/>
      <point x="183" y="337.5"/>
      <point x="186.5" y="334.5"/>
      <point x="186.5" y="330.5" type="curve" smooth="yes"/>
      <point x="186.5" y="328"/>
      <point x="185.5" y="325.5"/>
      <point x="184" y="322.5" type="curve" smooth="yes"/>
      <point x="157" y="281.5" type="line" smooth="yes"/>
      <point x="152.5" y="274.5"/>
      <point x="145" y="271"/>
      <point x="136" y="271" type="curve" smooth="yes"/>
    </contour>
    <contour>
      <point x="58.5" y="-1" type="line" smooth="yes"/>
      <point x="45.5" y="-1"/>
      <point x="40" y="3"/>
      <point x="40" y="9.5" type="curve" smooth="yes"/>
      <point x="40" y="173" type="line" smooth="yes"/>
      <point x="40" y="211"/>
      <point x="34.5" y="229.5"/>
      <point x="34.5" y="231.5" type="curve" smooth="yes"/>
      <point x="34.5" y="240.5"/>
      <point x="53.5" y="242.5"/>
      <point x="59.5" y="242.5" type="curve" smooth="yes"/>
      <point x="71" y="242.5"/>
      <point x="73" y="223.5"/>
      <point x="76" y="211.5" type="curve"/>
      <point x="95.5" y="233.5"/>
      <point x="122.5" y="246.5"/>
      <point x="148.5" y="246.5" type="curve" smooth="yes"/>
      <point x="196" y="246.5"/>
      <point x="224.5" y="218"/>
      <point x="224.5" y="171" type="curve" smooth="yes"/>
      <point x="224.5" y="9.5" type="line" smooth="yes"/>
      <point x="224.5" y="3"/>
      <point x="219" y="-1"/>
      <point x="206" y="-1" type="curve" smooth="yes"/>
      <point x="204" y="-1" type="line" smooth="yes"/>
      <point x="191" y="-1"/>
      <point x="185.5" y="3"/>
      <point x="185.5" y="9.5" type="curve" smooth="yes"/>
      <point x="185.5" y="167.5" type="line" smooth="yes"/>
      <point x="185.5" y="195.5"/>
      <point x="168" y="212.5"/>
      <point x="138" y="212.5" type="curve" smooth="yes"/>
      <point x="117" y="212.5"/>
      <point x="94.5" y="200"/>
      <point x="79" y="180" type="curve"/>
      <point x="79" y="9.5" type="line" smooth="yes"/>
      <point x="79" y="3"/>
      <point x="73.5" y="-1"/>
      <point x="60.5" y="-1" type="curve" smooth="yes"/>
    </contour>
  </outline>
</glyph>
<glyph name="Obreve" format="1">
  <advance width="341"/>
  <unicode hex="014E"/>
  <outline>
    <contour>
      <point x="171" y="395" type="move" name="Anchor-1"/>
    </contour>
    <contour>
      <point x="171" y="0" type="move" name="Anchor-0"/>
    </contour>
    <contour>
      <point x="170.5" y="355" type="curve" smooth="yes"/>
      <point x="137" y="355"/>
      <point x="103" y="373"/>
      <point x="103" y="408.5" type="curve" smooth="yes"/>
      <point x="103" y="413.5"/>
      <point x="105" y="415.5"/>
      <point x="110" y="415.5" type="curve" smooth="yes"/>
      <point x="118" y="415.5"/>
      <point x="116.5" y="411.5"/>
      <point x="120.5" y="404" type="curve" smooth="yes"/>
      <point x="127.5" y="391"/>
      <point x="148" y="386"/>
      <point x="170.5" y="386" type="curve" smooth="yes"/>
      <point x="193.5" y="386"/>
      <point x="213.5" y="391"/>
      <point x="220.5" y="404" type="curve" smooth="yes"/>
      <point x="224" y="411.5"/>
      <point x="223" y="415.5"/>
      <point x="230.5" y="415.5" type="curve" smooth="yes"/>
      <point x="236" y="415.5"/>
      <point x="237.5" y="413.5"/>
      <point x="237.5" y="408.5" type="curve" smooth="yes"/>
      <point x="237.5" y="373"/>
      <point x="203.5" y="355"/>
    </contour>
    <contour>
      <point x="170" y="-3" type="curve" smooth="yes"/>
      <point x="77" y="-3"/>
      <point x="26.5" y="55"/>
      <point x="26.5" y="164" type="curve" smooth="yes"/>
      <point x="26.5" y="273"/>
      <point x="77" y="329"/>
      <point x="170" y="329" type="curve" smooth="yes"/>
      <point x="264" y="329"/>
      <point x="314" y="273"/>
      <point x="314" y="164" type="curve" smooth="yes"/>
      <point x="314" y="55"/>
      <point x="264" y="-3"/>
    </contour>
    <contour>
      <point x="170" y="32.5" type="curve" smooth="yes"/>
      <point x="236" y="32.5"/>
      <point x="271.5" y="78.5"/>
      <point x="271.5" y="164" type="curve" smooth="yes"/>
      <point x="271.5" y="250"/>
      <point x="236" y="293.5"/>
      <point x="170" y="293.5" type="curve" smooth="yes"/>
      <point x="104.5" y="293.5"/>
      <point x="69" y="250"/>
      <point x="69" y="164" type="curve" smooth="yes"/>
      <point x="69" y="78.5"/>
      <point x="104.5" y="32.5"/>
    </contour>
  </outline>
</glyph>
<glyph name="obreve" format="1">
  <advance width="265"/>
  <unicode hex="014F"/>
  <outline>
    <contour>
      <point x="133" y="313" type="move" name="Anchor-1"/>
    </contour>
    <contour>
      <point x="136" y="0" type="move" name="Anchor-0"/>
    </contour>
    <contour>
      <point x="133" y="272.5" type="curve" smooth="yes"/>
      <point x="99.5" y="272.5"/>
      <point x="65.5" y="290.5"/>
      <point x="65.5" y="326" type="curve" smooth="yes"/>
      <point x="65.5" y="331"/>
      <point x="67.5" y="333"/>
      <point x="72.5" y="333" type="curve" smooth="yes"/>
      <point x="80.5" y="333"/>
      <point x="79" y="329"/>
      <point x="83" y="321.5" type="curve" smooth="yes"/>
      <point x="90" y="308.5"/>
      <point x="110.5" y="303.5"/>
      <point x="133" y="303.5" type="curve" smooth="yes"/>
      <point x="156" y="303.5"/>
      <point x="176" y="308.5"/>
      <point x="183" y="321.5" type="curve" smooth="yes"/>
      <point x="186.5" y="329"/>
      <point x="185.5" y="333"/>
      <point x="193" y="333" type="curve" smooth="yes"/>
      <point x="198.5" y="333"/>
      <point x="200" y="331"/>
      <point x="200" y="326" type="curve" smooth="yes"/>
      <point x="200" y="290.5"/>
      <point x="166" y="272.5"/>
    </contour>
    <contour>
      <point x="133.5" y="-3" type="curve" smooth="yes"/>
      <point x="63.5" y="-3"/>
      <point x="25.5" y="40.5"/>
      <point x="25.5" y="120.5" type="curve" smooth="yes"/>
      <point x="25.5" y="201.5"/>
      <point x="64.5" y="246.5"/>
      <point x="133.5" y="246.5" type="curve" smooth="yes"/>
      <point x="202" y="246.5"/>
      <point x="239.5" y="202"/>
      <point x="239.5" y="120.5" type="curve" smooth="yes"/>
      <point x="239.5" y="40"/>
      <point x="203" y="-3"/>
    </contour>
    <contour>
      <point x="132.5" y="31" type="curve" smooth="yes"/>
      <point x="178" y="31"/>
      <point x="199" y="59.5"/>
      <point x="199" y="121.5" type="curve" smooth="yes"/>
      <point x="199" y="183.5"/>
      <point x="178" y="213"/>
      <point x="132.5" y="213" type="curve" smooth="yes"/>
      <point x="87" y="213"/>
      <point x="66.5" y="184"/>
      <point x="66.5" y="121.5" type="curve" smooth="yes"/>
      <point x="66.5" y="59.5"/>
      <point x="86.5" y="31"/>
    </contour>
  </outline>
</glyph>
<glyph name="ohungarumlaut" format="1">
  <advance width="265"/>
  <unicode hex="0151"/>
  <outline>
    <contour>
      <point x="133" y="244" type="move" name="Anchor-1"/>
    </contour>
    <contour>
      <point x="136" y="0" type="move" name="Anchor-0"/>
    </contour>
    <contour>
      <point x="91.5" y="272.5" type="curve" smooth="yes"/>
      <point x="84.5" y="272.5"/>
      <point x="81" y="274"/>
      <point x="81" y="277.5" type="curve" smooth="yes"/>
      <point x="81" y="282"/>
      <point x="86.5" y="291.5"/>
      <point x="108" y="329" type="curve" smooth="yes"/>
      <point x="113" y="338"/>
      <point x="122" y="341"/>
      <point x="137" y="341" type="curve" smooth="yes"/>
      <point x="152" y="341"/>
      <point x="159.5" y="339.5"/>
      <point x="159.5" y="335" type="curve" smooth="yes"/>
      <point x="159.5" y="330"/>
      <point x="154.5" y="325.5"/>
      <point x="115.5" y="281" type="curve" smooth="yes"/>
      <point x="110.5" y="275.5"/>
      <point x="101.5" y="272.5"/>
    </contour>
    <contour>
      <point x="160" y="272.5" type="curve" smooth="yes"/>
      <point x="153" y="272.5"/>
      <point x="149.5" y="274"/>
      <point x="149.5" y="277.5" type="curve" smooth="yes"/>
      <point x="149.5" y="282"/>
      <point x="155" y="291.5"/>
      <point x="176.5" y="329" type="curve" smooth="yes"/>
      <point x="181.5" y="338"/>
      <point x="190.5" y="341"/>
      <point x="205.5" y="341" type="curve" smooth="yes"/>
      <point x="220.5" y="341"/>
      <point x="228" y="339.5"/>
      <point x="228" y="335" type="curve" smooth="yes"/>
      <point x="228" y="330"/>
      <point x="223" y="325.5"/>
      <point x="184" y="281" type="curve" smooth="yes"/>
      <point x="179" y="275.5"/>
      <point x="170" y="272.5"/>
    </contour>
    <contour>
      <point x="133.5" y="-3" type="curve" smooth="yes"/>
      <point x="63.5" y="-3"/>
      <point x="25.5" y="40.5"/>
      <point x="25.5" y="120.5" type="curve" smooth="yes"/>
      <point x="25.5" y="201.5"/>
      <point x="64.5" y="246.5"/>
      <point x="133.5" y="246.5" type="curve" smooth="yes"/>
      <point x="202" y="246.5"/>
      <point x="239.5" y="202"/>
      <point x="239.5" y="120.5" type="curve" smooth="yes"/>
      <point x="239.5" y="40"/>
      <point x="203" y="-3"/>
    </contour>
    <contour>
      <point x="132.5" y="31" type="curve" smooth="yes"/>
      <point x="178" y="31"/>
      <point x="199" y="59.5"/>
      <point x="199" y="121.5" type="curve" smooth="yes"/>
      <point x="199" y="183.5"/>
      <point x="178" y="213"/>
      <point x="132.5" y="213" type="curve" smooth="yes"/>
      <point x="87" y="213"/>
      <point x="66.5" y="184"/>
      <point x="66.5" y="121.5" type="curve" smooth="yes"/>
      <point x="66.5" y="59.5"/>
      <point x="86.5" y="31"/>
    </contour>
  </outline>
</glyph>
<glyph name="OE" format="1">
  <advance width="476"/>
  <unicode hex="0152"/>
  <outline>
    <contour>
      <point x="238" y="326" type="move" name="Anchor-1"/>
    </contour>
    <contour>
      <point x="0" y="0" type="move" name="Anchor-0"/>
    </contour>
    <contour>
      <point x="451" y="35.5" type="line" smooth="yes"/>
      <point x="457.5" y="35.5"/>
      <point x="460.5" y="31"/>
      <point x="460.5" y="21.5" type="curve" smooth="yes"/>
      <point x="460.5" y="14" type="line" smooth="yes"/>
      <point x="460.5" y="4"/>
      <point x="457.5" y="0"/>
      <point x="451" y="0" type="curve" smooth="yes"/>
      <point x="286.5" y="0" type="line" smooth="yes"/>
      <point x="277" y="0"/>
      <point x="272.5" y="4"/>
      <point x="272.5" y="14" type="curve" smooth="yes"/>
      <point x="272.5" y="36" type="line"/>
      <point x="249" y="10"/>
      <point x="215" y="-3"/>
      <point x="170" y="-3" type="curve" smooth="yes"/>
      <point x="77" y="-3"/>
      <point x="26.5" y="55"/>
      <point x="26.5" y="164" type="curve" smooth="yes"/>
      <point x="26.5" y="273"/>
      <point x="77" y="329"/>
      <point x="170" y="329" type="curve" smooth="yes"/>
      <point x="215" y="329"/>
      <point x="249" y="316"/>
      <point x="272.5" y="290.5" type="curve"/>
      <point x="272.5" y="312" type="line" smooth="yes"/>
      <point x="272.5" y="322"/>
      <point x="277" y="326"/>
      <point x="286.5" y="326" type="curve" smooth="yes"/>
      <point x="450.5" y="326" type="line" smooth="yes"/>
      <point x="457" y="326"/>
      <point x="460" y="322"/>
      <point x="460" y="312" type="curve" smooth="yes"/>
      <point x="460" y="305" type="line" smooth="yes"/>
      <point x="460" y="295"/>
      <point x="457" y="291"/>
      <point x="450.5" y="291" type="curve" smooth="yes"/>
      <point x="313.5" y="291" type="line"/>
      <point x="313.5" y="184.5" type="line"/>
      <point x="436.5" y="184.5" type="line" smooth="yes"/>
      <point x="443" y="184.5"/>
      <point x="446" y="180.5"/>
      <point x="446" y="170.5" type="curve" smooth="yes"/>
      <point x="446" y="163" type="line" smooth="yes"/>
      <point x="446" y="153.5"/>
      <point x="443" y="149"/>
      <point x="436.5" y="149" type="curve" smooth="yes"/>
      <point x="313.5" y="149" type="line"/>
      <point x="313.5" y="35.5" type="line"/>
    </contour>
    <contour>
      <point x="170" y="32.5" type="curve" smooth="yes"/>
      <point x="236" y="32.5"/>
      <point x="271.5" y="78.5"/>
      <point x="271.5" y="164" type="curve" smooth="yes"/>
      <point x="271.5" y="250"/>
      <point x="236" y="293.5"/>
      <point x="170" y="293.5" type="curve" smooth="yes"/>
      <point x="104.5" y="293.5"/>
      <point x="69" y="250"/>
      <point x="69" y="164" type="curve" smooth="yes"/>
      <point x="69" y="78.5"/>
      <point x="104.5" y="32.5"/>
    </contour>
  </outline>
</glyph>
<glyph name="Racute" format="1">
  <advance width="285"/>
  <unicode hex="0154"/>
  <outline>
    <contour>
      <point x="142" y="326" type="move" name="Anchor-1"/>
    </contour>
    <contour>
      <point x="142" y="0" type="move" name="Anchor-0"/>
    </contour>
    <contour>
      <point x="134" y="355" type="curve" smooth="yes"/>
      <point x="126.5" y="355"/>
      <point x="123.5" y="356.5"/>
      <point x="123.5" y="360" type="curve" smooth="yes"/>
      <point x="123.5" y="364.5"/>
      <point x="129" y="374"/>
      <point x="150.5" y="411.5" type="curve" smooth="yes"/>
      <point x="155.5" y="420.5"/>
      <point x="164.5" y="423.5"/>
      <point x="179.5" y="423.5" type="curve" smooth="yes"/>
      <point x="194.5" y="423.5"/>
      <point x="202" y="422"/>
      <point x="202" y="417.5" type="curve" smooth="yes"/>
      <point x="202" y="412.5"/>
      <point x="197" y="408"/>
      <point x="158" y="363.5" type="curve" smooth="yes"/>
      <point x="153" y="358"/>
      <point x="144" y="355"/>
    </contour>
    <contour>
      <point x="64" y="-1" type="line" smooth="yes"/>
      <point x="51" y="-1"/>
      <point x="45" y="3"/>
      <point x="45" y="9.5" type="curve" smooth="yes"/>
      <point x="45" y="312" type="line" smooth="yes"/>
      <point x="45" y="322"/>
      <point x="49.5" y="326"/>
      <point x="59" y="326" type="curve" smooth="yes"/>
      <point x="137.5" y="326" type="line" smooth="yes"/>
      <point x="210" y="326"/>
      <point x="250" y="302.5"/>
      <point x="250" y="243.5" type="curve" smooth="yes"/>
      <point x="250" y="203.5"/>
      <point x="229" y="178"/>
      <point x="196" y="165" type="curve"/>
      <point x="196" y="163" type="line"/>
      <point x="216" y="156.5"/>
      <point x="226" y="135.5"/>
      <point x="238" y="105" type="curve" smooth="yes"/>
      <point x="274.5" y="13" type="line" smooth="yes"/>
      <point x="275.5" y="10.5"/>
      <point x="276" y="8"/>
      <point x="276" y="6.5" type="curve" smooth="yes"/>
      <point x="276" y="2"/>
      <point x="270" y="-1"/>
      <point x="256.5" y="-1" type="curve" smooth="yes"/>
      <point x="251.5" y="-1" type="line" smooth="yes"/>
      <point x="242.5" y="-1"/>
      <point x="235" y="2"/>
      <point x="233" y="6.5" type="curve" smooth="yes"/>
      <point x="197.5" y="98" type="line" smooth="yes"/>
      <point x="183.5" y="134"/>
      <point x="164.5" y="143.5"/>
      <point x="128" y="143.5" type="curve" smooth="yes"/>
      <point x="86" y="143.5" type="line"/>
      <point x="86" y="9.5" type="line" smooth="yes"/>
      <point x="86" y="3"/>
      <point x="80.5" y="-1"/>
      <point x="67.5" y="-1" type="curve" smooth="yes"/>
    </contour>
    <contour>
      <point x="86" y="179" type="line"/>
      <point x="147.5" y="179" type="line" smooth="yes"/>
      <point x="181.5" y="179"/>
      <point x="207.5" y="205.5"/>
      <point x="207.5" y="236.5" type="curve" smooth="yes"/>
      <point x="207.5" y="274"/>
      <point x="182" y="291"/>
      <point x="144.5" y="291" type="curve" smooth="yes"/>
      <point x="86" y="291" type="line"/>
    </contour>
  </outline>
</glyph>
<glyph name="racute" format="1">
  <advance width="171"/>
  <unicode hex="0155"/>
  <outline>
    <contour>
      <point x="62" y="243" type="move" name="Anchor-1"/>
    </contour>
    <contour>
      <point x="63" y="-1" type="move" name="Anchor-0"/>
    </contour>
    <contour>
      <point x="53.5" y="271.5" type="curve" smooth="yes"/>
      <point x="46" y="271.5"/>
      <point x="43" y="273"/>
      <point x="43" y="276.5" type="curve" smooth="yes"/>
      <point x="43" y="281"/>
      <point x="48.5" y="290.5"/>
      <point x="70" y="328" type="curve" smooth="yes"/>
      <point x="75" y="337"/>
      <point x="84" y="340"/>
      <point x="99" y="340" type="curve" smooth="yes"/>
      <point x="114" y="340"/>
      <point x="121.5" y="338.5"/>
      <point x="121.5" y="334" type="curve" smooth="yes"/>
      <point x="121.5" y="329"/>
      <point x="116.5" y="324.5"/>
      <point x="77.5" y="280" type="curve" smooth="yes"/>
      <point x="72.5" y="274.5"/>
      <point x="63.5" y="271.5"/>
    </contour>
    <contour>
      <point x="60.5" y="-1" type="line" smooth="yes"/>
      <point x="47.5" y="-1"/>
      <point x="42" y="3"/>
      <point x="42" y="9.5" type="curve" smooth="yes"/>
      <point x="42" y="173" type="line" smooth="yes"/>
      <point x="42" y="211"/>
      <point x="36.5" y="229.5"/>
      <point x="36.5" y="231.5" type="curve" smooth="yes"/>
      <point x="36.5" y="240.5"/>
      <point x="55.5" y="242.5"/>
      <point x="61.5" y="242.5" type="curve" smooth="yes"/>
      <point x="72.5" y="242.5"/>
      <point x="75" y="223.5"/>
      <point x="78" y="211.5" type="curve"/>
      <point x="93.5" y="234"/>
      <point x="112.5" y="246.5"/>
      <point x="132" y="246.5" type="curve" smooth="yes"/>
      <point x="150" y="246.5"/>
      <point x="159" y="238.5"/>
      <point x="159" y="228.5" type="curve" smooth="yes"/>
      <point x="159" y="219.5"/>
      <point x="155" y="203"/>
      <point x="149.5" y="203" type="curve" smooth="yes"/>
      <point x="143.5" y="203"/>
      <point x="140" y="208.5"/>
      <point x="124" y="208.5" type="curve" smooth="yes"/>
      <point x="99.5" y="208.5"/>
      <point x="81" y="180"/>
      <point x="81" y="180" type="curve"/>
      <point x="81" y="9.5" type="line" smooth="yes"/>
      <point x="81" y="3"/>
      <point x="75.5" y="-1"/>
      <point x="62.5" y="-1" type="curve" smooth="yes"/>
    </contour>
  </outline>
</glyph>
<glyph name="rcommaaccent" format="1">
  <advance width="171"/>
  <unicode hex="0157"/>
  <outline>
    <contour>
      <point x="62" y="243" type="move" name="Anchor-1"/>
    </contour>
    <contour>
      <point x="61" y="-96" type="move" name="Anchor-0"/>
    </contour>
    <contour>
      <point x="60.5" y="-1" type="line" smooth="yes"/>
      <point x="47.5" y="-1"/>
      <point x="42" y="3"/>
      <point x="42" y="9.5" type="curve" smooth="yes"/>
      <point x="42" y="173" type="line" smooth="yes"/>
      <point x="42" y="211"/>
      <point x="36.5" y="229.5"/>
      <point x="36.5" y="231.5" type="curve" smooth="yes"/>
      <point x="36.5" y="240.5"/>
      <point x="55.5" y="242.5"/>
      <point x="61.5" y="242.5" type="curve" smooth="yes"/>
      <point x="72.5" y="242.5"/>
      <point x="75" y="223.5"/>
      <point x="78" y="211.5" type="curve"/>
      <point x="93.5" y="234"/>
      <point x="112.5" y="246.5"/>
      <point x="132" y="246.5" type="curve" smooth="yes"/>
      <point x="150" y="246.5"/>
      <point x="159" y="238.5"/>
      <point x="159" y="228.5" type="curve" smooth="yes"/>
      <point x="159" y="219.5"/>
      <point x="155" y="203"/>
      <point x="149.5" y="203" type="curve" smooth="yes"/>
      <point x="143.5" y="203"/>
      <point x="140" y="208.5"/>
      <point x="124" y="208.5" type="curve" smooth="yes"/>
      <point x="99.5" y="208.5"/>
      <point x="81" y="180"/>
      <point x="81" y="180" type="curve"/>
      <point x="81" y="9.5" type="line" smooth="yes"/>
      <point x="81" y="3"/>
      <point x="75.5" y="-1"/>
      <point x="62.5" y="-1" type="curve" smooth="yes"/>
    </contour>
    <contour>
      <point x="35" y="-110.5" type="curve" smooth="yes"/>
      <point x="30" y="-110.5"/>
      <point x="21.5" y="-109"/>
      <point x="21.5" y="-103.5" type="curve" smooth="yes"/>
      <point x="21.5" y="-93"/>
      <point x="41.5" y="-75"/>
      <point x="41.5" y="-39.5" type="curve" smooth="yes"/>
      <point x="41.5" y="-31"/>
      <point x="47.5" y="-25"/>
      <point x="60" y="-25" type="curve" smooth="yes"/>
      <point x="64.5" y="-25" type="line" smooth="yes"/>
      <point x="76" y="-25"/>
      <point x="83" y="-30"/>
      <point x="83" y="-38" type="curve" smooth="yes"/>
      <point x="83" y="-82.5"/>
      <point x="50.5" y="-110.5"/>
    </contour>
  </outline>
</glyph>
<glyph name="Rcaron" format="1">
  <advance width="285"/>
  <unicode hex="0158"/>
  <outline>
    <contour>
      <point x="142" y="326" type="move" name="Anchor-1"/>
    </contour>
    <contour>
      <point x="142" y="0" type="move" name="Anchor-0"/>
    </contour>
    <contour>
      <point x="136" y="353.5" type="line" smooth="yes"/>
      <point x="127" y="353.5"/>
      <point x="119.5" y="357"/>
      <point x="114.5" y="364" type="curve" smooth="yes"/>
      <point x="88.5" y="405" type="line" smooth="yes"/>
      <point x="86.5" y="408"/>
      <point x="86" y="411"/>
      <point x="86" y="413.5" type="curve" smooth="yes"/>
      <point x="86" y="417.5"/>
      <point x="89.5" y="420"/>
      <point x="96.5" y="420" type="curve" smooth="yes"/>
      <point x="97.5" y="420" type="line" smooth="yes"/>
      <point x="104" y="420"/>
      <point x="108.5" y="418"/>
      <point x="113.5" y="414" type="curve" smooth="yes"/>
      <point x="141.5" y="379.5" type="line"/>
      <point x="171" y="414" type="line" smooth="yes"/>
      <point x="175.5" y="418"/>
      <point x="180.5" y="420"/>
      <point x="186.5" y="420" type="curve" smooth="yes"/>
      <point x="187.5" y="420" type="line" smooth="yes"/>
      <point x="195" y="420"/>
      <point x="198.5" y="417"/>
      <point x="198.5" y="413" type="curve" smooth="yes"/>
      <point x="198.5" y="410.5"/>
      <point x="197.5" y="408"/>
      <point x="196" y="405" type="curve" smooth="yes"/>
      <point x="169" y="364" type="line" smooth="yes"/>
      <point x="164.5" y="357"/>
      <point x="157" y="353.5"/>
      <point x="148" y="353.5" type="curve" smooth="yes"/>
    </contour>
    <contour>
      <point x="64" y="-1" type="line" smooth="yes"/>
      <point x="51" y="-1"/>
      <point x="45" y="3"/>
      <point x="45" y="9.5" type="curve" smooth="yes"/>
      <point x="45" y="312" type="line" smooth="yes"/>
      <point x="45" y="322"/>
      <point x="49.5" y="326"/>
      <point x="59" y="326" type="curve" smooth="yes"/>
      <point x="137.5" y="326" type="line" smooth="yes"/>
      <point x="210" y="326"/>
      <point x="250" y="302.5"/>
      <point x="250" y="243.5" type="curve" smooth="yes"/>
      <point x="250" y="203.5"/>
      <point x="229" y="178"/>
      <point x="196" y="165" type="curve"/>
      <point x="196" y="163" type="line"/>
      <point x="216" y="156.5"/>
      <point x="226" y="135.5"/>
      <point x="238" y="105" type="curve" smooth="yes"/>
      <point x="274.5" y="13" type="line" smooth="yes"/>
      <point x="275.5" y="10.5"/>
      <point x="276" y="8"/>
      <point x="276" y="6.5" type="curve" smooth="yes"/>
      <point x="276" y="2"/>
      <point x="270" y="-1"/>
      <point x="256.5" y="-1" type="curve" smooth="yes"/>
      <point x="251.5" y="-1" type="line" smooth="yes"/>
      <point x="242.5" y="-1"/>
      <point x="235" y="2"/>
      <point x="233" y="6.5" type="curve" smooth="yes"/>
      <point x="197.5" y="98" type="line" smooth="yes"/>
      <point x="183.5" y="134"/>
      <point x="164.5" y="143.5"/>
      <point x="128" y="143.5" type="curve" smooth="yes"/>
      <point x="86" y="143.5" type="line"/>
      <point x="86" y="9.5" type="line" smooth="yes"/>
      <point x="86" y="3"/>
      <point x="80.5" y="-1"/>
      <point x="67.5" y="-1" type="curve" smooth="yes"/>
    </contour>
    <contour>
      <point x="86" y="179" type="line"/>
      <point x="147.5" y="179" type="line" smooth="yes"/>
      <point x="181.5" y="179"/>
      <point x="207.5" y="205.5"/>
      <point x="207.5" y="236.5" type="curve" smooth="yes"/>
      <point x="207.5" y="274"/>
      <point x="182" y="291"/>
      <point x="144.5" y="291" type="curve" smooth="yes"/>
      <point x="86" y="291" type="line"/>
    </contour>
  </outline>
</glyph>
<glyph name="sacute" format="1">
  <advance width="193"/>
  <unicode hex="015B"/>
  <outline>
    <contour>
      <point x="97" y="244" type="move" name="Anchor-1"/>
    </contour>
    <contour>
      <point x="97" y="0" type="move" name="Anchor-0"/>
    </contour>
    <contour>
      <point x="88.5" y="272.5" type="curve" smooth="yes"/>
      <point x="81" y="272.5"/>
      <point x="78" y="274"/>
      <point x="78" y="277.5" type="curve" smooth="yes"/>
      <point x="78" y="282"/>
      <point x="83.5" y="291.5"/>
      <point x="105" y="329" type="curve" smooth="yes"/>
      <point x="110" y="338"/>
      <point x="119" y="341"/>
      <point x="134" y="341" type="curve" smooth="yes"/>
      <point x="149" y="341"/>
      <point x="156.5" y="339.5"/>
      <point x="156.5" y="335" type="curve" smooth="yes"/>
      <point x="156.5" y="330"/>
      <point x="151.5" y="325.5"/>
      <point x="112.5" y="281" type="curve" smooth="yes"/>
      <point x="107.5" y="275.5"/>
      <point x="98.5" y="272.5"/>
    </contour>
    <contour>
      <point x="90.5" y="-4" type="curve" smooth="yes"/>
      <point x="48" y="-4"/>
      <point x="16.5" y="14.5"/>
      <point x="16.5" y="25" type="curve" smooth="yes"/>
      <point x="16.5" y="30.5"/>
      <point x="26" y="48.5"/>
      <point x="32.5" y="48.5" type="curve" smooth="yes"/>
      <point x="36" y="48.5"/>
      <point x="54.5" y="30"/>
      <point x="87.5" y="30" type="curve" smooth="yes"/>
      <point x="117.5" y="30"/>
      <point x="133.5" y="42"/>
      <point x="133.5" y="67.5" type="curve" smooth="yes"/>
      <point x="133.5" y="88.5"/>
      <point x="121.5" y="99.5"/>
      <point x="86.5" y="109.5" type="curve" smooth="yes"/>
      <point x="36.5" y="124.5"/>
      <point x="22" y="144.5"/>
      <point x="22" y="179.5" type="curve" smooth="yes"/>
      <point x="22" y="218.5"/>
      <point x="54" y="247"/>
      <point x="99.5" y="247" type="curve" smooth="yes"/>
      <point x="131" y="247"/>
      <point x="161" y="237"/>
      <point x="161" y="227" type="curve" smooth="yes"/>
      <point x="161" y="219.5"/>
      <point x="152" y="202"/>
      <point x="146" y="202" type="curve" smooth="yes"/>
      <point x="143.5" y="202"/>
      <point x="128.5" y="214"/>
      <point x="103.5" y="214" type="curve" smooth="yes"/>
      <point x="80" y="214"/>
      <point x="62" y="202.5"/>
      <point x="62" y="184.5" type="curve" smooth="yes"/>
      <point x="62" y="163.5"/>
      <point x="72" y="152"/>
      <point x="98.5" y="144" type="curve" smooth="yes"/>
      <point x="155.5" y="126.5"/>
      <point x="173" y="111"/>
      <point x="173" y="68.5" type="curve" smooth="yes"/>
      <point x="173" y="26.5"/>
      <point x="136.5" y="-4"/>
    </contour>
  </outline>
</glyph>
<glyph name="Scircumflex" format="1">
  <advance width="233"/>
  <unicode hex="015C"/>
  <outline>
    <contour>
      <point x="193" y="373" type="move" name="Anchor-1"/>
    </contour>
    <contour>
      <point x="117" y="0" type="move" name="Anchor-0"/>
    </contour>
    <contour>
      <point x="71" y="351" type="line" smooth="yes"/>
      <point x="64" y="351"/>
      <point x="60.5" y="353"/>
      <point x="60.5" y="357.5" type="curve" smooth="yes"/>
      <point x="60.5" y="360"/>
      <point x="61" y="362.5"/>
      <point x="63" y="366" type="curve" smooth="yes"/>
      <point x="89" y="407" type="line" smooth="yes"/>
      <point x="94" y="414"/>
      <point x="101.5" y="417"/>
      <point x="110.5" y="417" type="curve" smooth="yes"/>
      <point x="122.5" y="417" type="line" smooth="yes"/>
      <point x="131.5" y="417"/>
      <point x="139" y="414"/>
      <point x="143.5" y="407" type="curve" smooth="yes"/>
      <point x="170.5" y="366" type="line" smooth="yes"/>
      <point x="172" y="363"/>
      <point x="173" y="360"/>
      <point x="173" y="358" type="curve" smooth="yes"/>
      <point x="173" y="353.5"/>
      <point x="169.5" y="351"/>
      <point x="162" y="351" type="curve" smooth="yes"/>
      <point x="161" y="351" type="line" smooth="yes"/>
      <point x="155" y="351"/>
      <point x="150" y="353"/>
      <point x="145.5" y="357" type="curve" smooth="yes"/>
      <point x="116" y="391.5" type="line"/>
      <point x="88" y="357" type="line" smooth="yes"/>
      <point x="83" y="353"/>
      <point x="78.5" y="351"/>
      <point x="72" y="351" type="curve" smooth="yes"/>
    </contour>
    <contour>
      <point x="113.5" y="-3" type="curve" smooth="yes"/>
      <point x="59" y="-3"/>
      <point x="17" y="18.5"/>
      <point x="17" y="31" type="curve" smooth="yes"/>
      <point x="17" y="38.5"/>
      <point x="28.5" y="56.5"/>
      <point x="33.5" y="56.5" type="curve" smooth="yes"/>
      <point x="39.5" y="56.5"/>
      <point x="65.5" y="32.5"/>
      <point x="113.5" y="32.5" type="curve" smooth="yes"/>
      <point x="149" y="32.5"/>
      <point x="174.5" y="54.5"/>
      <point x="174.5" y="87.5" type="curve" smooth="yes"/>
      <point x="174.5" y="125"/>
      <point x="140.5" y="137"/>
      <point x="104.5" y="151" type="curve" smooth="yes"/>
      <point x="65" y="166.5"/>
      <point x="23.5" y="181.5"/>
      <point x="23.5" y="243" type="curve" smooth="yes"/>
      <point x="23.5" y="293"/>
      <point x="64.5" y="329"/>
      <point x="127" y="329" type="curve" smooth="yes"/>
      <point x="153.5" y="329"/>
      <point x="202" y="317.5"/>
      <point x="202" y="300.5" type="curve" smooth="yes"/>
      <point x="202" y="293.5"/>
      <point x="191.5" y="276"/>
      <point x="187" y="276" type="curve" smooth="yes"/>
      <point x="180" y="276"/>
      <point x="162.5" y="293.5"/>
      <point x="126" y="293.5" type="curve" smooth="yes"/>
      <point x="91" y="293.5"/>
      <point x="65.5" y="275"/>
      <point x="65.5" y="241" type="curve" smooth="yes"/>
      <point x="65.5" y="207"/>
      <point x="95.5" y="198"/>
      <point x="129" y="185.5" type="curve" smooth="yes"/>
      <point x="170.5" y="169.5"/>
      <point x="217" y="151"/>
      <point x="217" y="87.5" type="curve" smooth="yes"/>
      <point x="217" y="31.5"/>
      <point x="176.5" y="-3"/>
    </contour>
  </outline>
</glyph>
<glyph name="Scedilla" format="1">
  <advance width="233"/>
  <unicode hex="015E"/>
  <outline>
    <contour>
      <point x="117" y="326" type="move" name="Anchor-1"/>
    </contour>
    <contour>
      <point x="117" y="0" type="move" name="Anchor-0"/>
    </contour>
    <contour>
      <point x="217" y="87.5" type="curve" smooth="yes"/>
      <point x="217" y="35.5"/>
      <point x="182" y="2"/>
      <point x="127" y="-2.5" type="curve"/>
      <point x="121" y="-23" type="line"/>
      <point x="123" y="-23" type="line" smooth="yes"/>
      <point x="133.5" y="-23"/>
      <point x="162.5" y="-26"/>
      <point x="162.5" y="-56.5" type="curve" smooth="yes"/>
      <point x="162.5" y="-92.5"/>
      <point x="132.5" y="-98"/>
      <point x="109" y="-98" type="curve" smooth="yes"/>
      <point x="88" y="-98"/>
      <point x="55.5" y="-90.5"/>
      <point x="55.5" y="-78" type="curve" smooth="yes"/>
      <point x="55.5" y="-72"/>
      <point x="57.5" y="-65.5"/>
      <point x="64.5" y="-65.5" type="curve" smooth="yes"/>
      <point x="72" y="-65.5"/>
      <point x="85.5" y="-75"/>
      <point x="103" y="-75" type="curve" smooth="yes"/>
      <point x="114" y="-75"/>
      <point x="129.5" y="-73"/>
      <point x="129.5" y="-58.5" type="curve" smooth="yes"/>
      <point x="129.5" y="-37.5"/>
      <point x="99" y="-44.5"/>
      <point x="99" y="-31.5" type="curve" smooth="yes"/>
      <point x="99" y="-28"/>
      <point x="99.5" y="-25"/>
      <point x="106.5" y="-3" type="curve"/>
      <point x="55.5" y="-1"/>
      <point x="17" y="19"/>
      <point x="17" y="31" type="curve" smooth="yes"/>
      <point x="17" y="38.5"/>
      <point x="28.5" y="56.5"/>
      <point x="33.5" y="56.5" type="curve" smooth="yes"/>
      <point x="39.5" y="56.5"/>
      <point x="65.5" y="32.5"/>
      <point x="113.5" y="32.5" type="curve" smooth="yes"/>
      <point x="149" y="32.5"/>
      <point x="174.5" y="54.5"/>
      <point x="174.5" y="87.5" type="curve" smooth="yes"/>
      <point x="174.5" y="125"/>
      <point x="140.5" y="137"/>
      <point x="104.5" y="151" type="curve" smooth="yes"/>
      <point x="65" y="166.5"/>
      <point x="23.5" y="181.5"/>
      <point x="23.5" y="243" type="curve" smooth="yes"/>
      <point x="23.5" y="293"/>
      <point x="64.5" y="329"/>
      <point x="127" y="329" type="curve" smooth="yes"/>
      <point x="153.5" y="329"/>
      <point x="202" y="317.5"/>
      <point x="202" y="300.5" type="curve" smooth="yes"/>
      <point x="202" y="293.5"/>
      <point x="191.5" y="276"/>
      <point x="187" y="276" type="curve" smooth="yes"/>
      <point x="180" y="276"/>
      <point x="162.5" y="293.5"/>
      <point x="126" y="293.5" type="curve" smooth="yes"/>
      <point x="91" y="293.5"/>
      <point x="65.5" y="275"/>
      <point x="65.5" y="241" type="curve" smooth="yes"/>
      <point x="65.5" y="207"/>
      <point x="95.5" y="198"/>
      <point x="129" y="185.5" type="curve" smooth="yes"/>
      <point x="170.5" y="169.5"/>
      <point x="217" y="151"/>
    </contour>
  </outline>
</glyph>
<glyph name="uhungarumlaut" format="1">
  <advance width="260"/>
  <unicode hex="0171"/>
  <outline>
    <contour>
      <point x="130" y="244" type="move" name="Anchor-1"/>
    </contour>
    <contour>
      <point x="117" y="0" type="move" name="Anchor-0"/>
    </contour>
    <contour>
      <point x="88.5" y="272.5" type="curve" smooth="yes"/>
      <point x="81.5" y="272.5"/>
      <point x="78" y="274"/>
      <point x="78" y="277.5" type="curve" smooth="yes"/>
      <point x="78" y="282"/>
      <point x="83.5" y="291.5"/>
      <point x="105" y="329" type="curve" smooth="yes"/>
      <point x="110" y="338"/>
      <point x="119" y="341"/>
      <point x="134" y="341" type="curve" smooth="yes"/>
      <point x="149" y="341"/>
      <point x="156.5" y="339.5"/>
      <point x="156.5" y="335" type="curve" smooth="yes"/>
      <point x="156.5" y="330"/>
      <point x="151.5" y="325.5"/>
      <point x="112.5" y="281" type="curve" smooth="yes"/>
      <point x="107.5" y="275.5"/>
      <point x="98.5" y="272.5"/>
    </contour>
    <contour>
      <point x="157" y="272.5" type="curve" smooth="yes"/>
      <point x="150" y="272.5"/>
      <point x="146.5" y="274"/>
      <point x="146.5" y="277.5" type="curve" smooth="yes"/>
      <point x="146.5" y="282"/>
      <point x="152" y="291.5"/>
      <point x="173.5" y="329" type="curve" smooth="yes"/>
      <point x="178.5" y="338"/>
      <point x="187.5" y="341"/>
      <point x="202.5" y="341" type="curve" smooth="yes"/>
      <point x="217.5" y="341"/>
      <point x="225" y="339.5"/>
      <point x="225" y="335" type="curve" smooth="yes"/>
      <point x="225" y="330"/>
      <point x="220" y="325.5"/>
      <point x="181" y="281" type="curve" smooth="yes"/>
      <point x="176" y="275.5"/>
      <point x="167" y="272.5"/>
    </contour>
    <contour>
      <point x="111" y="-3" type="curve" smooth="yes"/>
      <point x="63.5" y="-3"/>
      <point x="35" y="25.5"/>
      <point x="35" y="72.5" type="curve" smooth="yes"/>
      <point x="35" y="234.5" type="line" smooth="yes"/>
      <point x="35" y="241"/>
      <point x="40.5" y="244.5"/>
      <point x="53.5" y="244.5" type="curve" smooth="yes"/>
      <point x="55.5" y="244.5" type="line" smooth="yes"/>
      <point x="68.5" y="244.5"/>
      <point x="74" y="241"/>
      <point x="74" y="234.5" type="curve" smooth="yes"/>
      <point x="74" y="76.5" type="line" smooth="yes"/>
      <point x="74" y="48"/>
      <point x="91.5" y="31"/>
      <point x="121.5" y="31" type="curve" smooth="yes"/>
      <point x="142.5" y="31"/>
      <point x="165" y="44"/>
      <point x="180.5" y="64" type="curve"/>
      <point x="180.5" y="234.5" type="line" smooth="yes"/>
      <point x="180.5" y="241"/>
      <point x="186" y="244.5"/>
      <point x="199" y="244.5" type="curve" smooth="yes"/>
      <point x="201" y="244.5" type="line" smooth="yes"/>
      <point x="214" y="244.5"/>
      <point x="219.5" y="241"/>
      <point x="219.5" y="234.5" type="curve" smooth="yes"/>
      <point x="219.5" y="69" type="line" smooth="yes"/>
      <point x="219.5" y="31"/>
      <point x="225" y="12.5"/>
      <point x="225" y="10.5" type="curve" smooth="yes"/>
      <point x="225" y="1.5"/>
      <point x="206" y="-0.5"/>
      <point x="200" y="-0.5" type="curve" smooth="yes"/>
      <point x="188.5" y="-0.5"/>
      <point x="186.5" y="19"/>
      <point x="183.5" y="32" type="curve"/>
      <point x="164" y="10.5"/>
      <point x="137" y="-3"/>
    </contour>
  </outline>
</glyph>
<glyph name="uogonek" format="1">
  <advance width="260"/>
  <unicode hex="0173"/>
  <outline>
    <contour>
      <point x="130" y="244" type="move" name="Anchor-1"/>
    </contour>
    <contour>
      <point x="117" y="0" type="move" name="Anchor-0"/>
    </contour>
    <contour>
      <point x="265.5" y="-43.5" type="curve" smooth="yes"/>
      <point x="271" y="-43.5"/>
      <point x="274.5" y="-47"/>
      <point x="274.5" y="-55" type="curve" smooth="yes"/>
      <point x="274.5" y="-76"/>
      <point x="259.5" y="-81"/>
      <point x="236" y="-81" type="curve" smooth="yes"/>
      <point x="186.5" y="-81"/>
      <point x="181" y="-47"/>
      <point x="181" y="-33" type="curve" smooth="yes"/>
      <point x="181" y="-24"/>
      <point x="182.5" y="-6"/>
      <point x="192" y="4" type="curve"/>
      <point x="187" y="10.5"/>
      <point x="185.5" y="23"/>
      <point x="183.5" y="32" type="curve"/>
      <point x="164" y="10.5"/>
      <point x="137" y="-3"/>
      <point x="111" y="-3" type="curve" smooth="yes"/>
      <point x="63.5" y="-3"/>
      <point x="35" y="25.5"/>
      <point x="35" y="72.5" type="curve" smooth="yes"/>
      <point x="35" y="234.5" type="line" smooth="yes"/>
      <point x="35" y="241"/>
      <point x="40.5" y="244.5"/>
      <point x="53.5" y="244.5" type="curve" smooth="yes"/>
      <point x="55.5" y="244.5" type="line" smooth="yes"/>
      <point x="68.5" y="244.5"/>
      <point x="74" y="241"/>
      <point x="74" y="234.5" type="curve" smooth="yes"/>
      <point x="74" y="76.5" type="line" smooth="yes"/>
      <point x="74" y="48"/>
      <point x="91.5" y="31"/>
      <point x="121.5" y="31" type="curve" smooth="yes"/>
      <point x="142.5" y="31"/>
      <point x="165" y="44"/>
      <point x="180.5" y="64" type="curve"/>
      <point x="180.5" y="234.5" type="line" smooth="yes"/>
      <point x="180.5" y="241"/>
      <point x="186" y="244.5"/>
      <point x="199" y="244.5" type="curve" smooth="yes"/>
      <point x="201" y="244.5" type="line" smooth="yes"/>
      <point x="214" y="244.5"/>
      <point x="219.5" y="241"/>
      <point x="219.5" y="234.5" type="curve" smooth="yes"/>
      <point x="219.5" y="69" type="line" smooth="yes"/>
      <point x="219.5" y="31"/>
      <point x="225" y="12.5"/>
      <point x="225" y="10.5" type="curve" smooth="yes"/>
      <point x="225" y="7"/>
      <point x="222" y="4.5"/>
      <point x="218" y="2.5" type="curve" smooth="yes"/>
      <point x="217.5" y="-4"/>
      <point x="212.5" y="-13.5"/>
      <point x="212.5" y="-24.5" type="curve" smooth="yes"/>
      <point x="212.5" y="-47"/>
      <point x="230.5" y="-48"/>
      <point x="241.5" y="-48" type="curve" smooth="yes"/>
      <point x="248.5" y="-48"/>
      <point x="258" y="-43.5"/>
    </contour>
  </outline>
</glyph>
<glyph name="zcaron" format="1">
  <advance width="228"/>
  <unicode hex="017E"/>
  <outline>
    <contour>
      <point x="114" y="244" type="move" name="Anchor-1"/>
    </contour>
    <contour>
      <point x="111" y="0" type="move" name="Anchor-0"/>
    </contour>
    <contour>
      <point x="108" y="271" type="line" smooth="yes"/>
      <point x="99" y="271"/>
      <point x="91.5" y="274.5"/>
      <point x="86.5" y="281.5" type="curve" smooth="yes"/>
      <point x="60.5" y="322.5" type="line" smooth="yes"/>
      <point x="58.5" y="325.5"/>
      <point x="58" y="328.5"/>
      <point x="58" y="331" type="curve" smooth="yes"/>
      <point x="58" y="335"/>
      <point x="61.5" y="337.5"/>
      <point x="68.5" y="337.5" type="curve" smooth="yes"/>
      <point x="69.5" y="337.5" type="line" smooth="yes"/>
      <point x="76" y="337.5"/>
      <point x="80.5" y="335.5"/>
      <point x="85.5" y="331.5" type="curve" smooth="yes"/>
      <point x="113.5" y="297" type="line"/>
      <point x="143" y="331.5" type="line" smooth="yes"/>
      <point x="147.5" y="335.5"/>
      <point x="152.5" y="337.5"/>
      <point x="158.5" y="337.5" type="curve" smooth="yes"/>
      <point x="159.5" y="337.5" type="line" smooth="yes"/>
      <point x="167" y="337.5"/>
      <point x="170.5" y="334.5"/>
      <point x="170.5" y="330.5" type="curve" smooth="yes"/>
      <point x="170.5" y="328"/>
      <point x="169.5" y="325.5"/>
      <point x="168" y="322.5" type="curve" smooth="yes"/>
      <point x="141" y="281.5" type="line" smooth="yes"/>
      <point x="136.5" y="274.5"/>
      <point x="129" y="271"/>
      <point x="120" y="271" type="curve" smooth="yes"/>
    </contour>
    <contour>
      <point x="27.5" y="0" type="line" smooth="yes"/>
      <point x="24" y="0"/>
      <point x="17" y="14.5"/>
      <point x="17" y="24" type="curve" smooth="yes"/>
      <point x="17" y="25.5"/>
      <point x="17.5" y="27.5"/>
      <point x="18.5" y="29" type="curve" smooth="yes"/>
      <point x="155" y="210" type="line"/>
      <point x="36" y="210" type="line" smooth="yes"/>
      <point x="29.5" y="210"/>
      <point x="26.5" y="214.5"/>
      <point x="26.5" y="224" type="curve" smooth="yes"/>
      <point x="26.5" y="229.5" type="line" smooth="yes"/>
      <point x="26.5" y="239.5"/>
      <point x="29.5" y="243.5"/>
      <point x="36" y="243.5" type="curve" smooth="yes"/>
      <point x="199.5" y="243.5" type="line" smooth="yes"/>
      <point x="204" y="243.5"/>
      <point x="209" y="228"/>
      <point x="209" y="219.5" type="curve" smooth="yes"/>
      <point x="209" y="217"/>
      <point x="208.5" y="216"/>
      <point x="208" y="215" type="curve" smooth="yes"/>
      <point x="72" y="33.5" type="line"/>
      <point x="200" y="33.5" type="line" smooth="yes"/>
      <point x="206.5" y="33.5"/>
      <point x="209" y="29.5"/>
      <point x="209" y="19.5" type="curve" smooth="yes"/>
      <point x="209" y="14" type="line" smooth="yes"/>
      <point x="209" y="4"/>
      <point x="206.5" y="0"/>
      <point x="200" y="0" type="curve" smooth="yes"/>
    </contour>
  </outline>
</glyph>
<glyph name="florin" format="1">
  <advance width="155"/>
  <unicode hex="0192"/>
  <outline>
    <contour>
      <point x="24" y="-96.5" type="line" smooth="yes"/>
      <point x="10.5" y="-96.5"/>
      <point x="7" y="-92.5"/>
      <point x="7" y="-86" type="curve" smooth="yes"/>
      <point x="7" y="-79.5"/>
      <point x="34.5" y="108"/>
      <point x="48" y="205.5" type="curve"/>
      <point x="29.5" y="205.5" type="line" smooth="yes"/>
      <point x="24" y="205.5"/>
      <point x="21.5" y="208.5"/>
      <point x="21.5" y="214.5" type="curve" smooth="yes"/>
      <point x="21.5" y="224.5"/>
      <point x="23" y="239"/>
      <point x="34" y="239" type="curve" smooth="yes"/>
      <point x="52.5" y="239" type="line"/>
      <point x="59" y="288" type="line" smooth="yes"/>
      <point x="66.5" y="343.5"/>
      <point x="105.5" y="352.5"/>
      <point x="128.5" y="352.5" type="curve" smooth="yes"/>
      <point x="141.5" y="352.5"/>
      <point x="161" y="351"/>
      <point x="161" y="338.5" type="curve" smooth="yes"/>
      <point x="160" y="334.5"/>
      <point x="154" y="316.5"/>
      <point x="147.5" y="316.5" type="curve" smooth="yes"/>
      <point x="143.5" y="316.5"/>
      <point x="141.5" y="318.5"/>
      <point x="128" y="318.5" type="curve" smooth="yes"/>
      <point x="115" y="318.5"/>
      <point x="102" y="315"/>
      <point x="98" y="284.5" type="curve" smooth="yes"/>
      <point x="92" y="239" type="line"/>
      <point x="132.5" y="239" type="line" smooth="yes"/>
      <point x="137.5" y="239"/>
      <point x="140.5" y="236.5"/>
      <point x="140.5" y="229.5" type="curve" smooth="yes"/>
      <point x="140.5" y="223"/>
      <point x="138.5" y="205.5"/>
      <point x="127.5" y="205.5" type="curve" smooth="yes"/>
      <point x="87" y="205.5" type="line"/>
      <point x="46" y="-86" type="line" smooth="yes"/>
      <point x="45" y="-92.5"/>
      <point x="39" y="-96.5"/>
      <point x="26" y="-96.5" type="curve" smooth="yes"/>
    </contour>
  </outline>
</glyph>
<glyph name="uni01C8" format="1">
  <advance width="354"/>
  <unicode hex="01C8"/>
  <outline>
    <contour>
      <point x="68" y="327" type="move" name="Anchor-1"/>
    </contour>
    <contour>
      <point x="132" y="0" type="move" name="Anchor-0"/>
    </contour>
    <contour>
      <point x="289.5" y="302.5" type="line" smooth="yes"/>
      <point x="276.5" y="302.5"/>
      <point x="270.5" y="306"/>
      <point x="270.5" y="312.5" type="curve" smooth="yes"/>
      <point x="270.5" y="340" type="line" smooth="yes"/>
      <point x="270.5" y="346.5"/>
      <point x="276.5" y="350.5"/>
      <point x="289.5" y="350.5" type="curve" smooth="yes"/>
      <point x="295" y="350.5" type="line" smooth="yes"/>
      <point x="308" y="350.5"/>
      <point x="313.5" y="346.5"/>
      <point x="313.5" y="340" type="curve" smooth="yes"/>
      <point x="313.5" y="312.5" type="line" smooth="yes"/>
      <point x="313.5" y="306"/>
      <point x="308" y="302.5"/>
      <point x="295" y="302.5" type="curve" smooth="yes"/>
    </contour>
    <contour>
      <point x="59" y="0" type="line" smooth="yes"/>
      <point x="49.5" y="0"/>
      <point x="45" y="4"/>
      <point x="45" y="14" type="curve" smooth="yes"/>
      <point x="45" y="317" type="line" smooth="yes"/>
      <point x="45" y="323.5"/>
      <point x="51" y="327"/>
      <point x="64" y="327" type="curve" smooth="yes"/>
      <point x="67.5" y="327" type="line" smooth="yes"/>
      <point x="80.5" y="327"/>
      <point x="86" y="323.5"/>
      <point x="86" y="317" type="curve" smooth="yes"/>
      <point x="86" y="35.5" type="line"/>
      <point x="214.5" y="35.5" type="line" smooth="yes"/>
      <point x="221" y="35.5"/>
      <point x="223.5" y="31"/>
      <point x="223.5" y="21.5" type="curve" smooth="yes"/>
      <point x="223.5" y="14" type="line" smooth="yes"/>
      <point x="223.5" y="4"/>
      <point x="221" y="0"/>
      <point x="214.5" y="0" type="curve" smooth="yes"/>
    </contour>
    <contour>
      <point x="251.5" y="-99" type="curve" smooth="yes"/>
      <point x="239" y="-99"/>
      <point x="217.5" y="-97.5"/>
      <point x="217.5" y="-85" type="curve" smooth="yes"/>
      <point x="217.5" y="-81"/>
      <point x="221" y="-63"/>
      <point x="227.5" y="-63" type="curve" smooth="yes"/>
      <point x="231.5" y="-63"/>
      <point x="234" y="-65"/>
      <point x="247.5" y="-65" type="curve" smooth="yes"/>
      <point x="261" y="-65"/>
      <point x="272.5" y="-58.5"/>
      <point x="272.5" y="-31" type="curve" smooth="yes"/>
      <point x="272.5" y="234.5" type="line" smooth="yes"/>
      <point x="272.5" y="241"/>
      <point x="278" y="244.5"/>
      <point x="291" y="244.5" type="curve" smooth="yes"/>
      <point x="293" y="244.5" type="line" smooth="yes"/>
      <point x="306" y="244.5"/>
      <point x="311.5" y="241"/>
      <point x="311.5" y="234.5" type="curve" smooth="yes"/>
      <point x="311.5" y="-34.5" type="line" smooth="yes"/>
      <point x="311.5" y="-88.5"/>
      <point x="275" y="-99"/>
    </contour>
  </outline>
</glyph>
<glyph name="uni01CB" format="1">
  <advance width="464"/>
  <unicode hex="01CB"/>
  <outline>
    <contour>
      <point x="168" y="326" type="move" name="Anchor-1"/>
    </contour>
    <contour>
      <point x="168" y="0" type="move" name="Anchor-0"/>
    </contour>
    <contour>
      <point x="399" y="302.5" type="line" smooth="yes"/>
      <point x="386" y="302.5"/>
      <point x="380" y="306"/>
      <point x="380" y="312.5" type="curve" smooth="yes"/>
      <point x="380" y="340" type="line" smooth="yes"/>
      <point x="380" y="346.5"/>
      <point x="386" y="350.5"/>
      <point x="399" y="350.5" type="curve" smooth="yes"/>
      <point x="404.5" y="350.5" type="line" smooth="yes"/>
      <point x="417.5" y="350.5"/>
      <point x="423" y="346.5"/>
      <point x="423" y="340" type="curve" smooth="yes"/>
      <point x="423" y="312.5" type="line" smooth="yes"/>
      <point x="423" y="306"/>
      <point x="417.5" y="302.5"/>
      <point x="404.5" y="302.5" type="curve" smooth="yes"/>
    </contour>
    <contour>
      <point x="60.5" y="-1" type="line" smooth="yes"/>
      <point x="47.5" y="-1"/>
      <point x="42" y="3"/>
      <point x="42" y="9.5" type="curve" smooth="yes"/>
      <point x="42" y="317" type="line" smooth="yes"/>
      <point x="42" y="323.5"/>
      <point x="47.5" y="327"/>
      <point x="60.5" y="327" type="curve" smooth="yes"/>
      <point x="70.5" y="327" type="line" smooth="yes"/>
      <point x="80.5" y="327"/>
      <point x="85.5" y="325"/>
      <point x="90" y="318.5" type="curve" smooth="yes"/>
      <point x="238.5" y="93.5" type="line"/>
      <point x="252.5" y="67.5" type="line"/>
      <point x="252.5" y="317" type="line" smooth="yes"/>
      <point x="252.5" y="323.5"/>
      <point x="258" y="327"/>
      <point x="271" y="327" type="curve" smooth="yes"/>
      <point x="274.5" y="327" type="line" smooth="yes"/>
      <point x="287.5" y="327"/>
      <point x="293" y="323.5"/>
      <point x="293" y="317" type="curve" smooth="yes"/>
      <point x="293" y="9.5" type="line" smooth="yes"/>
      <point x="293" y="3"/>
      <point x="287.5" y="-1"/>
      <point x="274.5" y="-1" type="curve" smooth="yes"/>
      <point x="265" y="-1" type="line" smooth="yes"/>
      <point x="256.5" y="-1"/>
      <point x="251.5" y="1.5"/>
      <point x="249" y="5.5" type="curve" smooth="yes"/>
      <point x="95" y="237.5" type="line"/>
      <point x="82.5" y="261.5" type="line"/>
      <point x="82.5" y="9.5" type="line" smooth="yes"/>
      <point x="82.5" y="3"/>
      <point x="77" y="-1"/>
      <point x="64" y="-1" type="curve" smooth="yes"/>
    </contour>
    <contour>
      <point x="361" y="-99" type="curve" smooth="yes"/>
      <point x="348.5" y="-99"/>
      <point x="327" y="-97.5"/>
      <point x="327" y="-85" type="curve" smooth="yes"/>
      <point x="327" y="-81"/>
      <point x="330.5" y="-63"/>
      <point x="337" y="-63" type="curve" smooth="yes"/>
      <point x="341" y="-63"/>
      <point x="343.5" y="-65"/>
      <point x="357" y="-65" type="curve" smooth="yes"/>
      <point x="370.5" y="-65"/>
      <point x="382" y="-58.5"/>
      <point x="382" y="-31" type="curve" smooth="yes"/>
      <point x="382" y="234.5" type="line" smooth="yes"/>
      <point x="382" y="241"/>
      <point x="387.5" y="244.5"/>
      <point x="400.5" y="244.5" type="curve" smooth="yes"/>
      <point x="402.5" y="244.5" type="line" smooth="yes"/>
      <point x="415.5" y="244.5"/>
      <point x="421" y="241"/>
      <point x="421" y="234.5" type="curve" smooth="yes"/>
      <point x="421" y="-34.5" type="line" smooth="yes"/>
      <point x="421" y="-88.5"/>
      <point x="384.5" y="-99"/>
    </contour>
  </outline>
</glyph>
<glyph name="uni01EA" format="1">
  <advance width="341"/>
  <unicode hex="01EA"/>
  <outline>
    <contour>
      <point x="171" y="326" type="move" name="Anchor-1"/>
    </contour>
    <contour>
      <point x="171" y="0" type="move" name="Anchor-0"/>
    </contour>
    <contour>
      <point x="314" y="164" type="curve" smooth="yes"/>
      <point x="314" y="70"/>
      <point x="277" y="14"/>
      <point x="206.5" y="0.5" type="curve"/>
      <point x="206.5" y="-0.5" type="line" smooth="yes"/>
      <point x="206.5" y="-7"/>
      <point x="201" y="-17.5"/>
      <point x="201" y="-29" type="curve" smooth="yes"/>
      <point x="201" y="-51.5"/>
      <point x="219" y="-52.5"/>
      <point x="230" y="-52.5" type="curve" smooth="yes"/>
      <point x="237" y="-52.5"/>
      <point x="246.5" y="-48"/>
      <point x="254" y="-48" type="curve" smooth="yes"/>
      <point x="259.5" y="-48"/>
      <point x="263" y="-51.5"/>
      <point x="263" y="-59.5" type="curve" smooth="yes"/>
      <point x="263" y="-80.5"/>
      <point x="248" y="-85.5"/>
      <point x="224.5" y="-85.5" type="curve" smooth="yes"/>
      <point x="175" y="-85.5"/>
      <point x="169.5" y="-51.5"/>
      <point x="169.5" y="-37.5" type="curve" smooth="yes"/>
      <point x="169.5" y="-29"/>
      <point x="171" y="-13"/>
      <point x="178.5" y="-3" type="curve"/>
      <point x="170" y="-3" type="line" smooth="yes"/>
      <point x="77" y="-3"/>
      <point x="26.5" y="55"/>
      <point x="26.5" y="164" type="curve" smooth="yes"/>
      <point x="26.5" y="273"/>
      <point x="77" y="329"/>
      <point x="170" y="329" type="curve" smooth="yes"/>
      <point x="264" y="329"/>
      <point x="314" y="273"/>
    </contour>
    <contour>
      <point x="170" y="32.5" type="curve" smooth="yes"/>
      <point x="236" y="32.5"/>
      <point x="271.5" y="78.5"/>
      <point x="271.5" y="164" type="curve" smooth="yes"/>
      <point x="271.5" y="250"/>
      <point x="236" y="293.5"/>
      <point x="170" y="293.5" type="curve" smooth="yes"/>
      <point x="104.5" y="293.5"/>
      <point x="69" y="250"/>
      <point x="69" y="164" type="curve" smooth="yes"/>
      <point x="69" y="78.5"/>
      <point x="104.5" y="32.5"/>
    </contour>
  </outline>
</glyph>
<glyph name="aringacute" format="1">
  <advance width="254"/>
  <unicode hex="01FB"/>
  <outline>
    <contour>
      <point x="127" y="244" type="move" name="Anchor-1"/>
    </contour>
    <contour>
      <point x="122" y="0" type="move" name="Anchor-0"/>
    </contour>
    <contour>
      <point x="123.5" y="361" type="curve" smooth="yes"/>
      <point x="116" y="361"/>
      <point x="113" y="362.5"/>
      <point x="113" y="366" type="curve" smooth="yes"/>
      <point x="113" y="370.5"/>
      <point x="118.5" y="380"/>
      <point x="140" y="417.5" type="curve" smooth="yes"/>
      <point x="145" y="426.5"/>
      <point x="154" y="429.5"/>
      <point x="169" y="429.5" type="curve" smooth="yes"/>
      <point x="184" y="429.5"/>
      <point x="191.5" y="428"/>
      <point x="191.5" y="423.5" type="curve" smooth="yes"/>
      <point x="191.5" y="418.5"/>
      <point x="186.5" y="414"/>
      <point x="147.5" y="369.5" type="curve" smooth="yes"/>
      <point x="142.5" y="364"/>
      <point x="133.5" y="361"/>
    </contour>
    <contour>
      <point x="126.5" y="263" type="curve" smooth="yes"/>
      <point x="104.5" y="263"/>
      <point x="87.5" y="280"/>
      <point x="87.5" y="302" type="curve" smooth="yes"/>
      <point x="87.5" y="324"/>
      <point x="104.5" y="341.5"/>
      <point x="126.5" y="341.5" type="curve" smooth="yes"/>
      <point x="148.5" y="341.5"/>
      <point x="166" y="324"/>
      <point x="166" y="302" type="curve" smooth="yes"/>
      <point x="166" y="280"/>
      <point x="148.5" y="263"/>
    </contour>
    <contour>
      <point x="126.5" y="279" type="curve" smooth="yes"/>
      <point x="139.5" y="279"/>
      <point x="150" y="289"/>
      <point x="150" y="302" type="curve" smooth="yes"/>
      <point x="150" y="315"/>
      <point x="139.5" y="325.5"/>
      <point x="126.5" y="325.5" type="curve" smooth="yes"/>
      <point x="113.5" y="325.5"/>
      <point x="103.5" y="315"/>
      <point x="103.5" y="302" type="curve" smooth="yes"/>
      <point x="103.5" y="289"/>
      <point x="113.5" y="279"/>
    </contour>
    <contour>
      <point x="102.5" y="-3" type="curve" smooth="yes"/>
      <point x="57.5" y="-3"/>
      <point x="23" y="19"/>
      <point x="23" y="67" type="curve" smooth="yes"/>
      <point x="23" y="146"/>
      <point x="106" y="151"/>
      <point x="177.5" y="152" type="curve"/>
      <point x="177.5" y="174" type="line" smooth="yes"/>
      <point x="177.5" y="195"/>
      <point x="165" y="213"/>
      <point x="126.5" y="213" type="curve" smooth="yes"/>
      <point x="84" y="213"/>
      <point x="58" y="193.5"/>
      <point x="53.5" y="193.5" type="curve" smooth="yes"/>
      <point x="47" y="193.5"/>
      <point x="37.5" y="211.5"/>
      <point x="37.5" y="216.5" type="curve" smooth="yes"/>
      <point x="37.5" y="229"/>
      <point x="78.5" y="246.5"/>
      <point x="125" y="246.5" type="curve" smooth="yes"/>
      <point x="182.5" y="246.5"/>
      <point x="216.5" y="219.5"/>
      <point x="216.5" y="173.5" type="curve" smooth="yes"/>
      <point x="216.5" y="69" type="line" smooth="yes"/>
      <point x="216.5" y="31"/>
      <point x="222.5" y="12.5"/>
      <point x="222.5" y="10.5" type="curve" smooth="yes"/>
      <point x="222.5" y="1.5"/>
      <point x="203" y="-0.5"/>
      <point x="197" y="-0.5" type="curve" smooth="yes"/>
      <point x="186" y="-0.5"/>
      <point x="183.5" y="19"/>
      <point x="181" y="32" type="curve"/>
      <point x="163" y="12.5"/>
      <point x="137.5" y="-3"/>
    </contour>
    <contour>
      <point x="104.5" y="31" type="curve" smooth="yes"/>
      <point x="138.5" y="31"/>
      <point x="159" y="46.5"/>
      <point x="177.5" y="63.5" type="curve"/>
      <point x="177.5" y="118.5" type="line"/>
      <point x="129" y="118"/>
      <point x="65" y="118"/>
      <point x="65" y="69.5" type="curve" smooth="yes"/>
      <point x="65" y="44.5"/>
      <point x="78.5" y="31"/>
    </contour>
  </outline>
</glyph>
<glyph name="scommaaccent" format="1">
  <advance width="193"/>
  <unicode hex="0219"/>
  <outline>
    <contour>
      <point x="97" y="244" type="move" name="Anchor-1"/>
    </contour>
    <contour>
      <point x="95" y="-95" type="move" name="Anchor-0"/>
    </contour>
    <contour>
      <point x="90.5" y="-4" type="curve" smooth="yes"/>
      <point x="48" y="-4"/>
      <point x="16.5" y="14.5"/>
      <point x="16.5" y="25" type="curve" smooth="yes"/>
      <point x="16.5" y="30.5"/>
      <point x="26" y="48.5"/>
      <point x="32.5" y="48.5" type="curve" smooth="yes"/>
      <point x="36" y="48.5"/>
      <point x="54.5" y="30"/>
      <point x="87.5" y="30" type="curve" smooth="yes"/>
      <point x="117.5" y="30"/>
      <point x="133.5" y="42"/>
      <point x="133.5" y="67.5" type="curve" smooth="yes"/>
      <point x="133.5" y="88.5"/>
      <point x="121.5" y="99.5"/>
      <point x="86.5" y="109.5" type="curve" smooth="yes"/>
      <point x="36.5" y="124.5"/>
      <point x="22" y="144.5"/>
      <point x="22" y="179.5" type="curve" smooth="yes"/>
      <point x="22" y="218.5"/>
      <point x="54" y="247"/>
      <point x="99.5" y="247" type="curve" smooth="yes"/>
      <point x="131" y="247"/>
      <point x="161" y="237"/>
      <point x="161" y="227" type="curve" smooth="yes"/>
      <point x="161" y="219.5"/>
      <point x="152" y="202"/>
      <point x="146" y="202" type="curve" smooth="yes"/>
      <point x="143.5" y="202"/>
      <point x="128.5" y="214"/>
      <point x="103.5" y="214" type="curve" smooth="yes"/>
      <point x="80" y="214"/>
      <point x="62" y="202.5"/>
      <point x="62" y="184.5" type="curve" smooth="yes"/>
      <point x="62" y="163.5"/>
      <point x="72" y="152"/>
      <point x="98.5" y="144" type="curve" smooth="yes"/>
      <point x="155.5" y="126.5"/>
      <point x="173" y="111"/>
      <point x="173" y="68.5" type="curve" smooth="yes"/>
      <point x="173" y="26.5"/>
      <point x="136.5" y="-4"/>
    </contour>
    <contour>
      <point x="69" y="-109.5" type="curve" smooth="yes"/>
      <point x="64" y="-109.5"/>
      <point x="55.5" y="-108"/>
      <point x="55.5" y="-102.5" type="curve" smooth="yes"/>
      <point x="55.5" y="-92"/>
      <point x="75.5" y="-74"/>
      <point x="75.5" y="-38.5" type="curve" smooth="yes"/>
      <point x="75.5" y="-30"/>
      <point x="81.5" y="-24"/>
      <point x="94" y="-24" type="curve" smooth="yes"/>
      <point x="98.5" y="-24" type="line" smooth="yes"/>
      <point x="110" y="-24"/>
      <point x="117" y="-29"/>
      <point x="117" y="-37" type="curve" smooth="yes"/>
      <point x="117" y="-81.5"/>
      <point x="84.5" y="-109.5"/>
    </contour>
  </outline>
</glyph>
<glyph name="uni021B" format="1">
  <advance width="160"/>
  <unicode hex="021B"/>
  <outline>
    <contour>
      <point x="0" y="0" type="move" name="Anchor-1"/>
    </contour>
    <contour>
      <point x="99" y="-95" type="move" name="Anchor-0"/>
    </contour>
    <contour>
      <point x="110" y="-3" type="curve" smooth="yes"/>
      <point x="86.5" y="-3"/>
      <point x="50" y="7.5"/>
      <point x="50" y="61.5" type="curve" smooth="yes"/>
      <point x="50" y="210" type="line"/>
      <point x="26.5" y="210" type="line" smooth="yes"/>
      <point x="20" y="210"/>
      <point x="17" y="214.5"/>
      <point x="17" y="224" type="curve" smooth="yes"/>
      <point x="17" y="229.5" type="line" smooth="yes"/>
      <point x="17" y="239.5"/>
      <point x="20" y="243.5"/>
      <point x="26.5" y="243.5" type="curve" smooth="yes"/>
      <point x="50" y="243.5" type="line"/>
      <point x="55.5" y="292.5" type="line" smooth="yes"/>
      <point x="56" y="299"/>
      <point x="60.5" y="303"/>
      <point x="70.5" y="303" type="curve" smooth="yes"/>
      <point x="75" y="303" type="line" smooth="yes"/>
      <point x="85" y="303"/>
      <point x="89" y="299"/>
      <point x="89" y="292.5" type="curve" smooth="yes"/>
      <point x="89" y="243.5" type="line"/>
      <point x="128" y="243.5" type="line" smooth="yes"/>
      <point x="134.5" y="243.5"/>
      <point x="137.5" y="239.5"/>
      <point x="137.5" y="229.5" type="curve" smooth="yes"/>
      <point x="137.5" y="224" type="line" smooth="yes"/>
      <point x="137.5" y="214.5"/>
      <point x="134.5" y="210"/>
      <point x="128" y="210" type="curve" smooth="yes"/>
      <point x="89" y="210" type="line"/>
      <point x="89" y="65" type="line" smooth="yes"/>
      <point x="89" y="37.5"/>
      <point x="100.5" y="31"/>
      <point x="114" y="31" type="curve" smooth="yes"/>
      <point x="127.5" y="31"/>
      <point x="130" y="33"/>
      <point x="134" y="33" type="curve" smooth="yes"/>
      <point x="140.5" y="33"/>
      <point x="144" y="15"/>
      <point x="144" y="11" type="curve" smooth="yes"/>
      <point x="144" y="-1.5"/>
      <point x="122.5" y="-3"/>
    </contour>
    <contour>
      <point x="73" y="-109.5" type="curve" smooth="yes"/>
      <point x="68" y="-109.5"/>
      <point x="59.5" y="-108"/>
      <point x="59.5" y="-102.5" type="curve" smooth="yes"/>
      <point x="59.5" y="-92"/>
      <point x="79.5" y="-74"/>
      <point x="79.5" y="-38.5" type="curve" smooth="yes"/>
      <point x="79.5" y="-30"/>
      <point x="85.5" y="-24"/>
      <point x="98" y="-24" type="curve" smooth="yes"/>
      <point x="102.5" y="-24" type="line" smooth="yes"/>
      <point x="114" y="-24"/>
      <point x="121" y="-29"/>
      <point x="121" y="-37" type="curve" smooth="yes"/>
      <point x="121" y="-81.5"/>
      <point x="88.5" y="-109.5"/>
    </contour>
  </outline>
</glyph>
<glyph name="uni0237" format="1">
  <advance width="129"/>
  <unicode hex="0237"/>
  <outline>
    <contour>
      <point x="67" y="244" type="move" name="Anchor-1"/>
    </contour>
    <contour>
      <point x="0" y="0" type="move" name="Anchor-0"/>
    </contour>
    <contour>
      <point x="26" y="-99" type="curve" smooth="yes"/>
      <point x="13.5" y="-99"/>
      <point x="-8" y="-97.5"/>
      <point x="-8" y="-85" type="curve" smooth="yes"/>
      <point x="-8" y="-81"/>
      <point x="-4.5" y="-63"/>
      <point x="2" y="-63" type="curve" smooth="yes"/>
      <point x="6" y="-63"/>
      <point x="8.5" y="-65"/>
      <point x="22" y="-65" type="curve" smooth="yes"/>
      <point x="35.5" y="-65"/>
      <point x="47" y="-58.5"/>
      <point x="47" y="-31" type="curve" smooth="yes"/>
      <point x="47" y="234.5" type="line" smooth="yes"/>
      <point x="47" y="241"/>
      <point x="52.5" y="244.5"/>
      <point x="65.5" y="244.5" type="curve" smooth="yes"/>
      <point x="67.5" y="244.5" type="line" smooth="yes"/>
      <point x="80.5" y="244.5"/>
      <point x="86" y="241"/>
      <point x="86" y="234.5" type="curve" smooth="yes"/>
      <point x="86" y="-34.5" type="line" smooth="yes"/>
      <point x="86" y="-88.5"/>
      <point x="49.5" y="-99"/>
    </contour>
  </outline>
</glyph>
<glyph name="caron" format="1">
  <advance width="149"/>
  <unicode hex="02C7"/>
  <outline>
    <contour>
      <point x="66.5" y="271" type="line" smooth="yes"/>
      <point x="57.5" y="271"/>
      <point x="50" y="274.5"/>
      <point x="45" y="281.5" type="curve" smooth="yes"/>
      <point x="19" y="322.5" type="line" smooth="yes"/>
      <point x="17" y="325.5"/>
      <point x="16.5" y="328.5"/>
      <point x="16.5" y="331" type="curve" smooth="yes"/>
      <point x="16.5" y="335"/>
      <point x="20" y="337.5"/>
      <point x="27" y="337.5" type="curve" smooth="yes"/>
      <point x="28" y="337.5" type="line" smooth="yes"/>
      <point x="34.5" y="337.5"/>
      <point x="39" y="335.5"/>
      <point x="44" y="331.5" type="curve" smooth="yes"/>
      <point x="72" y="297" type="line"/>
      <point x="101.5" y="331.5" type="line" smooth="yes"/>
      <point x="106" y="335.5"/>
      <point x="111" y="337.5"/>
      <point x="117" y="337.5" type="curve" smooth="yes"/>
      <point x="118" y="337.5" type="line" smooth="yes"/>
      <point x="125.5" y="337.5"/>
      <point x="129" y="334.5"/>
      <point x="129" y="330.5" type="curve" smooth="yes"/>
      <point x="129" y="328"/>
      <point x="128" y="325.5"/>
      <point x="126.5" y="322.5" type="curve" smooth="yes"/>
      <point x="99.5" y="281.5" type="line" smooth="yes"/>
      <point x="95" y="274.5"/>
      <point x="87.5" y="271"/>
      <point x="78.5" y="271" type="curve" smooth="yes"/>
    </contour>
  </outline>
</glyph>
<glyph name="breve" format="1">
  <advance width="149"/>
  <unicode hex="02D8"/>
  <outline>
    <contour>
      <point x="73.5" y="272.5" type="curve" smooth="yes"/>
      <point x="40" y="272.5"/>
      <point x="6" y="290.5"/>
      <point x="6" y="326" type="curve" smooth="yes"/>
      <point x="6" y="331"/>
      <point x="8" y="333"/>
      <point x="13" y="333" type="curve" smooth="yes"/>
      <point x="21" y="333"/>
      <point x="19.5" y="329"/>
      <point x="23.5" y="321.5" type="curve" smooth="yes"/>
      <point x="30.5" y="308.5"/>
      <point x="51" y="303.5"/>
      <point x="73.5" y="303.5" type="curve" smooth="yes"/>
      <point x="96.5" y="303.5"/>
      <point x="116.5" y="308.5"/>
      <point x="123.5" y="321.5" type="curve" smooth="yes"/>
      <point x="127" y="329"/>
      <point x="126" y="333"/>
      <point x="133.5" y="333" type="curve" smooth="yes"/>
      <point x="139" y="333"/>
      <point x="140.5" y="331"/>
      <point x="140.5" y="326" type="curve" smooth="yes"/>
      <point x="140.5" y="290.5"/>
      <point x="106.5" y="272.5"/>
    </contour>
  </outline>
</glyph>
<glyph name="ring" format="1">
  <advance width="149"/>
  <unicode hex="02DA"/>
  <outline>
    <contour>
      <point x="74.5" y="263" type="curve" smooth="yes"/>
      <point x="52.5" y="263"/>
      <point x="35.5" y="280"/>
      <point x="35.5" y="302" type="curve" smooth="yes"/>
      <point x="35.5" y="324"/>
      <point x="52.5" y="341.5"/>
      <point x="74.5" y="341.5" type="curve" smooth="yes"/>
      <point x="96.5" y="341.5"/>
      <point x="114" y="324"/>
      <point x="114" y="302" type="curve" smooth="yes"/>
      <point x="114" y="280"/>
      <point x="96.5" y="263"/>
    </contour>
    <contour>
      <point x="74.5" y="279" type="curve" smooth="yes"/>
      <point x="87.5" y="279"/>
      <point x="98" y="289"/>
      <point x="98" y="302" type="curve" smooth="yes"/>
      <point x="98" y="315"/>
      <point x="87.5" y="325.5"/>
      <point x="74.5" y="325.5" type="curve" smooth="yes"/>
      <point x="61.5" y="325.5"/>
      <point x="51.5" y="315"/>
      <point x="51.5" y="302" type="curve" smooth="yes"/>
      <point x="51.5" y="289"/>
      <point x="61.5" y="279"/>
    </contour>
  </outline>
</glyph>
<glyph name="uni0302" format="1">
  <advance width="0"/>
  <unicode hex="0302"/>
  <outline>
    <contour>
      <point x="1" y="244" type="move" name="_Anchor-3"/>
    </contour>
    <contour>
      <point x="1" y="244" type="move" name="_Anchor-2"/>
    </contour>
    <contour>
      <point x="1" y="244" type="move" name="_Anchor-1"/>
    </contour>
    <contour>
      <point x="-44.5" y="268.5" type="line" smooth="yes"/>
      <point x="-51.5" y="268.5"/>
      <point x="-55" y="270.5"/>
      <point x="-55" y="275" type="curve" smooth="yes"/>
      <point x="-55" y="277.5"/>
      <point x="-54.5" y="280"/>
      <point x="-52.5" y="283.5" type="curve" smooth="yes"/>
      <point x="-26.5" y="324.5" type="line" smooth="yes"/>
      <point x="-21.5" y="331.5"/>
      <point x="-14" y="334.5"/>
      <point x="-5" y="334.5" type="curve" smooth="yes"/>
      <point x="7" y="334.5" type="line" smooth="yes"/>
      <point x="16" y="334.5"/>
      <point x="23.5" y="331.5"/>
      <point x="28" y="324.5" type="curve" smooth="yes"/>
      <point x="55" y="283.5" type="line" smooth="yes"/>
      <point x="56.5" y="280.5"/>
      <point x="57.5" y="277.5"/>
      <point x="57.5" y="275.5" type="curve" smooth="yes"/>
      <point x="57.5" y="271"/>
      <point x="54" y="268.5"/>
      <point x="46.5" y="268.5" type="curve" smooth="yes"/>
      <point x="45.5" y="268.5" type="line" smooth="yes"/>
      <point x="39.5" y="268.5"/>
      <point x="34.5" y="270.5"/>
      <point x="30" y="274.5" type="curve" smooth="yes"/>
      <point x="0.5" y="309" type="line"/>
      <point x="-27.5" y="274.5" type="line" smooth="yes"/>
      <point x="-32.5" y="270.5"/>
      <point x="-37" y="268.5"/>
      <point x="-43.5" y="268.5" type="curve" smooth="yes"/>
    </contour>
  </outline>
</glyph>
<glyph name="tildecomb" format="1">
  <advance width="0"/>
  <unicode hex="0303"/>
  <outline>
    <contour>
      <point x="3" y="244" type="move" name="_Anchor-3"/>
    </contour>
    <contour>
      <point x="3" y="244" type="move" name="_Anchor-2"/>
    </contour>
    <contour>
      <point x="3" y="244" type="move" name="_Anchor-1"/>
    </contour>
    <contour>
      <point x="-68.5" y="276" type="curve" smooth="yes"/>
      <point x="-73.5" y="277.5" type="line" smooth="yes"/>
      <point x="-77" y="279"/>
      <point x="-78" y="281"/>
      <point x="-78" y="283.5" type="curve" smooth="yes"/>
      <point x="-78" y="285"/>
      <point x="-77.5" y="287"/>
      <point x="-76" y="289.5" type="curve" smooth="yes"/>
      <point x="-66.5" y="313"/>
      <point x="-52.5" y="321.5"/>
      <point x="-33.5" y="321.5" type="curve" smooth="yes"/>
      <point x="-6.5" y="321.5"/>
      <point x="25.5" y="301.5"/>
      <point x="47.5" y="301.5" type="curve" smooth="yes"/>
      <point x="56" y="301.5"/>
      <point x="61.5" y="305"/>
      <point x="68" y="315" type="curve" smooth="yes"/>
      <point x="71" y="320"/>
      <point x="74" y="322"/>
      <point x="77" y="322" type="curve" smooth="yes"/>
      <point x="79" y="322"/>
      <point x="80" y="321.5"/>
      <point x="82" y="320.5" type="curve" smooth="yes"/>
      <point x="85.5" y="319" type="line" smooth="yes"/>
      <point x="89.5" y="318"/>
      <point x="91" y="316"/>
      <point x="91" y="313.5" type="curve" smooth="yes"/>
      <point x="91" y="312"/>
      <point x="90.5" y="310"/>
      <point x="89.5" y="307" type="curve" smooth="yes"/>
      <point x="79" y="284"/>
      <point x="65" y="275.5"/>
      <point x="46.5" y="275.5" type="curve" smooth="yes"/>
      <point x="18" y="275.5"/>
      <point x="-14" y="295.5"/>
      <point x="-36" y="295.5" type="curve" smooth="yes"/>
      <point x="-44" y="295.5"/>
      <point x="-48.5" y="291.5"/>
      <point x="-55.5" y="281.5" type="curve" smooth="yes"/>
      <point x="-58.5" y="276.5"/>
      <point x="-61" y="274.5"/>
      <point x="-64" y="274.5" type="curve" smooth="yes"/>
      <point x="-65" y="274.5"/>
      <point x="-67" y="275"/>
    </contour>
  </outline>
</glyph>
<glyph name="hookabovecomb" format="1">
  <advance width="0"/>
  <unicode hex="0309"/>
  <outline>
    <contour>
      <point x="-140" y="244" type="move" name="_Anchor-3"/>
    </contour>
    <contour>
      <point x="-140" y="244" type="move" name="_Anchor-2"/>
    </contour>
    <contour>
      <point x="-140" y="244" type="move" name="_Anchor-1"/>
    </contour>
    <contour>
      <point x="-136.5" y="262.5" type="curve" smooth="yes"/>
      <point x="-141" y="262.5"/>
      <point x="-152" y="266"/>
      <point x="-152" y="270.5" type="curve" smooth="yes"/>
      <point x="-152" y="284"/>
      <point x="-123" y="290"/>
      <point x="-123" y="313" type="curve" smooth="yes"/>
      <point x="-123" y="321.5"/>
      <point x="-131" y="325.5"/>
      <point x="-140.5" y="325.5" type="curve" smooth="yes"/>
      <point x="-155" y="325.5"/>
      <point x="-159.5" y="319.5"/>
      <point x="-162" y="319.5" type="curve" smooth="yes"/>
      <point x="-165.5" y="319.5"/>
      <point x="-173" y="330.5"/>
      <point x="-173" y="335" type="curve" smooth="yes"/>
      <point x="-173" y="341"/>
      <point x="-153" y="349.5"/>
      <point x="-136.5" y="349.5" type="curve" smooth="yes"/>
      <point x="-121" y="349.5"/>
      <point x="-94.5" y="342"/>
      <point x="-94.5" y="316.5" type="curve" smooth="yes"/>
      <point x="-94.5" y="285.5"/>
      <point x="-131" y="262.5"/>
    </contour>
  </outline>
</glyph>
<glyph name="Omega" format="1">
  <advance width="341"/>
  <unicode hex="03A9"/>
  <outline>
    <contour>
      <point x="28.5" y="0" type="line" smooth="yes"/>
      <point x="22" y="0"/>
      <point x="19" y="4"/>
      <point x="19" y="14" type="curve" smooth="yes"/>
      <point x="19" y="17.5" type="line" smooth="yes"/>
      <point x="19" y="27.5"/>
      <point x="22" y="31.5"/>
      <point x="28.5" y="31.5" type="curve" smooth="yes"/>
      <point x="38.5" y="31.5"/>
      <point x="63.5" y="30.5"/>
      <point x="73.5" y="30" type="curve"/>
      <point x="42.5" y="58.5"/>
      <point x="26.5" y="103.5"/>
      <point x="26.5" y="164" type="curve" smooth="yes"/>
      <point x="26.5" y="273"/>
      <point x="77" y="329"/>
      <point x="170" y="329" type="curve" smooth="yes"/>
      <point x="264" y="329"/>
      <point x="314" y="273"/>
      <point x="314" y="164" type="curve" smooth="yes"/>
      <point x="314" y="103.5"/>
      <point x="298" y="58.5"/>
      <point x="266.5" y="30" type="curve"/>
      <point x="277" y="30.5"/>
      <point x="301.5" y="31.5"/>
      <point x="312" y="31.5" type="curve" smooth="yes"/>
      <point x="318.5" y="31.5"/>
      <point x="321" y="27.5"/>
      <point x="321" y="17.5" type="curve" smooth="yes"/>
      <point x="321" y="14" type="line" smooth="yes"/>
      <point x="321" y="4"/>
      <point x="318.5" y="0"/>
      <point x="312" y="0" type="curve" smooth="yes"/>
      <point x="201.5" y="0" type="line" smooth="yes"/>
      <point x="195" y="0"/>
      <point x="192" y="4"/>
      <point x="192" y="14" type="curve" smooth="yes"/>
      <point x="192" y="16" type="line" smooth="yes"/>
      <point x="192" y="20.5"/>
      <point x="192" y="23.5"/>
      <point x="195.5" y="24" type="curve" smooth="yes"/>
      <point x="246.5" y="37.5"/>
      <point x="271.5" y="81.5"/>
      <point x="271.5" y="164" type="curve" smooth="yes"/>
      <point x="271.5" y="250"/>
      <point x="236" y="293.5"/>
      <point x="170" y="293.5" type="curve" smooth="yes"/>
      <point x="104.5" y="293.5"/>
      <point x="69" y="250"/>
      <point x="69" y="164" type="curve" smooth="yes"/>
      <point x="69" y="81.5"/>
      <point x="93.5" y="37.5"/>
      <point x="145" y="24" type="curve" smooth="yes"/>
      <point x="148" y="23.5"/>
      <point x="148" y="20.5"/>
      <point x="148" y="16" type="curve" smooth="yes"/>
      <point x="148" y="14" type="line" smooth="yes"/>
      <point x="148" y="4"/>
      <point x="145.5" y="0"/>
      <point x="139" y="0" type="curve" smooth="yes"/>
    </contour>
  </outline>
</glyph>
<glyph name="pi" format="1">
  <advance width="287"/>
  <unicode hex="03C0"/>
  <outline>
    <contour>
      <point x="44" y="-1" type="line" smooth="yes"/>
      <point x="35.5" y="-1"/>
      <point x="31" y="3.5"/>
      <point x="31" y="9" type="curve" smooth="yes"/>
      <point x="31" y="10.5"/>
      <point x="31" y="11.5"/>
      <point x="31.5" y="13" type="curve" smooth="yes"/>
      <point x="49" y="65"/>
      <point x="62.5" y="149"/>
      <point x="65" y="210" type="curve"/>
      <point x="29" y="210"/>
      <point x="24" y="206"/>
      <point x="16" y="206" type="curve" smooth="yes"/>
      <point x="8.5" y="206"/>
      <point x="6.5" y="212.5"/>
      <point x="6.5" y="223" type="curve" smooth="yes"/>
      <point x="6.5" y="239"/>
      <point x="35" y="243.5"/>
      <point x="75.5" y="243.5" type="curve" smooth="yes"/>
      <point x="264.5" y="243.5" type="line" smooth="yes"/>
      <point x="271.5" y="243.5"/>
      <point x="276" y="242"/>
      <point x="276" y="235" type="curve" smooth="yes"/>
      <point x="276" y="234"/>
      <point x="276" y="232.5"/>
      <point x="274.5" y="220.5" type="curve" smooth="yes"/>
      <point x="273.5" y="212"/>
      <point x="268.5" y="210"/>
      <point x="260" y="210" type="curve" smooth="yes"/>
      <point x="234.5" y="210" type="line"/>
      <point x="234.5" y="72" type="line" smooth="yes"/>
      <point x="234.5" y="40"/>
      <point x="238.5" y="22.5"/>
      <point x="238.5" y="10.5" type="curve" smooth="yes"/>
      <point x="238.5" y="3.5"/>
      <point x="235" y="-1"/>
      <point x="226.5" y="-1" type="curve" smooth="yes"/>
      <point x="215.5" y="-1" type="line" smooth="yes"/>
      <point x="196.5" y="-1"/>
      <point x="195.5" y="18.5"/>
      <point x="195.5" y="68" type="curve" smooth="yes"/>
      <point x="195.5" y="210" type="line"/>
      <point x="104.5" y="210" type="line"/>
      <point x="101.5" y="151"/>
      <point x="87" y="58.5"/>
      <point x="70.5" y="10.5" type="curve" smooth="yes"/>
      <point x="67.5" y="3.5"/>
      <point x="62.5" y="-1"/>
      <point x="54.5" y="-1" type="curve" smooth="yes"/>
    </contour>
  </outline>
</glyph>
<glyph name="uni0908" format="1">
  <advance width="291"/>
  <unicode hex="0908"/>
  <outline>
    <contour>
      <point x="0" y="0" type="move" name="Anchor-6"/>
    </contour>
    <contour>
      <point x="184" y="-65" type="move" name="Anchor-5"/>
    </contour>
    <contour>
      <point x="67" y="-8" type="move" name="Anchor-4"/>
    </contour>
    <contour>
      <point x="216" y="326" type="move" name="Anchor-2"/>
    </contour>
    <contour>
      <point x="313.5" y="461.5" type="curve" smooth="yes"/>
      <point x="318.5" y="460"/>
      <point x="321" y="457"/>
      <point x="321" y="453" type="curve" smooth="yes"/>
      <point x="321" y="451.5"/>
      <point x="320.5" y="450"/>
      <point x="320" y="448.5" type="curve" smooth="yes"/>
      <point x="317" y="438" type="line" smooth="yes"/>
      <point x="315" y="433"/>
      <point x="312" y="431"/>
      <point x="308" y="431" type="curve" smooth="yes"/>
      <point x="307" y="431"/>
      <point x="305.5" y="431"/>
      <point x="303.5" y="431.5" type="curve" smooth="yes"/>
      <point x="289" y="435.5"/>
      <point x="277.5" y="438"/>
      <point x="268" y="438" type="curve" smooth="yes"/>
      <point x="241" y="438"/>
      <point x="214.5" y="427.5"/>
      <point x="214.5" y="388" type="curve" smooth="yes"/>
      <point x="214.5" y="371"/>
      <point x="220" y="355"/>
      <point x="230" y="338.5" type="curve"/>
      <point x="296" y="338.5" type="line" smooth="yes"/>
      <point x="303" y="338.5"/>
      <point x="306.5" y="335"/>
      <point x="306.5" y="328" type="curve" smooth="yes"/>
      <point x="306.5" y="317.5" type="line" smooth="yes"/>
      <point x="306.5" y="311"/>
      <point x="303" y="307"/>
      <point x="296" y="307" type="curve" smooth="yes"/>
      <point x="234" y="307" type="line"/>
      <point x="234" y="227" type="line" smooth="yes"/>
      <point x="234" y="217.5"/>
      <point x="229" y="212.5"/>
      <point x="219.5" y="212.5" type="curve" smooth="yes"/>
      <point x="127.5" y="212.5" type="line" smooth="yes"/>
      <point x="95" y="212.5"/>
      <point x="76" y="204"/>
      <point x="76" y="183.5" type="curve" smooth="yes"/>
      <point x="76" y="169"/>
      <point x="86" y="149.5"/>
      <point x="103" y="140.5" type="curve"/>
      <point x="136.5" y="150"/>
      <point x="165" y="158.5"/>
      <point x="192" y="158.5" type="curve" smooth="yes"/>
      <point x="240" y="158.5"/>
      <point x="263.5" y="132"/>
      <point x="263.5" y="97" type="curve" smooth="yes"/>
      <point x="263.5" y="49"/>
      <point x="220" y="13"/>
      <point x="150.5" y="8" type="curve"/>
      <point x="191.5" y="-58" type="line" smooth="yes"/>
      <point x="192.5" y="-60"/>
      <point x="193.5" y="-62"/>
      <point x="193.5" y="-64" type="curve" smooth="yes"/>
      <point x="193.5" y="-67.5"/>
      <point x="191.5" y="-70.5"/>
      <point x="188" y="-72" type="curve" smooth="yes"/>
      <point x="177.5" y="-78" type="line" smooth="yes"/>
      <point x="175" y="-79"/>
      <point x="173.5" y="-79.5"/>
      <point x="171.5" y="-79.5" type="curve" smooth="yes"/>
      <point x="168.5" y="-79.5"/>
      <point x="166" y="-78"/>
      <point x="163.5" y="-74" type="curve" smooth="yes"/>
      <point x="115.5" y="7.5" type="line"/>
      <point x="80" y="8.5"/>
      <point x="44.5" y="14"/>
      <point x="44.5" y="39" type="curve" smooth="yes"/>
      <point x="44.5" y="59.5"/>
      <point x="66.5" y="85"/>
      <point x="81.5" y="85" type="curve" smooth="yes"/>
      <point x="98.5" y="85"/>
      <point x="116.5" y="61.5"/>
      <point x="131.5" y="38.5" type="curve"/>
      <point x="133.5" y="38.5" type="line" smooth="yes"/>
      <point x="191.5" y="38.5"/>
      <point x="226.5" y="60.5"/>
      <point x="226.5" y="94.5" type="curve" smooth="yes"/>
      <point x="226.5" y="116"/>
      <point x="213" y="127"/>
      <point x="187.5" y="127" type="curve" smooth="yes"/>
      <point x="159" y="127"/>
      <point x="122" y="112.5"/>
      <point x="101.5" y="112.5" type="curve" smooth="yes"/>
      <point x="70" y="112.5"/>
      <point x="39" y="147.5"/>
      <point x="39" y="185.5" type="curve" smooth="yes"/>
      <point x="39" y="230"/>
      <point x="81" y="243.5"/>
      <point x="123" y="243.5" type="curve" smooth="yes"/>
      <point x="198" y="243.5" type="line"/>
      <point x="198" y="307" type="line"/>
      <point x="-4.5" y="307" type="line" smooth="yes"/>
      <point x="-11.5" y="307"/>
      <point x="-15.5" y="311"/>
      <point x="-15.5" y="317.5" type="curve" smooth="yes"/>
      <point x="-15.5" y="328" type="line" smooth="yes"/>
      <point x="-15.5" y="335"/>
      <point x="-11.5" y="338.5"/>
      <point x="-4.5" y="338.5" type="curve" smooth="yes"/>
      <point x="193.5" y="338.5" type="line"/>
      <point x="185" y="356"/>
      <point x="180" y="374"/>
      <point x="180" y="392.5" type="curve" smooth="yes"/>
      <point x="180" y="452.5"/>
      <point x="227.5" y="470"/>
      <point x="264" y="470" type="curve" smooth="yes"/>
      <point x="278" y="470"/>
      <point x="294.5" y="467"/>
    </contour>
  </outline>
</glyph>
